G04 start of page 3 for group 1 idx 1 *
G04 Title: (unknown), bottom *
G04 Creator: pcb 4.0.2 *
G04 CreationDate: Sat May 14 18:14:40 2022 UTC *
G04 For: railfan *
G04 Format: Gerber/RS-274X *
G04 PCB-Dimensions (mil): 1400.00 2300.00 *
G04 PCB-Coordinate-Origin: lower left *
%MOIN*%
%FSLAX25Y25*%
%LNBOTTOM*%
%ADD23C,0.0380*%
%ADD22C,0.0200*%
%ADD21C,0.0360*%
%ADD20C,0.0600*%
%ADD19C,0.0100*%
%ADD18C,0.0001*%
G54D18*G36*
X118613Y217500D02*X122500D01*
Y39500D01*
X118613D01*
Y124802D01*
X118652Y124847D01*
X119022Y125451D01*
X119293Y126105D01*
X119458Y126794D01*
X119500Y127500D01*
X119458Y128206D01*
X119293Y128895D01*
X119022Y129549D01*
X118652Y130153D01*
X118613Y130198D01*
Y135353D01*
X118656Y135360D01*
X118768Y135397D01*
X118873Y135452D01*
X118968Y135522D01*
X119051Y135606D01*
X119119Y135702D01*
X119170Y135808D01*
X119318Y136216D01*
X119422Y136637D01*
X119484Y137067D01*
X119505Y137500D01*
X119484Y137933D01*
X119422Y138363D01*
X119318Y138784D01*
X119175Y139194D01*
X119122Y139300D01*
X119053Y139396D01*
X118970Y139481D01*
X118875Y139551D01*
X118769Y139606D01*
X118657Y139643D01*
X118613Y139651D01*
Y144802D01*
X118652Y144847D01*
X119022Y145451D01*
X119293Y146105D01*
X119458Y146794D01*
X119500Y147500D01*
X119458Y148206D01*
X119293Y148895D01*
X119022Y149549D01*
X118652Y150153D01*
X118613Y150198D01*
Y154802D01*
X118652Y154847D01*
X119022Y155451D01*
X119293Y156105D01*
X119458Y156794D01*
X119500Y157500D01*
X119458Y158206D01*
X119293Y158895D01*
X119022Y159549D01*
X118652Y160153D01*
X118613Y160198D01*
Y164802D01*
X118652Y164847D01*
X119022Y165451D01*
X119293Y166105D01*
X119458Y166794D01*
X119500Y167500D01*
X119458Y168206D01*
X119293Y168895D01*
X119022Y169549D01*
X118652Y170153D01*
X118613Y170198D01*
Y175353D01*
X118656Y175360D01*
X118768Y175397D01*
X118873Y175452D01*
X118968Y175522D01*
X119051Y175606D01*
X119119Y175702D01*
X119170Y175808D01*
X119318Y176216D01*
X119422Y176637D01*
X119484Y177067D01*
X119505Y177500D01*
X119484Y177933D01*
X119422Y178363D01*
X119318Y178784D01*
X119175Y179194D01*
X119122Y179300D01*
X119053Y179396D01*
X118970Y179481D01*
X118875Y179551D01*
X118769Y179606D01*
X118657Y179643D01*
X118613Y179651D01*
Y184802D01*
X118652Y184847D01*
X119022Y185451D01*
X119293Y186105D01*
X119458Y186794D01*
X119500Y187500D01*
X119458Y188206D01*
X119293Y188895D01*
X119022Y189549D01*
X118652Y190153D01*
X118613Y190198D01*
Y217500D01*
G37*
G36*
Y170198D02*X118192Y170692D01*
X117653Y171152D01*
X117049Y171522D01*
X116395Y171793D01*
X115706Y171958D01*
X115000Y172014D01*
X114993Y172013D01*
Y172995D01*
X115000Y172995D01*
X115433Y173016D01*
X115863Y173078D01*
X116284Y173182D01*
X116694Y173325D01*
X116800Y173378D01*
X116896Y173447D01*
X116981Y173530D01*
X117051Y173625D01*
X117106Y173731D01*
X117143Y173843D01*
X117163Y173960D01*
X117164Y174079D01*
X117146Y174196D01*
X117110Y174309D01*
X117057Y174415D01*
X116988Y174512D01*
X116905Y174596D01*
X116809Y174667D01*
X116704Y174721D01*
X116592Y174759D01*
X116475Y174778D01*
X116356Y174779D01*
X116239Y174761D01*
X116126Y174723D01*
X115855Y174624D01*
X115575Y174556D01*
X115289Y174514D01*
X115000Y174500D01*
X114993Y174500D01*
Y180500D01*
X115000Y180500D01*
X115289Y180486D01*
X115575Y180444D01*
X115855Y180376D01*
X116128Y180280D01*
X116239Y180242D01*
X116356Y180225D01*
X116474Y180225D01*
X116591Y180245D01*
X116703Y180282D01*
X116807Y180336D01*
X116902Y180406D01*
X116985Y180491D01*
X117054Y180587D01*
X117107Y180692D01*
X117143Y180805D01*
X117160Y180921D01*
X117159Y181039D01*
X117140Y181156D01*
X117103Y181268D01*
X117048Y181373D01*
X116978Y181468D01*
X116894Y181551D01*
X116798Y181619D01*
X116692Y181670D01*
X116284Y181818D01*
X115863Y181922D01*
X115433Y181984D01*
X115000Y182005D01*
X114993Y182005D01*
Y182987D01*
X115000Y182986D01*
X115706Y183042D01*
X116395Y183207D01*
X117049Y183478D01*
X117653Y183848D01*
X118192Y184308D01*
X118613Y184802D01*
Y179651D01*
X118540Y179663D01*
X118421Y179664D01*
X118304Y179646D01*
X118191Y179610D01*
X118085Y179557D01*
X117988Y179488D01*
X117904Y179405D01*
X117833Y179309D01*
X117779Y179204D01*
X117741Y179092D01*
X117722Y178975D01*
X117721Y178856D01*
X117739Y178739D01*
X117777Y178626D01*
X117876Y178355D01*
X117944Y178075D01*
X117986Y177789D01*
X118000Y177500D01*
X117986Y177211D01*
X117944Y176925D01*
X117876Y176645D01*
X117780Y176372D01*
X117742Y176261D01*
X117725Y176144D01*
X117725Y176026D01*
X117745Y175909D01*
X117782Y175797D01*
X117836Y175693D01*
X117906Y175598D01*
X117991Y175515D01*
X118087Y175446D01*
X118192Y175393D01*
X118305Y175357D01*
X118421Y175340D01*
X118539Y175341D01*
X118613Y175353D01*
Y170198D01*
G37*
G36*
Y160198D02*X118192Y160692D01*
X117653Y161152D01*
X117049Y161522D01*
X116395Y161793D01*
X115706Y161958D01*
X115000Y162014D01*
X114993Y162013D01*
Y162987D01*
X115000Y162986D01*
X115706Y163042D01*
X116395Y163207D01*
X117049Y163478D01*
X117653Y163848D01*
X118192Y164308D01*
X118613Y164802D01*
Y160198D01*
G37*
G36*
Y150198D02*X118192Y150692D01*
X117653Y151152D01*
X117049Y151522D01*
X116395Y151793D01*
X115706Y151958D01*
X115000Y152014D01*
X114993Y152013D01*
Y152987D01*
X115000Y152986D01*
X115706Y153042D01*
X116395Y153207D01*
X117049Y153478D01*
X117653Y153848D01*
X118192Y154308D01*
X118613Y154802D01*
Y150198D01*
G37*
G36*
Y130198D02*X118192Y130692D01*
X117653Y131152D01*
X117049Y131522D01*
X116395Y131793D01*
X115706Y131958D01*
X115000Y132014D01*
X114993Y132013D01*
Y132995D01*
X115000Y132995D01*
X115433Y133016D01*
X115863Y133078D01*
X116284Y133182D01*
X116694Y133325D01*
X116800Y133378D01*
X116896Y133447D01*
X116981Y133530D01*
X117051Y133625D01*
X117106Y133731D01*
X117143Y133843D01*
X117163Y133960D01*
X117164Y134079D01*
X117146Y134196D01*
X117110Y134309D01*
X117057Y134415D01*
X116988Y134512D01*
X116905Y134596D01*
X116809Y134667D01*
X116704Y134721D01*
X116592Y134759D01*
X116475Y134778D01*
X116356Y134779D01*
X116239Y134761D01*
X116126Y134723D01*
X115855Y134624D01*
X115575Y134556D01*
X115289Y134514D01*
X115000Y134500D01*
X114993Y134500D01*
Y140500D01*
X115000Y140500D01*
X115289Y140486D01*
X115575Y140444D01*
X115855Y140376D01*
X116128Y140280D01*
X116239Y140242D01*
X116356Y140225D01*
X116474Y140225D01*
X116591Y140245D01*
X116703Y140282D01*
X116807Y140336D01*
X116902Y140406D01*
X116985Y140491D01*
X117054Y140587D01*
X117107Y140692D01*
X117143Y140805D01*
X117160Y140921D01*
X117159Y141039D01*
X117140Y141156D01*
X117103Y141268D01*
X117048Y141373D01*
X116978Y141468D01*
X116894Y141551D01*
X116798Y141619D01*
X116692Y141670D01*
X116284Y141818D01*
X115863Y141922D01*
X115433Y141984D01*
X115000Y142005D01*
X114993Y142005D01*
Y142987D01*
X115000Y142986D01*
X115706Y143042D01*
X116395Y143207D01*
X117049Y143478D01*
X117653Y143848D01*
X118192Y144308D01*
X118613Y144802D01*
Y139651D01*
X118540Y139663D01*
X118421Y139664D01*
X118304Y139646D01*
X118191Y139610D01*
X118085Y139557D01*
X117988Y139488D01*
X117904Y139405D01*
X117833Y139309D01*
X117779Y139204D01*
X117741Y139092D01*
X117722Y138975D01*
X117721Y138856D01*
X117739Y138739D01*
X117777Y138626D01*
X117876Y138355D01*
X117944Y138075D01*
X117986Y137789D01*
X118000Y137500D01*
X117986Y137211D01*
X117944Y136925D01*
X117876Y136645D01*
X117780Y136372D01*
X117742Y136261D01*
X117725Y136144D01*
X117725Y136026D01*
X117745Y135909D01*
X117782Y135797D01*
X117836Y135693D01*
X117906Y135598D01*
X117991Y135515D01*
X118087Y135446D01*
X118192Y135393D01*
X118305Y135357D01*
X118421Y135340D01*
X118539Y135341D01*
X118613Y135353D01*
Y130198D01*
G37*
G36*
Y39500D02*X114993D01*
Y122987D01*
X115000Y122986D01*
X115706Y123042D01*
X116395Y123207D01*
X117049Y123478D01*
X117653Y123848D01*
X118192Y124308D01*
X118613Y124802D01*
Y39500D01*
G37*
G36*
X114993Y217500D02*X118613D01*
Y190198D01*
X118192Y190692D01*
X117653Y191152D01*
X117049Y191522D01*
X116395Y191793D01*
X115706Y191958D01*
X115000Y192014D01*
X114993Y192013D01*
Y217500D01*
G37*
G36*
X111387Y124802D02*X111808Y124308D01*
X112347Y123848D01*
X112951Y123478D01*
X113605Y123207D01*
X114294Y123042D01*
X114993Y122987D01*
Y39500D01*
X111387D01*
Y124802D01*
G37*
G36*
Y144802D02*X111808Y144308D01*
X112347Y143848D01*
X112951Y143478D01*
X113605Y143207D01*
X114294Y143042D01*
X114993Y142987D01*
Y142005D01*
X114567Y141984D01*
X114137Y141922D01*
X113716Y141818D01*
X113306Y141675D01*
X113200Y141622D01*
X113104Y141553D01*
X113019Y141470D01*
X112949Y141375D01*
X112894Y141269D01*
X112857Y141157D01*
X112837Y141040D01*
X112836Y140921D01*
X112854Y140804D01*
X112890Y140691D01*
X112943Y140585D01*
X113012Y140488D01*
X113095Y140404D01*
X113191Y140333D01*
X113296Y140279D01*
X113408Y140241D01*
X113525Y140222D01*
X113644Y140221D01*
X113761Y140239D01*
X113874Y140277D01*
X114145Y140376D01*
X114425Y140444D01*
X114711Y140486D01*
X114993Y140500D01*
Y134500D01*
X114711Y134514D01*
X114425Y134556D01*
X114145Y134624D01*
X113872Y134720D01*
X113761Y134758D01*
X113644Y134775D01*
X113526Y134775D01*
X113409Y134755D01*
X113297Y134718D01*
X113193Y134664D01*
X113098Y134594D01*
X113015Y134509D01*
X112946Y134413D01*
X112893Y134308D01*
X112857Y134195D01*
X112840Y134079D01*
X112841Y133961D01*
X112860Y133844D01*
X112897Y133732D01*
X112952Y133627D01*
X113022Y133532D01*
X113106Y133449D01*
X113202Y133381D01*
X113308Y133330D01*
X113716Y133182D01*
X114137Y133078D01*
X114567Y133016D01*
X114993Y132995D01*
Y132013D01*
X114294Y131958D01*
X113605Y131793D01*
X112951Y131522D01*
X112347Y131152D01*
X111808Y130692D01*
X111387Y130198D01*
Y135349D01*
X111460Y135337D01*
X111579Y135336D01*
X111696Y135354D01*
X111809Y135390D01*
X111915Y135443D01*
X112012Y135512D01*
X112096Y135595D01*
X112167Y135691D01*
X112221Y135796D01*
X112259Y135908D01*
X112278Y136025D01*
X112279Y136144D01*
X112261Y136261D01*
X112223Y136374D01*
X112124Y136645D01*
X112056Y136925D01*
X112014Y137211D01*
X112000Y137500D01*
X112014Y137789D01*
X112056Y138075D01*
X112124Y138355D01*
X112220Y138628D01*
X112258Y138739D01*
X112275Y138856D01*
X112275Y138974D01*
X112255Y139091D01*
X112218Y139203D01*
X112164Y139307D01*
X112094Y139402D01*
X112009Y139485D01*
X111913Y139554D01*
X111808Y139607D01*
X111695Y139643D01*
X111579Y139660D01*
X111461Y139659D01*
X111387Y139647D01*
Y144802D01*
G37*
G36*
Y154802D02*X111808Y154308D01*
X112347Y153848D01*
X112951Y153478D01*
X113605Y153207D01*
X114294Y153042D01*
X114993Y152987D01*
Y152013D01*
X114294Y151958D01*
X113605Y151793D01*
X112951Y151522D01*
X112347Y151152D01*
X111808Y150692D01*
X111387Y150198D01*
Y154802D01*
G37*
G36*
Y164802D02*X111808Y164308D01*
X112347Y163848D01*
X112951Y163478D01*
X113605Y163207D01*
X114294Y163042D01*
X114993Y162987D01*
Y162013D01*
X114294Y161958D01*
X113605Y161793D01*
X112951Y161522D01*
X112347Y161152D01*
X111808Y160692D01*
X111387Y160198D01*
Y164802D01*
G37*
G36*
Y184802D02*X111808Y184308D01*
X112347Y183848D01*
X112951Y183478D01*
X113605Y183207D01*
X114294Y183042D01*
X114993Y182987D01*
Y182005D01*
X114567Y181984D01*
X114137Y181922D01*
X113716Y181818D01*
X113306Y181675D01*
X113200Y181622D01*
X113104Y181553D01*
X113019Y181470D01*
X112949Y181375D01*
X112894Y181269D01*
X112857Y181157D01*
X112837Y181040D01*
X112836Y180921D01*
X112854Y180804D01*
X112890Y180691D01*
X112943Y180585D01*
X113012Y180488D01*
X113095Y180404D01*
X113191Y180333D01*
X113296Y180279D01*
X113408Y180241D01*
X113525Y180222D01*
X113644Y180221D01*
X113761Y180239D01*
X113874Y180277D01*
X114145Y180376D01*
X114425Y180444D01*
X114711Y180486D01*
X114993Y180500D01*
Y174500D01*
X114711Y174514D01*
X114425Y174556D01*
X114145Y174624D01*
X113872Y174720D01*
X113761Y174758D01*
X113644Y174775D01*
X113526Y174775D01*
X113409Y174755D01*
X113297Y174718D01*
X113193Y174664D01*
X113098Y174594D01*
X113015Y174509D01*
X112946Y174413D01*
X112893Y174308D01*
X112857Y174195D01*
X112840Y174079D01*
X112841Y173961D01*
X112860Y173844D01*
X112897Y173732D01*
X112952Y173627D01*
X113022Y173532D01*
X113106Y173449D01*
X113202Y173381D01*
X113308Y173330D01*
X113716Y173182D01*
X114137Y173078D01*
X114567Y173016D01*
X114993Y172995D01*
Y172013D01*
X114294Y171958D01*
X113605Y171793D01*
X112951Y171522D01*
X112347Y171152D01*
X111808Y170692D01*
X111387Y170198D01*
Y175349D01*
X111460Y175337D01*
X111579Y175336D01*
X111696Y175354D01*
X111809Y175390D01*
X111915Y175443D01*
X112012Y175512D01*
X112096Y175595D01*
X112167Y175691D01*
X112221Y175796D01*
X112259Y175908D01*
X112278Y176025D01*
X112279Y176144D01*
X112261Y176261D01*
X112223Y176374D01*
X112124Y176645D01*
X112056Y176925D01*
X112014Y177211D01*
X112000Y177500D01*
X112014Y177789D01*
X112056Y178075D01*
X112124Y178355D01*
X112220Y178628D01*
X112258Y178739D01*
X112275Y178856D01*
X112275Y178974D01*
X112255Y179091D01*
X112218Y179203D01*
X112164Y179307D01*
X112094Y179402D01*
X112009Y179485D01*
X111913Y179554D01*
X111808Y179607D01*
X111695Y179643D01*
X111579Y179660D01*
X111461Y179659D01*
X111387Y179647D01*
Y184802D01*
G37*
G36*
Y217500D02*X114993D01*
Y192013D01*
X114294Y191958D01*
X113605Y191793D01*
X112951Y191522D01*
X112347Y191152D01*
X111808Y190692D01*
X111387Y190198D01*
Y217500D01*
G37*
G36*
X86746D02*X111387D01*
Y190198D01*
X111348Y190153D01*
X110978Y189549D01*
X110707Y188895D01*
X110542Y188206D01*
X110486Y187500D01*
X110542Y186794D01*
X110707Y186105D01*
X110978Y185451D01*
X111348Y184847D01*
X111387Y184802D01*
Y179647D01*
X111344Y179640D01*
X111232Y179603D01*
X111127Y179548D01*
X111032Y179478D01*
X110949Y179394D01*
X110881Y179298D01*
X110830Y179192D01*
X110682Y178784D01*
X110578Y178363D01*
X110516Y177933D01*
X110495Y177500D01*
X110516Y177067D01*
X110578Y176637D01*
X110682Y176216D01*
X110825Y175806D01*
X110878Y175700D01*
X110947Y175604D01*
X111030Y175519D01*
X111125Y175449D01*
X111231Y175394D01*
X111343Y175357D01*
X111387Y175349D01*
Y170198D01*
X111348Y170153D01*
X110978Y169549D01*
X110707Y168895D01*
X110542Y168206D01*
X110486Y167500D01*
X110542Y166794D01*
X110707Y166105D01*
X110978Y165451D01*
X111348Y164847D01*
X111387Y164802D01*
Y160198D01*
X111348Y160153D01*
X110978Y159549D01*
X110707Y158895D01*
X110542Y158206D01*
X110486Y157500D01*
X110542Y156794D01*
X110707Y156105D01*
X110978Y155451D01*
X111348Y154847D01*
X111387Y154802D01*
Y150198D01*
X111348Y150153D01*
X110978Y149549D01*
X110707Y148895D01*
X110542Y148206D01*
X110486Y147500D01*
X110542Y146794D01*
X110707Y146105D01*
X110978Y145451D01*
X111348Y144847D01*
X111387Y144802D01*
Y139647D01*
X111344Y139640D01*
X111232Y139603D01*
X111127Y139548D01*
X111032Y139478D01*
X110949Y139394D01*
X110881Y139298D01*
X110830Y139192D01*
X110682Y138784D01*
X110578Y138363D01*
X110516Y137933D01*
X110495Y137500D01*
X110516Y137067D01*
X110578Y136637D01*
X110682Y136216D01*
X110825Y135806D01*
X110878Y135700D01*
X110947Y135604D01*
X111030Y135519D01*
X111125Y135449D01*
X111231Y135394D01*
X111343Y135357D01*
X111387Y135349D01*
Y130198D01*
X111348Y130153D01*
X110978Y129549D01*
X110707Y128895D01*
X110542Y128206D01*
X110486Y127500D01*
X110542Y126794D01*
X110707Y126105D01*
X110978Y125451D01*
X111348Y124847D01*
X111387Y124802D01*
Y39500D01*
X86746D01*
Y79437D01*
X92635D01*
X92728Y79286D01*
X93014Y78951D01*
X93349Y78665D01*
X93725Y78434D01*
X94132Y78266D01*
X94561Y78163D01*
X95000Y78128D01*
X95439Y78163D01*
X95868Y78266D01*
X96275Y78434D01*
X96651Y78665D01*
X96986Y78951D01*
X97272Y79286D01*
X97503Y79662D01*
X97671Y80069D01*
X97774Y80498D01*
X97800Y80937D01*
X97774Y81376D01*
X97671Y81805D01*
X97503Y82212D01*
X97272Y82588D01*
X96986Y82923D01*
X96651Y83209D01*
X96275Y83440D01*
X95868Y83608D01*
X95439Y83711D01*
X95000Y83746D01*
X94561Y83711D01*
X94132Y83608D01*
X93725Y83440D01*
X93349Y83209D01*
X93014Y82923D01*
X92728Y82588D01*
X92635Y82437D01*
X86746D01*
Y217500D01*
G37*
G36*
X43996D02*X86746D01*
Y82437D01*
X80865D01*
X80772Y82588D01*
X80486Y82923D01*
X80151Y83209D01*
X79775Y83440D01*
X79368Y83608D01*
X78939Y83711D01*
X78500Y83746D01*
X78061Y83711D01*
X77632Y83608D01*
X77225Y83440D01*
X76849Y83209D01*
X76514Y82923D01*
X76228Y82588D01*
X75997Y82212D01*
X75829Y81805D01*
X75726Y81376D01*
X75691Y80937D01*
X75726Y80498D01*
X75829Y80069D01*
X75997Y79662D01*
X76228Y79286D01*
X76514Y78951D01*
X76849Y78665D01*
X77225Y78434D01*
X77632Y78266D01*
X78061Y78163D01*
X78500Y78128D01*
X78939Y78163D01*
X79368Y78266D01*
X79775Y78434D01*
X80151Y78665D01*
X80486Y78951D01*
X80772Y79286D01*
X80865Y79437D01*
X86746D01*
Y39500D01*
X43996D01*
Y79437D01*
X48135D01*
X48228Y79286D01*
X48514Y78951D01*
X48849Y78665D01*
X49225Y78434D01*
X49632Y78266D01*
X50061Y78163D01*
X50500Y78128D01*
X50939Y78163D01*
X51368Y78266D01*
X51775Y78434D01*
X52151Y78665D01*
X52486Y78951D01*
X52772Y79286D01*
X53003Y79662D01*
X53171Y80069D01*
X53274Y80498D01*
X53300Y80937D01*
X53274Y81376D01*
X53171Y81805D01*
X53003Y82212D01*
X52772Y82588D01*
X52486Y82923D01*
X52151Y83209D01*
X51775Y83440D01*
X51368Y83608D01*
X50939Y83711D01*
X50500Y83746D01*
X50061Y83711D01*
X49632Y83608D01*
X49225Y83440D01*
X48849Y83209D01*
X48514Y82923D01*
X48228Y82588D01*
X48135Y82437D01*
X43996D01*
Y217500D01*
G37*
G36*
X28613D02*X43996D01*
Y82437D01*
X39865D01*
X39772Y82588D01*
X39486Y82923D01*
X39151Y83209D01*
X38775Y83440D01*
X38368Y83608D01*
X37939Y83711D01*
X37500Y83746D01*
X37061Y83711D01*
X36632Y83608D01*
X36225Y83440D01*
X35849Y83209D01*
X35514Y82923D01*
X35228Y82588D01*
X34997Y82212D01*
X34829Y81805D01*
X34726Y81376D01*
X34691Y80937D01*
X34726Y80498D01*
X34829Y80069D01*
X34997Y79662D01*
X35228Y79286D01*
X35514Y78951D01*
X35849Y78665D01*
X36225Y78434D01*
X36632Y78266D01*
X37061Y78163D01*
X37500Y78128D01*
X37939Y78163D01*
X38368Y78266D01*
X38775Y78434D01*
X39151Y78665D01*
X39486Y78951D01*
X39772Y79286D01*
X39865Y79437D01*
X43996D01*
Y39500D01*
X28613D01*
Y124802D01*
X28652Y124847D01*
X29022Y125451D01*
X29293Y126105D01*
X29458Y126794D01*
X29500Y127500D01*
X29458Y128206D01*
X29293Y128895D01*
X29022Y129549D01*
X28652Y130153D01*
X28613Y130198D01*
Y134802D01*
X28652Y134847D01*
X29022Y135451D01*
X29293Y136105D01*
X29458Y136794D01*
X29500Y137500D01*
X29458Y138206D01*
X29293Y138895D01*
X29022Y139549D01*
X28652Y140153D01*
X28613Y140198D01*
Y144802D01*
X28652Y144847D01*
X29022Y145451D01*
X29293Y146105D01*
X29458Y146794D01*
X29500Y147500D01*
X29458Y148206D01*
X29293Y148895D01*
X29022Y149549D01*
X28652Y150153D01*
X28613Y150198D01*
Y154802D01*
X28652Y154847D01*
X29022Y155451D01*
X29293Y156105D01*
X29458Y156794D01*
X29500Y157500D01*
X29458Y158206D01*
X29293Y158895D01*
X29022Y159549D01*
X28652Y160153D01*
X28613Y160198D01*
Y164802D01*
X28652Y164847D01*
X29022Y165451D01*
X29293Y166105D01*
X29458Y166794D01*
X29500Y167500D01*
X29458Y168206D01*
X29293Y168895D01*
X29022Y169549D01*
X28652Y170153D01*
X28613Y170198D01*
Y175353D01*
X28656Y175360D01*
X28768Y175397D01*
X28873Y175452D01*
X28968Y175522D01*
X29051Y175606D01*
X29119Y175702D01*
X29170Y175808D01*
X29318Y176216D01*
X29422Y176637D01*
X29484Y177067D01*
X29505Y177500D01*
X29484Y177933D01*
X29422Y178363D01*
X29318Y178784D01*
X29175Y179194D01*
X29122Y179300D01*
X29053Y179396D01*
X28970Y179481D01*
X28875Y179551D01*
X28769Y179606D01*
X28657Y179643D01*
X28613Y179651D01*
Y183130D01*
X28683Y183159D01*
X28884Y183283D01*
X29064Y183436D01*
X29217Y183616D01*
X29341Y183817D01*
X29431Y184035D01*
X29486Y184265D01*
X29500Y184500D01*
X29486Y190735D01*
X29431Y190965D01*
X29341Y191183D01*
X29217Y191384D01*
X29064Y191564D01*
X28884Y191717D01*
X28683Y191841D01*
X28613Y191870D01*
Y217500D01*
G37*
G36*
Y170198D02*X28192Y170692D01*
X27653Y171152D01*
X27049Y171522D01*
X26395Y171793D01*
X25706Y171958D01*
X25000Y172014D01*
X24993Y172013D01*
Y172995D01*
X25000Y172995D01*
X25433Y173016D01*
X25863Y173078D01*
X26284Y173182D01*
X26694Y173325D01*
X26800Y173378D01*
X26896Y173447D01*
X26981Y173530D01*
X27051Y173625D01*
X27106Y173731D01*
X27143Y173843D01*
X27163Y173960D01*
X27164Y174079D01*
X27146Y174196D01*
X27110Y174309D01*
X27057Y174415D01*
X26988Y174512D01*
X26905Y174596D01*
X26809Y174667D01*
X26704Y174721D01*
X26592Y174759D01*
X26475Y174778D01*
X26356Y174779D01*
X26239Y174761D01*
X26126Y174723D01*
X25855Y174624D01*
X25575Y174556D01*
X25289Y174514D01*
X25000Y174500D01*
X24993Y174500D01*
Y180500D01*
X25000Y180500D01*
X25289Y180486D01*
X25575Y180444D01*
X25855Y180376D01*
X26128Y180280D01*
X26239Y180242D01*
X26356Y180225D01*
X26474Y180225D01*
X26591Y180245D01*
X26703Y180282D01*
X26807Y180336D01*
X26902Y180406D01*
X26985Y180491D01*
X27054Y180587D01*
X27107Y180692D01*
X27143Y180805D01*
X27160Y180921D01*
X27159Y181039D01*
X27140Y181156D01*
X27103Y181268D01*
X27048Y181373D01*
X26978Y181468D01*
X26894Y181551D01*
X26798Y181619D01*
X26692Y181670D01*
X26284Y181818D01*
X25863Y181922D01*
X25433Y181984D01*
X25000Y182005D01*
X24993Y182005D01*
Y183007D01*
X28235Y183014D01*
X28465Y183069D01*
X28613Y183130D01*
Y179651D01*
X28540Y179663D01*
X28421Y179664D01*
X28304Y179646D01*
X28191Y179610D01*
X28085Y179557D01*
X27988Y179488D01*
X27904Y179405D01*
X27833Y179309D01*
X27779Y179204D01*
X27741Y179092D01*
X27722Y178975D01*
X27721Y178856D01*
X27739Y178739D01*
X27777Y178626D01*
X27876Y178355D01*
X27944Y178075D01*
X27986Y177789D01*
X28000Y177500D01*
X27986Y177211D01*
X27944Y176925D01*
X27876Y176645D01*
X27780Y176372D01*
X27742Y176261D01*
X27725Y176144D01*
X27725Y176026D01*
X27745Y175909D01*
X27782Y175797D01*
X27836Y175693D01*
X27906Y175598D01*
X27991Y175515D01*
X28087Y175446D01*
X28192Y175393D01*
X28305Y175357D01*
X28421Y175340D01*
X28539Y175341D01*
X28613Y175353D01*
Y170198D01*
G37*
G36*
Y160198D02*X28192Y160692D01*
X27653Y161152D01*
X27049Y161522D01*
X26395Y161793D01*
X25706Y161958D01*
X25000Y162014D01*
X24993Y162013D01*
Y162987D01*
X25000Y162986D01*
X25706Y163042D01*
X26395Y163207D01*
X27049Y163478D01*
X27653Y163848D01*
X28192Y164308D01*
X28613Y164802D01*
Y160198D01*
G37*
G36*
Y150198D02*X28192Y150692D01*
X27653Y151152D01*
X27049Y151522D01*
X26395Y151793D01*
X25706Y151958D01*
X25000Y152014D01*
X24993Y152013D01*
Y152987D01*
X25000Y152986D01*
X25706Y153042D01*
X26395Y153207D01*
X27049Y153478D01*
X27653Y153848D01*
X28192Y154308D01*
X28613Y154802D01*
Y150198D01*
G37*
G36*
Y140198D02*X28192Y140692D01*
X27653Y141152D01*
X27049Y141522D01*
X26395Y141793D01*
X25706Y141958D01*
X25000Y142014D01*
X24993Y142013D01*
Y142987D01*
X25000Y142986D01*
X25706Y143042D01*
X26395Y143207D01*
X27049Y143478D01*
X27653Y143848D01*
X28192Y144308D01*
X28613Y144802D01*
Y140198D01*
G37*
G36*
Y130198D02*X28192Y130692D01*
X27653Y131152D01*
X27049Y131522D01*
X26395Y131793D01*
X25706Y131958D01*
X25000Y132014D01*
X24993Y132013D01*
Y132987D01*
X25000Y132986D01*
X25706Y133042D01*
X26395Y133207D01*
X27049Y133478D01*
X27653Y133848D01*
X28192Y134308D01*
X28613Y134802D01*
Y130198D01*
G37*
G36*
Y39500D02*X24993D01*
Y122987D01*
X25000Y122986D01*
X25706Y123042D01*
X26395Y123207D01*
X27049Y123478D01*
X27653Y123848D01*
X28192Y124308D01*
X28613Y124802D01*
Y39500D01*
G37*
G36*
X24993Y217500D02*X28613D01*
Y191870D01*
X28465Y191931D01*
X28235Y191986D01*
X28000Y192000D01*
X24993Y191993D01*
Y217500D01*
G37*
G36*
X21387Y124802D02*X21808Y124308D01*
X22347Y123848D01*
X22951Y123478D01*
X23605Y123207D01*
X24294Y123042D01*
X24993Y122987D01*
Y39500D01*
X21387D01*
Y124802D01*
G37*
G36*
Y134802D02*X21808Y134308D01*
X22347Y133848D01*
X22951Y133478D01*
X23605Y133207D01*
X24294Y133042D01*
X24993Y132987D01*
Y132013D01*
X24294Y131958D01*
X23605Y131793D01*
X22951Y131522D01*
X22347Y131152D01*
X21808Y130692D01*
X21387Y130198D01*
Y134802D01*
G37*
G36*
Y144802D02*X21808Y144308D01*
X22347Y143848D01*
X22951Y143478D01*
X23605Y143207D01*
X24294Y143042D01*
X24993Y142987D01*
Y142013D01*
X24294Y141958D01*
X23605Y141793D01*
X22951Y141522D01*
X22347Y141152D01*
X21808Y140692D01*
X21387Y140198D01*
Y144802D01*
G37*
G36*
Y154802D02*X21808Y154308D01*
X22347Y153848D01*
X22951Y153478D01*
X23605Y153207D01*
X24294Y153042D01*
X24993Y152987D01*
Y152013D01*
X24294Y151958D01*
X23605Y151793D01*
X22951Y151522D01*
X22347Y151152D01*
X21808Y150692D01*
X21387Y150198D01*
Y154802D01*
G37*
G36*
Y164802D02*X21808Y164308D01*
X22347Y163848D01*
X22951Y163478D01*
X23605Y163207D01*
X24294Y163042D01*
X24993Y162987D01*
Y162013D01*
X24294Y161958D01*
X23605Y161793D01*
X22951Y161522D01*
X22347Y161152D01*
X21808Y160692D01*
X21387Y160198D01*
Y164802D01*
G37*
G36*
Y183130D02*X21535Y183069D01*
X21765Y183014D01*
X22000Y183000D01*
X24993Y183007D01*
Y182005D01*
X24567Y181984D01*
X24137Y181922D01*
X23716Y181818D01*
X23306Y181675D01*
X23200Y181622D01*
X23104Y181553D01*
X23019Y181470D01*
X22949Y181375D01*
X22894Y181269D01*
X22857Y181157D01*
X22837Y181040D01*
X22836Y180921D01*
X22854Y180804D01*
X22890Y180691D01*
X22943Y180585D01*
X23012Y180488D01*
X23095Y180404D01*
X23191Y180333D01*
X23296Y180279D01*
X23408Y180241D01*
X23525Y180222D01*
X23644Y180221D01*
X23761Y180239D01*
X23874Y180277D01*
X24145Y180376D01*
X24425Y180444D01*
X24711Y180486D01*
X24993Y180500D01*
Y174500D01*
X24711Y174514D01*
X24425Y174556D01*
X24145Y174624D01*
X23872Y174720D01*
X23761Y174758D01*
X23644Y174775D01*
X23526Y174775D01*
X23409Y174755D01*
X23297Y174718D01*
X23193Y174664D01*
X23098Y174594D01*
X23015Y174509D01*
X22946Y174413D01*
X22893Y174308D01*
X22857Y174195D01*
X22840Y174079D01*
X22841Y173961D01*
X22860Y173844D01*
X22897Y173732D01*
X22952Y173627D01*
X23022Y173532D01*
X23106Y173449D01*
X23202Y173381D01*
X23308Y173330D01*
X23716Y173182D01*
X24137Y173078D01*
X24567Y173016D01*
X24993Y172995D01*
Y172013D01*
X24294Y171958D01*
X23605Y171793D01*
X22951Y171522D01*
X22347Y171152D01*
X21808Y170692D01*
X21387Y170198D01*
Y175349D01*
X21460Y175337D01*
X21579Y175336D01*
X21696Y175354D01*
X21809Y175390D01*
X21915Y175443D01*
X22012Y175512D01*
X22096Y175595D01*
X22167Y175691D01*
X22221Y175796D01*
X22259Y175908D01*
X22278Y176025D01*
X22279Y176144D01*
X22261Y176261D01*
X22223Y176374D01*
X22124Y176645D01*
X22056Y176925D01*
X22014Y177211D01*
X22000Y177500D01*
X22014Y177789D01*
X22056Y178075D01*
X22124Y178355D01*
X22220Y178628D01*
X22258Y178739D01*
X22275Y178856D01*
X22275Y178974D01*
X22255Y179091D01*
X22218Y179203D01*
X22164Y179307D01*
X22094Y179402D01*
X22009Y179485D01*
X21913Y179554D01*
X21808Y179607D01*
X21695Y179643D01*
X21579Y179660D01*
X21461Y179659D01*
X21387Y179647D01*
Y183130D01*
G37*
G36*
Y217500D02*X24993D01*
Y191993D01*
X21765Y191986D01*
X21535Y191931D01*
X21387Y191870D01*
Y217500D01*
G37*
G36*
X17500D02*X21387D01*
Y191870D01*
X21317Y191841D01*
X21116Y191717D01*
X20936Y191564D01*
X20783Y191384D01*
X20659Y191183D01*
X20569Y190965D01*
X20514Y190735D01*
X20500Y190500D01*
X20514Y184265D01*
X20569Y184035D01*
X20659Y183817D01*
X20783Y183616D01*
X20936Y183436D01*
X21116Y183283D01*
X21317Y183159D01*
X21387Y183130D01*
Y179647D01*
X21344Y179640D01*
X21232Y179603D01*
X21127Y179548D01*
X21032Y179478D01*
X20949Y179394D01*
X20881Y179298D01*
X20830Y179192D01*
X20682Y178784D01*
X20578Y178363D01*
X20516Y177933D01*
X20495Y177500D01*
X20516Y177067D01*
X20578Y176637D01*
X20682Y176216D01*
X20825Y175806D01*
X20878Y175700D01*
X20947Y175604D01*
X21030Y175519D01*
X21125Y175449D01*
X21231Y175394D01*
X21343Y175357D01*
X21387Y175349D01*
Y170198D01*
X21348Y170153D01*
X20978Y169549D01*
X20707Y168895D01*
X20542Y168206D01*
X20486Y167500D01*
X20542Y166794D01*
X20707Y166105D01*
X20978Y165451D01*
X21348Y164847D01*
X21387Y164802D01*
Y160198D01*
X21348Y160153D01*
X20978Y159549D01*
X20707Y158895D01*
X20542Y158206D01*
X20486Y157500D01*
X20542Y156794D01*
X20707Y156105D01*
X20978Y155451D01*
X21348Y154847D01*
X21387Y154802D01*
Y150198D01*
X21348Y150153D01*
X20978Y149549D01*
X20707Y148895D01*
X20542Y148206D01*
X20486Y147500D01*
X20542Y146794D01*
X20707Y146105D01*
X20978Y145451D01*
X21348Y144847D01*
X21387Y144802D01*
Y140198D01*
X21348Y140153D01*
X20978Y139549D01*
X20707Y138895D01*
X20542Y138206D01*
X20486Y137500D01*
X20542Y136794D01*
X20707Y136105D01*
X20978Y135451D01*
X21348Y134847D01*
X21387Y134802D01*
Y130198D01*
X21348Y130153D01*
X20978Y129549D01*
X20707Y128895D01*
X20542Y128206D01*
X20486Y127500D01*
X20542Y126794D01*
X20707Y126105D01*
X20978Y125451D01*
X21348Y124847D01*
X21387Y124802D01*
Y39500D01*
X17500D01*
Y217500D01*
G37*
G54D19*X95000Y80937D02*X78500D01*
X37500D02*X50500D01*
G54D20*X25000Y157500D03*
Y147500D03*
Y137500D03*
Y127500D03*
G54D18*G36*
X22000Y190500D02*Y184500D01*
X28000D01*
Y190500D01*
X22000D01*
G37*
G54D20*X25000Y177500D03*
Y167500D03*
X115000Y187500D03*
Y177500D03*
Y167500D03*
Y157500D03*
Y147500D03*
Y137500D03*
Y127500D03*
G54D21*X99500Y112500D03*
Y118500D03*
Y106500D03*
X70000Y44000D03*
X95000Y80937D03*
X78500D03*
X37500D03*
X50500D03*
G54D22*G54D23*M02*
