G04 start of page 6 for group -4063 idx -4063 *
G04 Title: (unknown), componentmask *
G04 Creator: pcb 4.0.2 *
G04 CreationDate: Sat May 14 18:14:40 2022 UTC *
G04 For: railfan *
G04 Format: Gerber/RS-274X *
G04 PCB-Dimensions (mil): 1400.00 2300.00 *
G04 PCB-Coordinate-Origin: lower left *
%MOIN*%
%FSLAX25Y25*%
%LNTOPMASK*%
%ADD28C,0.0001*%
%ADD27C,0.0660*%
G54D27*X25000Y157500D03*
Y147500D03*
Y137500D03*
Y127500D03*
G54D28*G36*
X21700Y190800D02*Y184200D01*
X28300D01*
Y190800D01*
X21700D01*
G37*
G54D27*X25000Y177500D03*
Y167500D03*
X115000Y187500D03*
Y177500D03*
Y167500D03*
Y157500D03*
Y147500D03*
Y137500D03*
Y127500D03*
G54D28*G36*
X113991Y43619D02*Y39515D01*
X123607D01*
Y43619D01*
X113991D01*
G37*
G36*
Y59367D02*Y55263D01*
X123607D01*
Y59367D01*
X113991D01*
G37*
G36*
X74748Y62945D02*Y57227D01*
X81252D01*
Y62945D01*
X74748D01*
G37*
G36*
Y55859D02*Y50141D01*
X81252D01*
Y55859D01*
X74748D01*
G37*
G36*
X58748Y62902D02*Y57184D01*
X65252D01*
Y62902D01*
X58748D01*
G37*
G36*
Y55816D02*Y50098D01*
X65252D01*
Y55816D01*
X58748D01*
G37*
G36*
X113991Y75115D02*Y71011D01*
X123607D01*
Y75115D01*
X113991D01*
G37*
G36*
X103007Y82989D02*Y78885D01*
X112623D01*
Y82989D01*
X103007D01*
G37*
G36*
Y67241D02*Y63137D01*
X112623D01*
Y67241D01*
X103007D01*
G37*
G36*
Y51493D02*Y47389D01*
X112623D01*
Y51493D01*
X103007D01*
G37*
G36*
X111273Y25252D02*X105555D01*
Y18748D01*
X111273D01*
Y25252D01*
G37*
G36*
X118359D02*X112641D01*
Y18748D01*
X118359D01*
Y25252D01*
G37*
G36*
X82705Y193096D02*Y188716D01*
X91179D01*
Y193096D01*
X82705D01*
G37*
G36*
X96748Y188902D02*Y183184D01*
X103252D01*
Y188902D01*
X96748D01*
G37*
G36*
X82705Y181284D02*Y176904D01*
X91179D01*
Y181284D01*
X82705D01*
G37*
G36*
X74989Y187190D02*Y182810D01*
X91179D01*
Y187190D01*
X74989D01*
G37*
G36*
X68530Y190025D02*Y179975D01*
X80470D01*
Y190025D01*
X68530D01*
G37*
G36*
X83434Y183115D02*X81590Y184959D01*
X78326Y181695D01*
X80170Y179851D01*
X83434Y183115D01*
G37*
G36*
X80170Y190149D02*X78326Y188305D01*
X81590Y185041D01*
X83434Y186885D01*
X80170Y190149D01*
G37*
G36*
X96748Y181816D02*Y176098D01*
X103252D01*
Y181816D01*
X96748D01*
G37*
G36*
X27377Y43619D02*Y39515D01*
X36993D01*
Y43619D01*
X27377D01*
G37*
G36*
Y59367D02*Y55263D01*
X36993D01*
Y59367D01*
X27377D01*
G37*
G36*
Y75115D02*Y71011D01*
X36993D01*
Y75115D01*
X27377D01*
G37*
G36*
Y90863D02*Y86759D01*
X36993D01*
Y90863D01*
X27377D01*
G37*
G36*
Y106611D02*Y102507D01*
X36993D01*
Y106611D01*
X27377D01*
G37*
G36*
X16393Y114485D02*Y110381D01*
X26009D01*
Y114485D01*
X16393D01*
G37*
G36*
Y98737D02*Y94633D01*
X26009D01*
Y98737D01*
X16393D01*
G37*
G36*
Y82989D02*Y78885D01*
X26009D01*
Y82989D01*
X16393D01*
G37*
G36*
Y67241D02*Y63137D01*
X26009D01*
Y67241D01*
X16393D01*
G37*
G36*
Y51493D02*Y47389D01*
X26009D01*
Y51493D01*
X16393D01*
G37*
G36*
X34359Y25252D02*X28641D01*
Y18748D01*
X34359D01*
Y25252D01*
G37*
G36*
X27273D02*X21555D01*
Y18748D01*
X27273D01*
Y25252D01*
G37*
G36*
X113991Y90863D02*Y86759D01*
X123607D01*
Y90863D01*
X113991D01*
G37*
G36*
Y106611D02*Y102507D01*
X123607D01*
Y106611D01*
X113991D01*
G37*
G36*
X103007Y98737D02*Y94633D01*
X112623D01*
Y98737D01*
X103007D01*
G37*
G36*
Y114485D02*Y110381D01*
X112623D01*
Y114485D01*
X103007D01*
G37*
G36*
X89316Y110252D02*X83598D01*
Y103748D01*
X89316D01*
Y110252D01*
G37*
G36*
X96402D02*X90684D01*
Y103748D01*
X96402D01*
Y110252D01*
G37*
G36*
X89316Y121252D02*X83598D01*
Y114748D01*
X89316D01*
Y121252D01*
G37*
G36*
X96402D02*X90684D01*
Y114748D01*
X96402D01*
Y121252D01*
G37*
M02*
