G04 start of page 8 for group -4079 idx -4079 *
G04 Title: (unknown), topsilk *
G04 Creator: pcb 4.0.2 *
G04 CreationDate: Sat May 14 18:14:40 2022 UTC *
G04 For: railfan *
G04 Format: Gerber/RS-274X *
G04 PCB-Dimensions (mil): 1400.00 2300.00 *
G04 PCB-Coordinate-Origin: lower left *
%MOIN*%
%FSLAX25Y25*%
%LNTOPSILK*%
%ADD32C,0.0080*%
%ADD31C,0.0100*%
G54D31*X121000Y23500D02*Y20500D01*
X119500Y22000D02*X122500D01*
X19000Y23500D02*Y20500D01*
X17500Y22000D02*X20500D01*
G54D32*Y16000D02*Y13000D01*
Y16000D02*X21200Y17000D01*
X22300D01*
X23000Y16000D01*
Y13000D01*
X20500Y15000D02*X23000D01*
X26200Y17000D02*X26700Y16500D01*
X24700Y17000D02*X26200D01*
X24200Y16500D02*X24700Y17000D01*
X24200Y16500D02*Y15500D01*
X24700Y15000D01*
X26200D01*
X26700Y14500D01*
Y13500D01*
X26200Y13000D02*X26700Y13500D01*
X24700Y13000D02*X26200D01*
X24200Y13500D02*X24700Y13000D01*
X29900Y17000D02*X30400Y16500D01*
X28400Y17000D02*X29900D01*
X27900Y16500D02*X28400Y17000D01*
X27900Y16500D02*Y15500D01*
X28400Y15000D01*
X29900D01*
X30400Y14500D01*
Y13500D01*
X29900Y13000D02*X30400Y13500D01*
X28400Y13000D02*X29900D01*
X27900Y13500D02*X28400Y13000D01*
X31600Y16500D02*Y13500D01*
Y16500D02*X32100Y17000D01*
X33100D01*
X33600Y16500D01*
Y13500D01*
X33100Y13000D02*X33600Y13500D01*
X32100Y13000D02*X33100D01*
X31600Y13500D02*X32100Y13000D01*
X35500D02*X36800D01*
X34800Y13700D02*X35500Y13000D01*
X34800Y16300D02*Y13700D01*
Y16300D02*X35500Y17000D01*
X36800D01*
X105543D02*X107543D01*
X108043Y16500D01*
Y15500D01*
X107543Y15000D02*X108043Y15500D01*
X106043Y15000D02*X107543D01*
X106043Y17000D02*Y13000D01*
X106843Y15000D02*X108043Y13000D01*
X111243Y17000D02*X111743Y16500D01*
X109743Y17000D02*X111243D01*
X109243Y16500D02*X109743Y17000D01*
X109243Y16500D02*Y15500D01*
X109743Y15000D01*
X111243D01*
X111743Y14500D01*
Y13500D01*
X111243Y13000D02*X111743Y13500D01*
X109743Y13000D02*X111243D01*
X109243Y13500D02*X109743Y13000D01*
X114943Y17000D02*X115443Y16500D01*
X113443Y17000D02*X114943D01*
X112943Y16500D02*X113443Y17000D01*
X112943Y16500D02*Y15500D01*
X113443Y15000D01*
X114943D01*
X115443Y14500D01*
Y13500D01*
X114943Y13000D02*X115443Y13500D01*
X113443Y13000D02*X114943D01*
X112943Y13500D02*X113443Y13000D01*
X116643Y17000D02*X117643D01*
X117143D02*Y13000D01*
X116643D02*X117643D01*
X33700Y207000D02*X35000D01*
X33000Y207700D02*X33700Y207000D01*
X33000Y210300D02*Y207700D01*
Y210300D02*X33700Y211000D01*
X35000D01*
X36200D02*Y207000D01*
Y209000D02*X38200Y211000D01*
X36200Y209000D02*X38200Y207000D01*
X39400Y211000D02*X41400D01*
X40400D02*Y207000D01*
X42600Y209000D02*X44600D01*
X45800Y207000D02*X48300Y211000D01*
X45800D02*X48300Y207000D01*
X49500D02*X51500D01*
X52000Y207500D01*
Y208700D02*Y207500D01*
X51500Y209200D02*X52000Y208700D01*
X50000Y209200D02*X51500D01*
X50000Y211000D02*Y207000D01*
X49500Y211000D02*X51500D01*
X52000Y210500D01*
Y209700D01*
X51500Y209200D02*X52000Y209700D01*
X53200Y209200D02*X54700D01*
X53200Y207000D02*X55200D01*
X53200Y211000D02*Y207000D01*
Y211000D02*X55200D01*
X56400Y209200D02*X57900D01*
X56400Y207000D02*X58400D01*
X56400Y211000D02*Y207000D01*
Y211000D02*X58400D01*
X59600D02*X60600D01*
X60100D02*Y207000D01*
X59600D02*X60600D01*
X61800Y210500D02*Y207500D01*
Y210500D02*X62300Y211000D01*
X63300D01*
X63800Y210500D01*
Y207500D01*
X63300Y207000D02*X63800Y207500D01*
X62300Y207000D02*X63300D01*
X61800Y207500D02*X62300Y207000D01*
X65000Y209000D02*X67000D01*
X68200Y211000D02*Y207000D01*
Y211000D02*X70700Y207000D01*
Y211000D02*Y207000D01*
X71900Y210500D02*Y207500D01*
Y210500D02*X72400Y211000D01*
X73400D01*
X73900Y210500D01*
Y207500D01*
X73400Y207000D02*X73900Y207500D01*
X72400Y207000D02*X73400D01*
X71900Y207500D02*X72400Y207000D01*
X75600Y211000D02*Y207000D01*
X76900Y211000D02*X77600Y210300D01*
Y207700D01*
X76900Y207000D02*X77600Y207700D01*
X75100Y207000D02*X76900D01*
X75100Y211000D02*X76900D01*
X78800Y209200D02*X80300D01*
X78800Y207000D02*X80800D01*
X78800Y211000D02*Y207000D01*
Y211000D02*X80800D01*
X82000D02*Y207000D01*
Y211000D02*X83500Y209000D01*
X85000Y211000D01*
Y207000D01*
X86900D02*X88200D01*
X86200Y207700D02*X86900Y207000D01*
X86200Y210300D02*Y207700D01*
Y210300D02*X86900Y211000D01*
X88200D01*
X89400D02*Y207500D01*
X89900Y207000D01*
X90900D01*
X91400Y207500D01*
Y211000D02*Y207500D01*
X98000Y209000D02*X99000Y207000D01*
X100000Y209000D02*X99000Y207000D01*
X101200Y210200D02*X102000Y211000D01*
Y207000D01*
X101200D02*X102700D01*
X103900D02*X104400D01*
X105600Y207500D02*X106100Y207000D01*
X105600Y210500D02*Y207500D01*
Y210500D02*X106100Y211000D01*
X107100D01*
X107600Y210500D01*
Y207500D01*
X107100Y207000D02*X107600Y207500D01*
X106100Y207000D02*X107100D01*
X105600Y208000D02*X107600Y210000D01*
G54D31*X118307Y121350D02*Y117000D01*
X21693Y121350D02*Y117000D01*
X115000Y121350D02*X118307D01*
X21693D02*X25000D01*
X118307Y38358D02*X88110Y12649D01*
X21693Y38358D02*X51890Y12649D01*
X88110D01*
X115000Y142350D02*X118307D01*
Y132000D01*
X21693Y142350D02*X25000D01*
X21693D02*Y132000D01*
X111564Y24755D02*X112350D01*
X111564Y19245D02*X112350D01*
X80755Y56936D02*Y56150D01*
X75245Y56936D02*Y56150D01*
X64755Y56893D02*Y56107D01*
X59245Y56893D02*Y56107D01*
X27564Y19245D02*X28350D01*
X27564Y24755D02*X28350D01*
X74855Y175750D02*X85485D01*
X74855Y194250D02*X85485D01*
X74855Y179000D02*Y175750D01*
Y194250D02*Y191000D01*
X85485Y175929D02*Y175750D01*
Y194250D02*Y194071D01*
X102755Y182893D02*Y182107D01*
X97245Y182893D02*Y182107D01*
X20000Y217500D02*X120000D01*
X30000Y192500D02*X20000D01*
Y182500D02*X30000D01*
Y192500D01*
X89607Y109755D02*X90393D01*
X89607Y104245D02*X90393D01*
X89607Y120755D02*X90393D01*
X89607Y115245D02*X90393D01*
G54D32*X66000Y76000D02*X68500Y80000D01*
X66000D02*X68500Y76000D01*
X69700Y80000D02*Y76500D01*
X70200Y76000D01*
X71200D01*
X71700Y76500D01*
Y80000D02*Y76500D01*
X72900Y79200D02*X73700Y80000D01*
Y76000D01*
X72900D02*X74400D01*
X111807Y30650D02*Y26650D01*
X113107Y30650D02*X113807Y29950D01*
Y27350D01*
X113107Y26650D02*X113807Y27350D01*
X111307Y26650D02*X113107D01*
X111307Y30650D02*X113107D01*
X115007Y30150D02*X115507Y30650D01*
X116507D01*
X117007Y30150D01*
X116507Y26650D02*X117007Y27150D01*
X115507Y26650D02*X116507D01*
X115007Y27150D02*X115507Y26650D01*
Y28850D02*X116507D01*
X117007Y30150D02*Y29350D01*
Y28350D02*Y27150D01*
Y28350D02*X116507Y28850D01*
X117007Y29350D02*X116507Y28850D01*
X75307Y68650D02*X77307D01*
X77807Y68150D01*
Y67150D01*
X77307Y66650D02*X77807Y67150D01*
X75807Y66650D02*X77307D01*
X75807Y68650D02*Y64650D01*
X76607Y66650D02*X77807Y64650D01*
X79007Y68150D02*X79507Y68650D01*
X80507D01*
X81007Y68150D01*
X80507Y64650D02*X81007Y65150D01*
X79507Y64650D02*X80507D01*
X79007Y65150D02*X79507Y64650D01*
Y66850D02*X80507D01*
X81007Y68150D02*Y67350D01*
Y66350D02*Y65150D01*
Y66350D02*X80507Y66850D01*
X81007Y67350D02*X80507Y66850D01*
X59307Y68607D02*X61307D01*
X61807Y68107D01*
Y67107D01*
X61307Y66607D02*X61807Y67107D01*
X59807Y66607D02*X61307D01*
X59807Y68607D02*Y64607D01*
X60607Y66607D02*X61807Y64607D01*
X63007Y68107D02*X63507Y68607D01*
X65007D01*
X65507Y68107D01*
Y67107D01*
X63007Y64607D02*X65507Y67107D01*
X63007Y64607D02*X65507D01*
X63000Y182505D02*X66500D01*
X67000Y183005D01*
Y184005D02*Y183005D01*
Y184005D02*X66500Y184505D01*
X63000D02*X66500D01*
X63500Y185705D02*X63000Y186205D01*
Y187205D02*Y186205D01*
Y187205D02*X63500Y187705D01*
X67000Y187205D02*X66500Y187705D01*
X67000Y187205D02*Y186205D01*
X66500Y185705D02*X67000Y186205D01*
X64800Y187205D02*Y186205D01*
X63500Y187705D02*X64300D01*
X65300D02*X66500D01*
X65300D02*X64800Y187205D01*
X64300Y187705D02*X64800Y187205D01*
X98093Y190650D02*X99393D01*
X97393Y191350D02*X98093Y190650D01*
X97393Y193950D02*Y191350D01*
Y193950D02*X98093Y194650D01*
X99393D01*
X100593Y193850D02*X101393Y194650D01*
Y190650D01*
X100593D02*X102093D01*
X23393Y30650D02*Y26650D01*
X24693Y30650D02*X25393Y29950D01*
Y27350D01*
X24693Y26650D02*X25393Y27350D01*
X22893Y26650D02*X24693D01*
X22893Y30650D02*X24693D01*
X26593Y30150D02*X27093Y30650D01*
X28593D01*
X29093Y30150D01*
Y29150D01*
X26593Y26650D02*X29093Y29150D01*
X26593Y26650D02*X29093D01*
X88050Y98150D02*X89350D01*
X87350Y98850D02*X88050Y98150D01*
X87350Y101450D02*Y98850D01*
Y101450D02*X88050Y102150D01*
X89350D01*
X90550Y101650D02*X91050Y102150D01*
X92050D01*
X92550Y101650D01*
X92050Y98150D02*X92550Y98650D01*
X91050Y98150D02*X92050D01*
X90550Y98650D02*X91050Y98150D01*
Y100350D02*X92050D01*
X92550Y101650D02*Y100850D01*
Y99850D02*Y98650D01*
Y99850D02*X92050Y100350D01*
X92550Y100850D02*X92050Y100350D01*
X88050Y122650D02*X89350D01*
X87350Y123350D02*X88050Y122650D01*
X87350Y125950D02*Y123350D01*
Y125950D02*X88050Y126650D01*
X89350D01*
X90550Y126150D02*X91050Y126650D01*
X92550D01*
X93050Y126150D01*
Y125150D01*
X90550Y122650D02*X93050Y125150D01*
X90550Y122650D02*X93050D01*
M02*
