M48
INCH
T26C0.020
T25C0.038
%
T26
X003750Y008094
X005050Y008094
X007000Y004400
X007850Y008094
X009500Y008094
X009950Y011850
X009950Y011250
X009950Y010650
T25
X002500Y018750
X002500Y017750
X002500Y016750
X002500Y015750
X002500Y014750
X002500Y013750
X002500Y012750
X011500Y018750
X011500Y017750
X011500Y016750
X011500Y015750
X011500Y014750
X011500Y013750
X011500Y012750
M30
