G04 #@! TF.GenerationSoftware,KiCad,Pcbnew,6.0.2+dfsg-1*
G04 #@! TF.CreationDate,2023-09-16T21:21:40-06:00*
G04 #@! TF.ProjectId,ckt-xbeeio-acsw,636b742d-7862-4656-9569-6f2d61637377,rev?*
G04 #@! TF.SameCoordinates,Original*
G04 #@! TF.FileFunction,Legend,Top*
G04 #@! TF.FilePolarity,Positive*
%FSLAX46Y46*%
G04 Gerber Fmt 4.6, Leading zero omitted, Abs format (unit mm)*
G04 Created by KiCad (PCBNEW 6.0.2+dfsg-1) date 2023-09-16 21:21:40*
%MOMM*%
%LPD*%
G01*
G04 APERTURE LIST*
%ADD10C,0.254000*%
%ADD11C,0.177800*%
%ADD12C,0.150000*%
%ADD13C,0.127000*%
%ADD14C,0.152400*%
%ADD15C,0.120000*%
%ADD16C,0.203200*%
G04 APERTURE END LIST*
D10*
X32847642Y-122564071D02*
X32756928Y-122473357D01*
X32666214Y-122201214D01*
X32666214Y-122019785D01*
X32756928Y-121747642D01*
X32938357Y-121566214D01*
X33119785Y-121475500D01*
X33482642Y-121384785D01*
X33754785Y-121384785D01*
X34117642Y-121475500D01*
X34299071Y-121566214D01*
X34480500Y-121747642D01*
X34571214Y-122019785D01*
X34571214Y-122201214D01*
X34480500Y-122473357D01*
X34389785Y-122564071D01*
X32666214Y-123380500D02*
X34571214Y-123380500D01*
X32666214Y-124469071D02*
X33754785Y-123652642D01*
X34571214Y-124469071D02*
X33482642Y-123380500D01*
X34571214Y-125013357D02*
X34571214Y-126101928D01*
X32666214Y-125557642D02*
X34571214Y-125557642D01*
X33936214Y-128097642D02*
X33936214Y-129458357D01*
X34752642Y-128641928D02*
X32303357Y-128097642D01*
X33119785Y-129276928D02*
X33119785Y-127916214D01*
X32303357Y-128732642D02*
X34752642Y-129276928D01*
X34571214Y-129911928D02*
X34571214Y-131091214D01*
X33845500Y-130456214D01*
X33845500Y-130728357D01*
X33754785Y-130909785D01*
X33664071Y-131000500D01*
X33482642Y-131091214D01*
X33029071Y-131091214D01*
X32847642Y-131000500D01*
X32756928Y-130909785D01*
X32666214Y-130728357D01*
X32666214Y-130184071D01*
X32756928Y-130002642D01*
X32847642Y-129911928D01*
D11*
X114197855Y-103886000D02*
X114923570Y-103886000D01*
X114052712Y-104321428D02*
X114560712Y-102797428D01*
X115068712Y-104321428D01*
X115504141Y-104248857D02*
X115721855Y-104321428D01*
X116084712Y-104321428D01*
X116229855Y-104248857D01*
X116302427Y-104176285D01*
X116374998Y-104031142D01*
X116374998Y-103886000D01*
X116302427Y-103740857D01*
X116229855Y-103668285D01*
X116084712Y-103595714D01*
X115794427Y-103523142D01*
X115649284Y-103450571D01*
X115576712Y-103378000D01*
X115504141Y-103232857D01*
X115504141Y-103087714D01*
X115576712Y-102942571D01*
X115649284Y-102870000D01*
X115794427Y-102797428D01*
X116157284Y-102797428D01*
X116374998Y-102870000D01*
X116955570Y-104248857D02*
X117173284Y-104321428D01*
X117536141Y-104321428D01*
X117681284Y-104248857D01*
X117753855Y-104176285D01*
X117826427Y-104031142D01*
X117826427Y-103886000D01*
X117753855Y-103740857D01*
X117681284Y-103668285D01*
X117536141Y-103595714D01*
X117245855Y-103523142D01*
X117100712Y-103450571D01*
X117028141Y-103378000D01*
X116955570Y-103232857D01*
X116955570Y-103087714D01*
X117028141Y-102942571D01*
X117100712Y-102870000D01*
X117245855Y-102797428D01*
X117608712Y-102797428D01*
X117826427Y-102870000D01*
X118769855Y-102797428D02*
X119060141Y-102797428D01*
X119205284Y-102870000D01*
X119350427Y-103015142D01*
X119422998Y-103305428D01*
X119422998Y-103813428D01*
X119350427Y-104103714D01*
X119205284Y-104248857D01*
X119060141Y-104321428D01*
X118769855Y-104321428D01*
X118624712Y-104248857D01*
X118479570Y-104103714D01*
X118406998Y-103813428D01*
X118406998Y-103305428D01*
X118479570Y-103015142D01*
X118624712Y-102870000D01*
X118769855Y-102797428D01*
X120946998Y-104176285D02*
X120874427Y-104248857D01*
X120656712Y-104321428D01*
X120511570Y-104321428D01*
X120293855Y-104248857D01*
X120148712Y-104103714D01*
X120076141Y-103958571D01*
X120003570Y-103668285D01*
X120003570Y-103450571D01*
X120076141Y-103160285D01*
X120148712Y-103015142D01*
X120293855Y-102870000D01*
X120511570Y-102797428D01*
X120656712Y-102797428D01*
X120874427Y-102870000D01*
X120946998Y-102942571D01*
X99375141Y-147755428D02*
X99375141Y-148118285D01*
X99012284Y-147973142D02*
X99375141Y-148118285D01*
X99737998Y-147973142D01*
X99157427Y-148408571D02*
X99375141Y-148118285D01*
X99592855Y-148408571D01*
D10*
X32666214Y-141913428D02*
X34571214Y-141913428D01*
X32666214Y-143002000D01*
X34571214Y-143002000D01*
X33391928Y-146539857D02*
X33482642Y-146630571D01*
X33573357Y-146812000D01*
X33391928Y-147174857D01*
X33482642Y-147356285D01*
X33573357Y-147447000D01*
X32666214Y-151982714D02*
X32666214Y-151075571D01*
X34571214Y-151075571D01*
D11*
X115141284Y-99368428D02*
X114633284Y-98642714D01*
X114270427Y-99368428D02*
X114270427Y-97844428D01*
X114850998Y-97844428D01*
X114996141Y-97917000D01*
X115068712Y-97989571D01*
X115141284Y-98134714D01*
X115141284Y-98352428D01*
X115068712Y-98497571D01*
X114996141Y-98570142D01*
X114850998Y-98642714D01*
X114270427Y-98642714D01*
X115721855Y-99295857D02*
X115939570Y-99368428D01*
X116302427Y-99368428D01*
X116447570Y-99295857D01*
X116520141Y-99223285D01*
X116592712Y-99078142D01*
X116592712Y-98933000D01*
X116520141Y-98787857D01*
X116447570Y-98715285D01*
X116302427Y-98642714D01*
X116012141Y-98570142D01*
X115866998Y-98497571D01*
X115794427Y-98425000D01*
X115721855Y-98279857D01*
X115721855Y-98134714D01*
X115794427Y-97989571D01*
X115866998Y-97917000D01*
X116012141Y-97844428D01*
X116374998Y-97844428D01*
X116592712Y-97917000D01*
X117173284Y-99295857D02*
X117390998Y-99368428D01*
X117753855Y-99368428D01*
X117898998Y-99295857D01*
X117971570Y-99223285D01*
X118044141Y-99078142D01*
X118044141Y-98933000D01*
X117971570Y-98787857D01*
X117898998Y-98715285D01*
X117753855Y-98642714D01*
X117463570Y-98570142D01*
X117318427Y-98497571D01*
X117245855Y-98425000D01*
X117173284Y-98279857D01*
X117173284Y-98134714D01*
X117245855Y-97989571D01*
X117318427Y-97917000D01*
X117463570Y-97844428D01*
X117826427Y-97844428D01*
X118044141Y-97917000D01*
X118697284Y-99368428D02*
X118697284Y-97844428D01*
D10*
X32847642Y-77733071D02*
X32756928Y-77642357D01*
X32666214Y-77370214D01*
X32666214Y-77188785D01*
X32756928Y-76916642D01*
X32938357Y-76735214D01*
X33119785Y-76644500D01*
X33482642Y-76553785D01*
X33754785Y-76553785D01*
X34117642Y-76644500D01*
X34299071Y-76735214D01*
X34480500Y-76916642D01*
X34571214Y-77188785D01*
X34571214Y-77370214D01*
X34480500Y-77642357D01*
X34389785Y-77733071D01*
X32666214Y-78549500D02*
X34571214Y-78549500D01*
X32666214Y-79638071D02*
X33754785Y-78821642D01*
X34571214Y-79638071D02*
X33482642Y-78549500D01*
X34571214Y-80182357D02*
X34571214Y-81270928D01*
X32666214Y-80726642D02*
X34571214Y-80726642D01*
X33936214Y-83266642D02*
X33936214Y-84627357D01*
X34752642Y-83810928D02*
X32303357Y-83266642D01*
X33119785Y-84445928D02*
X33119785Y-83085214D01*
X32303357Y-83901642D02*
X34752642Y-84445928D01*
X32666214Y-86260214D02*
X32666214Y-85171642D01*
X32666214Y-85715928D02*
X34571214Y-85715928D01*
X34299071Y-85534500D01*
X34117642Y-85353071D01*
X34026928Y-85171642D01*
D11*
X117385355Y-135309428D02*
X118473927Y-135309428D01*
X117820784Y-134656285D02*
X117385355Y-136615714D01*
X118328784Y-135962571D02*
X117240212Y-135962571D01*
X117893355Y-136615714D02*
X118328784Y-134656285D01*
X118909355Y-134946571D02*
X118981927Y-134874000D01*
X119127070Y-134801428D01*
X119489927Y-134801428D01*
X119635070Y-134874000D01*
X119707641Y-134946571D01*
X119780212Y-135091714D01*
X119780212Y-135236857D01*
X119707641Y-135454571D01*
X118836784Y-136325428D01*
X119780212Y-136325428D01*
D12*
X68454047Y-67878142D02*
X68406428Y-67925761D01*
X68263571Y-67973380D01*
X68168333Y-67973380D01*
X68025476Y-67925761D01*
X67930238Y-67830523D01*
X67882619Y-67735285D01*
X67835000Y-67544809D01*
X67835000Y-67401952D01*
X67882619Y-67211476D01*
X67930238Y-67116238D01*
X68025476Y-67021000D01*
X68168333Y-66973380D01*
X68263571Y-66973380D01*
X68406428Y-67021000D01*
X68454047Y-67068619D01*
X68882619Y-67973380D02*
X68882619Y-66973380D01*
X69454047Y-67973380D02*
X69025476Y-67401952D01*
X69454047Y-66973380D02*
X68882619Y-67544809D01*
X69739761Y-66973380D02*
X70311190Y-66973380D01*
X70025476Y-67973380D02*
X70025476Y-66973380D01*
X70644523Y-67592428D02*
X71406428Y-67592428D01*
X71787380Y-66973380D02*
X72454047Y-67973380D01*
X72454047Y-66973380D02*
X71787380Y-67973380D01*
X73168333Y-67449571D02*
X73311190Y-67497190D01*
X73358809Y-67544809D01*
X73406428Y-67640047D01*
X73406428Y-67782904D01*
X73358809Y-67878142D01*
X73311190Y-67925761D01*
X73215952Y-67973380D01*
X72835000Y-67973380D01*
X72835000Y-66973380D01*
X73168333Y-66973380D01*
X73263571Y-67021000D01*
X73311190Y-67068619D01*
X73358809Y-67163857D01*
X73358809Y-67259095D01*
X73311190Y-67354333D01*
X73263571Y-67401952D01*
X73168333Y-67449571D01*
X72835000Y-67449571D01*
X73835000Y-67449571D02*
X74168333Y-67449571D01*
X74311190Y-67973380D02*
X73835000Y-67973380D01*
X73835000Y-66973380D01*
X74311190Y-66973380D01*
X74739761Y-67449571D02*
X75073095Y-67449571D01*
X75215952Y-67973380D02*
X74739761Y-67973380D01*
X74739761Y-66973380D01*
X75215952Y-66973380D01*
X75644523Y-67973380D02*
X75644523Y-66973380D01*
X76311190Y-66973380D02*
X76501666Y-66973380D01*
X76596904Y-67021000D01*
X76692142Y-67116238D01*
X76739761Y-67306714D01*
X76739761Y-67640047D01*
X76692142Y-67830523D01*
X76596904Y-67925761D01*
X76501666Y-67973380D01*
X76311190Y-67973380D01*
X76215952Y-67925761D01*
X76120714Y-67830523D01*
X76073095Y-67640047D01*
X76073095Y-67306714D01*
X76120714Y-67116238D01*
X76215952Y-67021000D01*
X76311190Y-66973380D01*
X77168333Y-67592428D02*
X77930238Y-67592428D01*
X78358809Y-67687666D02*
X78835000Y-67687666D01*
X78263571Y-67973380D02*
X78596904Y-66973380D01*
X78930238Y-67973380D01*
X79835000Y-67878142D02*
X79787380Y-67925761D01*
X79644523Y-67973380D01*
X79549285Y-67973380D01*
X79406428Y-67925761D01*
X79311190Y-67830523D01*
X79263571Y-67735285D01*
X79215952Y-67544809D01*
X79215952Y-67401952D01*
X79263571Y-67211476D01*
X79311190Y-67116238D01*
X79406428Y-67021000D01*
X79549285Y-66973380D01*
X79644523Y-66973380D01*
X79787380Y-67021000D01*
X79835000Y-67068619D01*
X80215952Y-67925761D02*
X80358809Y-67973380D01*
X80596904Y-67973380D01*
X80692142Y-67925761D01*
X80739761Y-67878142D01*
X80787380Y-67782904D01*
X80787380Y-67687666D01*
X80739761Y-67592428D01*
X80692142Y-67544809D01*
X80596904Y-67497190D01*
X80406428Y-67449571D01*
X80311190Y-67401952D01*
X80263571Y-67354333D01*
X80215952Y-67259095D01*
X80215952Y-67163857D01*
X80263571Y-67068619D01*
X80311190Y-67021000D01*
X80406428Y-66973380D01*
X80644523Y-66973380D01*
X80787380Y-67021000D01*
X81120714Y-66973380D02*
X81358809Y-67973380D01*
X81549285Y-67259095D01*
X81739761Y-67973380D01*
X81977857Y-66973380D01*
X83025476Y-67306714D02*
X83263571Y-67973380D01*
X83501666Y-67306714D01*
X84406428Y-67973380D02*
X83835000Y-67973380D01*
X84120714Y-67973380D02*
X84120714Y-66973380D01*
X84025476Y-67116238D01*
X83930238Y-67211476D01*
X83835000Y-67259095D01*
X84835000Y-67878142D02*
X84882619Y-67925761D01*
X84835000Y-67973380D01*
X84787380Y-67925761D01*
X84835000Y-67878142D01*
X84835000Y-67973380D01*
X85501666Y-66973380D02*
X85596904Y-66973380D01*
X85692142Y-67021000D01*
X85739761Y-67068619D01*
X85787380Y-67163857D01*
X85835000Y-67354333D01*
X85835000Y-67592428D01*
X85787380Y-67782904D01*
X85739761Y-67878142D01*
X85692142Y-67925761D01*
X85596904Y-67973380D01*
X85501666Y-67973380D01*
X85406428Y-67925761D01*
X85358809Y-67878142D01*
X85311190Y-67782904D01*
X85263571Y-67592428D01*
X85263571Y-67354333D01*
X85311190Y-67163857D01*
X85358809Y-67068619D01*
X85406428Y-67021000D01*
X85501666Y-66973380D01*
X70144523Y-68821476D02*
X70049285Y-68773857D01*
X69858809Y-68773857D01*
X69763571Y-68821476D01*
X69668333Y-68916714D01*
X69620714Y-69011952D01*
X69620714Y-69202428D01*
X69668333Y-69297666D01*
X69763571Y-69392904D01*
X69858809Y-69440523D01*
X70049285Y-69440523D01*
X70144523Y-69392904D01*
X69954047Y-68440523D02*
X69715952Y-68488142D01*
X69477857Y-68631000D01*
X69335000Y-68869095D01*
X69287380Y-69107190D01*
X69335000Y-69345285D01*
X69477857Y-69583380D01*
X69715952Y-69726238D01*
X69954047Y-69773857D01*
X70192142Y-69726238D01*
X70430238Y-69583380D01*
X70573095Y-69345285D01*
X70620714Y-69107190D01*
X70573095Y-68869095D01*
X70430238Y-68631000D01*
X70192142Y-68488142D01*
X69954047Y-68440523D01*
X71001666Y-68678619D02*
X71049285Y-68631000D01*
X71144523Y-68583380D01*
X71382619Y-68583380D01*
X71477857Y-68631000D01*
X71525476Y-68678619D01*
X71573095Y-68773857D01*
X71573095Y-68869095D01*
X71525476Y-69011952D01*
X70954047Y-69583380D01*
X71573095Y-69583380D01*
X72192142Y-68583380D02*
X72287380Y-68583380D01*
X72382619Y-68631000D01*
X72430238Y-68678619D01*
X72477857Y-68773857D01*
X72525476Y-68964333D01*
X72525476Y-69202428D01*
X72477857Y-69392904D01*
X72430238Y-69488142D01*
X72382619Y-69535761D01*
X72287380Y-69583380D01*
X72192142Y-69583380D01*
X72096904Y-69535761D01*
X72049285Y-69488142D01*
X72001666Y-69392904D01*
X71954047Y-69202428D01*
X71954047Y-68964333D01*
X72001666Y-68773857D01*
X72049285Y-68678619D01*
X72096904Y-68631000D01*
X72192142Y-68583380D01*
X72906428Y-68678619D02*
X72954047Y-68631000D01*
X73049285Y-68583380D01*
X73287380Y-68583380D01*
X73382619Y-68631000D01*
X73430238Y-68678619D01*
X73477857Y-68773857D01*
X73477857Y-68869095D01*
X73430238Y-69011952D01*
X72858809Y-69583380D01*
X73477857Y-69583380D01*
X73811190Y-68583380D02*
X74430238Y-68583380D01*
X74096904Y-68964333D01*
X74239761Y-68964333D01*
X74335000Y-69011952D01*
X74382619Y-69059571D01*
X74430238Y-69154809D01*
X74430238Y-69392904D01*
X74382619Y-69488142D01*
X74335000Y-69535761D01*
X74239761Y-69583380D01*
X73954047Y-69583380D01*
X73858809Y-69535761D01*
X73811190Y-69488142D01*
X77715952Y-69488142D02*
X77668333Y-69535761D01*
X77525476Y-69583380D01*
X77430238Y-69583380D01*
X77287380Y-69535761D01*
X77192142Y-69440523D01*
X77144523Y-69345285D01*
X77096904Y-69154809D01*
X77096904Y-69011952D01*
X77144523Y-68821476D01*
X77192142Y-68726238D01*
X77287380Y-68631000D01*
X77430238Y-68583380D01*
X77525476Y-68583380D01*
X77668333Y-68631000D01*
X77715952Y-68678619D01*
X78715952Y-69488142D02*
X78668333Y-69535761D01*
X78525476Y-69583380D01*
X78430238Y-69583380D01*
X78287380Y-69535761D01*
X78192142Y-69440523D01*
X78144523Y-69345285D01*
X78096904Y-69154809D01*
X78096904Y-69011952D01*
X78144523Y-68821476D01*
X78192142Y-68726238D01*
X78287380Y-68631000D01*
X78430238Y-68583380D01*
X78525476Y-68583380D01*
X78668333Y-68631000D01*
X78715952Y-68678619D01*
X80239761Y-69059571D02*
X80382619Y-69107190D01*
X80430238Y-69154809D01*
X80477857Y-69250047D01*
X80477857Y-69392904D01*
X80430238Y-69488142D01*
X80382619Y-69535761D01*
X80287380Y-69583380D01*
X79906428Y-69583380D01*
X79906428Y-68583380D01*
X80239761Y-68583380D01*
X80335000Y-68631000D01*
X80382619Y-68678619D01*
X80430238Y-68773857D01*
X80430238Y-68869095D01*
X80382619Y-68964333D01*
X80335000Y-69011952D01*
X80239761Y-69059571D01*
X79906428Y-69059571D01*
X81096904Y-69107190D02*
X81096904Y-69583380D01*
X80763571Y-68583380D02*
X81096904Y-69107190D01*
X81430238Y-68583380D01*
X81763571Y-69202428D02*
X82525476Y-69202428D01*
X82954047Y-69535761D02*
X83096904Y-69583380D01*
X83335000Y-69583380D01*
X83430238Y-69535761D01*
X83477857Y-69488142D01*
X83525476Y-69392904D01*
X83525476Y-69297666D01*
X83477857Y-69202428D01*
X83430238Y-69154809D01*
X83335000Y-69107190D01*
X83144523Y-69059571D01*
X83049285Y-69011952D01*
X83001666Y-68964333D01*
X82954047Y-68869095D01*
X82954047Y-68773857D01*
X83001666Y-68678619D01*
X83049285Y-68631000D01*
X83144523Y-68583380D01*
X83382619Y-68583380D01*
X83525476Y-68631000D01*
X83906428Y-69297666D02*
X84382619Y-69297666D01*
X83811190Y-69583380D02*
X84144523Y-68583380D01*
X84477857Y-69583380D01*
X105029000Y-109434380D02*
X105029000Y-109672476D01*
X104790904Y-109577238D02*
X105029000Y-109672476D01*
X105267095Y-109577238D01*
X104886142Y-109862952D02*
X105029000Y-109672476D01*
X105171857Y-109862952D01*
D11*
X97783287Y-158550428D02*
X98726715Y-158550428D01*
X98218715Y-159131000D01*
X98436430Y-159131000D01*
X98581572Y-159203571D01*
X98654144Y-159276142D01*
X98726715Y-159421285D01*
X98726715Y-159784142D01*
X98654144Y-159929285D01*
X98581572Y-160001857D01*
X98436430Y-160074428D01*
X98001001Y-160074428D01*
X97855858Y-160001857D01*
X97783287Y-159929285D01*
X99379858Y-159929285D02*
X99452430Y-160001857D01*
X99379858Y-160074428D01*
X99307287Y-160001857D01*
X99379858Y-159929285D01*
X99379858Y-160074428D01*
X99960430Y-158550428D02*
X100903858Y-158550428D01*
X100395858Y-159131000D01*
X100613572Y-159131000D01*
X100758715Y-159203571D01*
X100831287Y-159276142D01*
X100903858Y-159421285D01*
X100903858Y-159784142D01*
X100831287Y-159929285D01*
X100758715Y-160001857D01*
X100613572Y-160074428D01*
X100178144Y-160074428D01*
X100033001Y-160001857D01*
X99960430Y-159929285D01*
X101339287Y-158550428D02*
X101847287Y-160074428D01*
X102355287Y-158550428D01*
D10*
X32847642Y-100151071D02*
X32756928Y-100060357D01*
X32666214Y-99788214D01*
X32666214Y-99606785D01*
X32756928Y-99334642D01*
X32938357Y-99153214D01*
X33119785Y-99062500D01*
X33482642Y-98971785D01*
X33754785Y-98971785D01*
X34117642Y-99062500D01*
X34299071Y-99153214D01*
X34480500Y-99334642D01*
X34571214Y-99606785D01*
X34571214Y-99788214D01*
X34480500Y-100060357D01*
X34389785Y-100151071D01*
X32666214Y-100967500D02*
X34571214Y-100967500D01*
X32666214Y-102056071D02*
X33754785Y-101239642D01*
X34571214Y-102056071D02*
X33482642Y-100967500D01*
X34571214Y-102600357D02*
X34571214Y-103688928D01*
X32666214Y-103144642D02*
X34571214Y-103144642D01*
X33936214Y-105684642D02*
X33936214Y-107045357D01*
X34752642Y-106228928D02*
X32303357Y-105684642D01*
X33119785Y-106863928D02*
X33119785Y-105503214D01*
X32303357Y-106319642D02*
X34752642Y-106863928D01*
X34389785Y-107589642D02*
X34480500Y-107680357D01*
X34571214Y-107861785D01*
X34571214Y-108315357D01*
X34480500Y-108496785D01*
X34389785Y-108587500D01*
X34208357Y-108678214D01*
X34026928Y-108678214D01*
X33754785Y-108587500D01*
X32666214Y-107498928D01*
X32666214Y-108678214D01*
D11*
X117385355Y-139119428D02*
X118473927Y-139119428D01*
X117820784Y-138466285D02*
X117385355Y-140425714D01*
X118328784Y-139772571D02*
X117240212Y-139772571D01*
X117893355Y-140425714D02*
X118328784Y-138466285D01*
X118836784Y-138611428D02*
X119780212Y-138611428D01*
X119272212Y-139192000D01*
X119489927Y-139192000D01*
X119635070Y-139264571D01*
X119707641Y-139337142D01*
X119780212Y-139482285D01*
X119780212Y-139845142D01*
X119707641Y-139990285D01*
X119635070Y-140062857D01*
X119489927Y-140135428D01*
X119054498Y-140135428D01*
X118909355Y-140062857D01*
X118836784Y-139990285D01*
X117385355Y-131499428D02*
X118473927Y-131499428D01*
X117820784Y-130846285D02*
X117385355Y-132805714D01*
X118328784Y-132152571D02*
X117240212Y-132152571D01*
X117893355Y-132805714D02*
X118328784Y-130846285D01*
X119780212Y-132515428D02*
X118909355Y-132515428D01*
X119344784Y-132515428D02*
X119344784Y-130991428D01*
X119199641Y-131209142D01*
X119054498Y-131354285D01*
X118909355Y-131426857D01*
D12*
X104267000Y-118959380D02*
X104267000Y-119197476D01*
X104028904Y-119102238D02*
X104267000Y-119197476D01*
X104505095Y-119102238D01*
X104124142Y-119387952D02*
X104267000Y-119197476D01*
X104409857Y-119387952D01*
D11*
X99452430Y-164011428D02*
X98581572Y-164011428D01*
X99017001Y-164011428D02*
X99017001Y-162487428D01*
X98871858Y-162705142D01*
X98726715Y-162850285D01*
X98581572Y-162922857D01*
X100033001Y-162632571D02*
X100105572Y-162560000D01*
X100250715Y-162487428D01*
X100613572Y-162487428D01*
X100758715Y-162560000D01*
X100831287Y-162632571D01*
X100903858Y-162777714D01*
X100903858Y-162922857D01*
X100831287Y-163140571D01*
X99960430Y-164011428D01*
X100903858Y-164011428D01*
X101339287Y-162487428D02*
X101847287Y-164011428D01*
X102355287Y-162487428D01*
D12*
X44362619Y-103486667D02*
X43648333Y-103486667D01*
X43505476Y-103439048D01*
X43410238Y-103343810D01*
X43362619Y-103200953D01*
X43362619Y-103105715D01*
X44267380Y-103915239D02*
X44315000Y-103962858D01*
X44362619Y-104058096D01*
X44362619Y-104296191D01*
X44315000Y-104391429D01*
X44267380Y-104439048D01*
X44172142Y-104486667D01*
X44076904Y-104486667D01*
X43934047Y-104439048D01*
X43362619Y-103867620D01*
X43362619Y-104486667D01*
X75461904Y-126817380D02*
X75461904Y-125817380D01*
X76033333Y-126817380D02*
X75604761Y-126245952D01*
X76033333Y-125817380D02*
X75461904Y-126388809D01*
X76366666Y-125817380D02*
X76985714Y-125817380D01*
X76652380Y-126198333D01*
X76795238Y-126198333D01*
X76890476Y-126245952D01*
X76938095Y-126293571D01*
X76985714Y-126388809D01*
X76985714Y-126626904D01*
X76938095Y-126722142D01*
X76890476Y-126769761D01*
X76795238Y-126817380D01*
X76509523Y-126817380D01*
X76414285Y-126769761D01*
X76366666Y-126722142D01*
X113030095Y-118705380D02*
X113030095Y-119514904D01*
X113077714Y-119610142D01*
X113125333Y-119657761D01*
X113220571Y-119705380D01*
X113411047Y-119705380D01*
X113506285Y-119657761D01*
X113553904Y-119610142D01*
X113601523Y-119514904D01*
X113601523Y-118705380D01*
X113982476Y-118705380D02*
X114601523Y-118705380D01*
X114268190Y-119086333D01*
X114411047Y-119086333D01*
X114506285Y-119133952D01*
X114553904Y-119181571D01*
X114601523Y-119276809D01*
X114601523Y-119514904D01*
X114553904Y-119610142D01*
X114506285Y-119657761D01*
X114411047Y-119705380D01*
X114125333Y-119705380D01*
X114030095Y-119657761D01*
X113982476Y-119610142D01*
X104798904Y-157932380D02*
X104798904Y-156932380D01*
X105037000Y-156932380D01*
X105179857Y-156980000D01*
X105275095Y-157075238D01*
X105322714Y-157170476D01*
X105370333Y-157360952D01*
X105370333Y-157503809D01*
X105322714Y-157694285D01*
X105275095Y-157789523D01*
X105179857Y-157884761D01*
X105037000Y-157932380D01*
X104798904Y-157932380D01*
X105751285Y-157027619D02*
X105798904Y-156980000D01*
X105894142Y-156932380D01*
X106132238Y-156932380D01*
X106227476Y-156980000D01*
X106275095Y-157027619D01*
X106322714Y-157122857D01*
X106322714Y-157218095D01*
X106275095Y-157360952D01*
X105703666Y-157932380D01*
X106322714Y-157932380D01*
D13*
X110566200Y-92503171D02*
X110972600Y-93112771D01*
X110972600Y-92503171D02*
X110566200Y-93112771D01*
X111204828Y-92503171D02*
X111204828Y-92996657D01*
X111233857Y-93054714D01*
X111262885Y-93083742D01*
X111320942Y-93112771D01*
X111437057Y-93112771D01*
X111495114Y-93083742D01*
X111524142Y-93054714D01*
X111553171Y-92996657D01*
X111553171Y-92503171D01*
X112104714Y-92503171D02*
X111988600Y-92503171D01*
X111930542Y-92532200D01*
X111901514Y-92561228D01*
X111843457Y-92648314D01*
X111814428Y-92764428D01*
X111814428Y-92996657D01*
X111843457Y-93054714D01*
X111872485Y-93083742D01*
X111930542Y-93112771D01*
X112046657Y-93112771D01*
X112104714Y-93083742D01*
X112133742Y-93054714D01*
X112162771Y-92996657D01*
X112162771Y-92851514D01*
X112133742Y-92793457D01*
X112104714Y-92764428D01*
X112046657Y-92735400D01*
X111930542Y-92735400D01*
X111872485Y-92764428D01*
X111843457Y-92793457D01*
X111814428Y-92851514D01*
D14*
X102677685Y-73550659D02*
X102097114Y-73550659D01*
X102387400Y-73550659D02*
X102387400Y-72534659D01*
X102290638Y-72679801D01*
X102193876Y-72776563D01*
X102097114Y-72824944D01*
D12*
X100671333Y-120880142D02*
X100623714Y-120927761D01*
X100480857Y-120975380D01*
X100385619Y-120975380D01*
X100242761Y-120927761D01*
X100147523Y-120832523D01*
X100099904Y-120737285D01*
X100052285Y-120546809D01*
X100052285Y-120403952D01*
X100099904Y-120213476D01*
X100147523Y-120118238D01*
X100242761Y-120023000D01*
X100385619Y-119975380D01*
X100480857Y-119975380D01*
X100623714Y-120023000D01*
X100671333Y-120070619D01*
X101576095Y-119975380D02*
X101099904Y-119975380D01*
X101052285Y-120451571D01*
X101099904Y-120403952D01*
X101195142Y-120356333D01*
X101433238Y-120356333D01*
X101528476Y-120403952D01*
X101576095Y-120451571D01*
X101623714Y-120546809D01*
X101623714Y-120784904D01*
X101576095Y-120880142D01*
X101528476Y-120927761D01*
X101433238Y-120975380D01*
X101195142Y-120975380D01*
X101099904Y-120927761D01*
X101052285Y-120880142D01*
X75461904Y-104338380D02*
X75461904Y-103338380D01*
X76033333Y-104338380D02*
X75604761Y-103766952D01*
X76033333Y-103338380D02*
X75461904Y-103909809D01*
X76414285Y-103433619D02*
X76461904Y-103386000D01*
X76557142Y-103338380D01*
X76795238Y-103338380D01*
X76890476Y-103386000D01*
X76938095Y-103433619D01*
X76985714Y-103528857D01*
X76985714Y-103624095D01*
X76938095Y-103766952D01*
X76366666Y-104338380D01*
X76985714Y-104338380D01*
X113307904Y-137739380D02*
X113307904Y-136739380D01*
X113546000Y-136739380D01*
X113688857Y-136787000D01*
X113784095Y-136882238D01*
X113831714Y-136977476D01*
X113879333Y-137167952D01*
X113879333Y-137310809D01*
X113831714Y-137501285D01*
X113784095Y-137596523D01*
X113688857Y-137691761D01*
X113546000Y-137739380D01*
X113307904Y-137739380D01*
X114736476Y-137072714D02*
X114736476Y-137739380D01*
X114498380Y-136691761D02*
X114260285Y-137406047D01*
X114879333Y-137406047D01*
X113307904Y-141549380D02*
X113307904Y-140549380D01*
X113546000Y-140549380D01*
X113688857Y-140597000D01*
X113784095Y-140692238D01*
X113831714Y-140787476D01*
X113879333Y-140977952D01*
X113879333Y-141120809D01*
X113831714Y-141311285D01*
X113784095Y-141406523D01*
X113688857Y-141501761D01*
X113546000Y-141549380D01*
X113307904Y-141549380D01*
X114784095Y-140549380D02*
X114307904Y-140549380D01*
X114260285Y-141025571D01*
X114307904Y-140977952D01*
X114403142Y-140930333D01*
X114641238Y-140930333D01*
X114736476Y-140977952D01*
X114784095Y-141025571D01*
X114831714Y-141120809D01*
X114831714Y-141358904D01*
X114784095Y-141454142D01*
X114736476Y-141501761D01*
X114641238Y-141549380D01*
X114403142Y-141549380D01*
X114307904Y-141501761D01*
X114260285Y-141454142D01*
X102576333Y-142089142D02*
X102528714Y-142136761D01*
X102385857Y-142184380D01*
X102290619Y-142184380D01*
X102147761Y-142136761D01*
X102052523Y-142041523D01*
X102004904Y-141946285D01*
X101957285Y-141755809D01*
X101957285Y-141612952D01*
X102004904Y-141422476D01*
X102052523Y-141327238D01*
X102147761Y-141232000D01*
X102290619Y-141184380D01*
X102385857Y-141184380D01*
X102528714Y-141232000D01*
X102576333Y-141279619D01*
X103528714Y-142184380D02*
X102957285Y-142184380D01*
X103243000Y-142184380D02*
X103243000Y-141184380D01*
X103147761Y-141327238D01*
X103052523Y-141422476D01*
X102957285Y-141470095D01*
X107368142Y-143961142D02*
X107320523Y-144008761D01*
X107177666Y-144056380D01*
X107082428Y-144056380D01*
X106939571Y-144008761D01*
X106844333Y-143913523D01*
X106796714Y-143818285D01*
X106749095Y-143627809D01*
X106749095Y-143484952D01*
X106796714Y-143294476D01*
X106844333Y-143199238D01*
X106939571Y-143104000D01*
X107082428Y-143056380D01*
X107177666Y-143056380D01*
X107320523Y-143104000D01*
X107368142Y-143151619D01*
X108320523Y-144056380D02*
X107749095Y-144056380D01*
X108034809Y-144056380D02*
X108034809Y-143056380D01*
X107939571Y-143199238D01*
X107844333Y-143294476D01*
X107749095Y-143342095D01*
X109272904Y-144056380D02*
X108701476Y-144056380D01*
X108987190Y-144056380D02*
X108987190Y-143056380D01*
X108891952Y-143199238D01*
X108796714Y-143294476D01*
X108701476Y-143342095D01*
X113307904Y-133929380D02*
X113307904Y-132929380D01*
X113546000Y-132929380D01*
X113688857Y-132977000D01*
X113784095Y-133072238D01*
X113831714Y-133167476D01*
X113879333Y-133357952D01*
X113879333Y-133500809D01*
X113831714Y-133691285D01*
X113784095Y-133786523D01*
X113688857Y-133881761D01*
X113546000Y-133929380D01*
X113307904Y-133929380D01*
X114212666Y-132929380D02*
X114831714Y-132929380D01*
X114498380Y-133310333D01*
X114641238Y-133310333D01*
X114736476Y-133357952D01*
X114784095Y-133405571D01*
X114831714Y-133500809D01*
X114831714Y-133738904D01*
X114784095Y-133834142D01*
X114736476Y-133881761D01*
X114641238Y-133929380D01*
X114355523Y-133929380D01*
X114260285Y-133881761D01*
X114212666Y-133834142D01*
X98766333Y-95705142D02*
X98718714Y-95752761D01*
X98575857Y-95800380D01*
X98480619Y-95800380D01*
X98337761Y-95752761D01*
X98242523Y-95657523D01*
X98194904Y-95562285D01*
X98147285Y-95371809D01*
X98147285Y-95228952D01*
X98194904Y-95038476D01*
X98242523Y-94943238D01*
X98337761Y-94848000D01*
X98480619Y-94800380D01*
X98575857Y-94800380D01*
X98718714Y-94848000D01*
X98766333Y-94895619D01*
X99099666Y-94800380D02*
X99766333Y-94800380D01*
X99337761Y-95800380D01*
X104608333Y-72366142D02*
X104560714Y-72413761D01*
X104417857Y-72461380D01*
X104322619Y-72461380D01*
X104179761Y-72413761D01*
X104084523Y-72318523D01*
X104036904Y-72223285D01*
X103989285Y-72032809D01*
X103989285Y-71889952D01*
X104036904Y-71699476D01*
X104084523Y-71604238D01*
X104179761Y-71509000D01*
X104322619Y-71461380D01*
X104417857Y-71461380D01*
X104560714Y-71509000D01*
X104608333Y-71556619D01*
X105465476Y-71794714D02*
X105465476Y-72461380D01*
X105227380Y-71413761D02*
X104989285Y-72128047D01*
X105608333Y-72128047D01*
X117522666Y-144994380D02*
X117522666Y-145708666D01*
X117475047Y-145851523D01*
X117379809Y-145946761D01*
X117236952Y-145994380D01*
X117141714Y-145994380D01*
X118475047Y-144994380D02*
X117998857Y-144994380D01*
X117951238Y-145470571D01*
X117998857Y-145422952D01*
X118094095Y-145375333D01*
X118332190Y-145375333D01*
X118427428Y-145422952D01*
X118475047Y-145470571D01*
X118522666Y-145565809D01*
X118522666Y-145803904D01*
X118475047Y-145899142D01*
X118427428Y-145946761D01*
X118332190Y-145994380D01*
X118094095Y-145994380D01*
X117998857Y-145946761D01*
X117951238Y-145899142D01*
X110767904Y-102179380D02*
X110767904Y-101179380D01*
X111006000Y-101179380D01*
X111148857Y-101227000D01*
X111244095Y-101322238D01*
X111291714Y-101417476D01*
X111339333Y-101607952D01*
X111339333Y-101750809D01*
X111291714Y-101941285D01*
X111244095Y-102036523D01*
X111148857Y-102131761D01*
X111006000Y-102179380D01*
X110767904Y-102179380D01*
X111672666Y-101179380D02*
X112339333Y-101179380D01*
X111910761Y-102179380D01*
X44362619Y-146539667D02*
X43648333Y-146539667D01*
X43505476Y-146492048D01*
X43410238Y-146396810D01*
X43362619Y-146253953D01*
X43362619Y-146158715D01*
X44029285Y-147444429D02*
X43362619Y-147444429D01*
X44410238Y-147206334D02*
X43695952Y-146968239D01*
X43695952Y-147587286D01*
X107656333Y-113990380D02*
X107323000Y-113514190D01*
X107084904Y-113990380D02*
X107084904Y-112990380D01*
X107465857Y-112990380D01*
X107561095Y-113038000D01*
X107608714Y-113085619D01*
X107656333Y-113180857D01*
X107656333Y-113323714D01*
X107608714Y-113418952D01*
X107561095Y-113466571D01*
X107465857Y-113514190D01*
X107084904Y-113514190D01*
X108227761Y-113418952D02*
X108132523Y-113371333D01*
X108084904Y-113323714D01*
X108037285Y-113228476D01*
X108037285Y-113180857D01*
X108084904Y-113085619D01*
X108132523Y-113038000D01*
X108227761Y-112990380D01*
X108418238Y-112990380D01*
X108513476Y-113038000D01*
X108561095Y-113085619D01*
X108608714Y-113180857D01*
X108608714Y-113228476D01*
X108561095Y-113323714D01*
X108513476Y-113371333D01*
X108418238Y-113418952D01*
X108227761Y-113418952D01*
X108132523Y-113466571D01*
X108084904Y-113514190D01*
X108037285Y-113609428D01*
X108037285Y-113799904D01*
X108084904Y-113895142D01*
X108132523Y-113942761D01*
X108227761Y-113990380D01*
X108418238Y-113990380D01*
X108513476Y-113942761D01*
X108561095Y-113895142D01*
X108608714Y-113799904D01*
X108608714Y-113609428D01*
X108561095Y-113514190D01*
X108513476Y-113466571D01*
X108418238Y-113418952D01*
X110767904Y-97226380D02*
X110767904Y-96226380D01*
X111006000Y-96226380D01*
X111148857Y-96274000D01*
X111244095Y-96369238D01*
X111291714Y-96464476D01*
X111339333Y-96654952D01*
X111339333Y-96797809D01*
X111291714Y-96988285D01*
X111244095Y-97083523D01*
X111148857Y-97178761D01*
X111006000Y-97226380D01*
X110767904Y-97226380D01*
X112196476Y-96226380D02*
X112006000Y-96226380D01*
X111910761Y-96274000D01*
X111863142Y-96321619D01*
X111767904Y-96464476D01*
X111720285Y-96654952D01*
X111720285Y-97035904D01*
X111767904Y-97131142D01*
X111815523Y-97178761D01*
X111910761Y-97226380D01*
X112101238Y-97226380D01*
X112196476Y-97178761D01*
X112244095Y-97131142D01*
X112291714Y-97035904D01*
X112291714Y-96797809D01*
X112244095Y-96702571D01*
X112196476Y-96654952D01*
X112101238Y-96607333D01*
X111910761Y-96607333D01*
X111815523Y-96654952D01*
X111767904Y-96702571D01*
X111720285Y-96797809D01*
X74425994Y-147661380D02*
X74425994Y-148470904D01*
X74473613Y-148566142D01*
X74521232Y-148613761D01*
X74616470Y-148661380D01*
X74806946Y-148661380D01*
X74902184Y-148613761D01*
X74949803Y-148566142D01*
X74997422Y-148470904D01*
X74997422Y-147661380D01*
X75997422Y-148661380D02*
X75425994Y-148661380D01*
X75711708Y-148661380D02*
X75711708Y-147661380D01*
X75616470Y-147804238D01*
X75521232Y-147899476D01*
X75425994Y-147947095D01*
X109561333Y-161869380D02*
X109228000Y-161393190D01*
X108989904Y-161869380D02*
X108989904Y-160869380D01*
X109370857Y-160869380D01*
X109466095Y-160917000D01*
X109513714Y-160964619D01*
X109561333Y-161059857D01*
X109561333Y-161202714D01*
X109513714Y-161297952D01*
X109466095Y-161345571D01*
X109370857Y-161393190D01*
X108989904Y-161393190D01*
X110513714Y-161869380D02*
X109942285Y-161869380D01*
X110228000Y-161869380D02*
X110228000Y-160869380D01*
X110132761Y-161012238D01*
X110037523Y-161107476D01*
X109942285Y-161155095D01*
X107368142Y-146976142D02*
X107320523Y-147023761D01*
X107177666Y-147071380D01*
X107082428Y-147071380D01*
X106939571Y-147023761D01*
X106844333Y-146928523D01*
X106796714Y-146833285D01*
X106749095Y-146642809D01*
X106749095Y-146499952D01*
X106796714Y-146309476D01*
X106844333Y-146214238D01*
X106939571Y-146119000D01*
X107082428Y-146071380D01*
X107177666Y-146071380D01*
X107320523Y-146119000D01*
X107368142Y-146166619D01*
X108320523Y-147071380D02*
X107749095Y-147071380D01*
X108034809Y-147071380D02*
X108034809Y-146071380D01*
X107939571Y-146214238D01*
X107844333Y-146309476D01*
X107749095Y-146357095D01*
X108939571Y-146071380D02*
X109034809Y-146071380D01*
X109130047Y-146119000D01*
X109177666Y-146166619D01*
X109225285Y-146261857D01*
X109272904Y-146452333D01*
X109272904Y-146690428D01*
X109225285Y-146880904D01*
X109177666Y-146976142D01*
X109130047Y-147023761D01*
X109034809Y-147071380D01*
X108939571Y-147071380D01*
X108844333Y-147023761D01*
X108796714Y-146976142D01*
X108749095Y-146880904D01*
X108701476Y-146690428D01*
X108701476Y-146452333D01*
X108749095Y-146261857D01*
X108796714Y-146166619D01*
X108844333Y-146119000D01*
X108939571Y-146071380D01*
X53157380Y-81922238D02*
X52681190Y-82255571D01*
X53157380Y-82493666D02*
X52157380Y-82493666D01*
X52157380Y-82112714D01*
X52205000Y-82017476D01*
X52252619Y-81969857D01*
X52347857Y-81922238D01*
X52490714Y-81922238D01*
X52585952Y-81969857D01*
X52633571Y-82017476D01*
X52681190Y-82112714D01*
X52681190Y-82493666D01*
X52157380Y-81636523D02*
X53157380Y-81303190D01*
X52157380Y-80969857D01*
X53157380Y-80112714D02*
X53157380Y-80684142D01*
X53157380Y-80398428D02*
X52157380Y-80398428D01*
X52300238Y-80493666D01*
X52395476Y-80588904D01*
X52443095Y-80684142D01*
X106616833Y-85913760D02*
X106283500Y-85437570D01*
X106045404Y-85913760D02*
X106045404Y-84913760D01*
X106426357Y-84913760D01*
X106521595Y-84961380D01*
X106569214Y-85008999D01*
X106616833Y-85104237D01*
X106616833Y-85247094D01*
X106569214Y-85342332D01*
X106521595Y-85389951D01*
X106426357Y-85437570D01*
X106045404Y-85437570D01*
X107473976Y-84913760D02*
X107283500Y-84913760D01*
X107188261Y-84961380D01*
X107140642Y-85008999D01*
X107045404Y-85151856D01*
X106997785Y-85342332D01*
X106997785Y-85723284D01*
X107045404Y-85818522D01*
X107093023Y-85866141D01*
X107188261Y-85913760D01*
X107378738Y-85913760D01*
X107473976Y-85866141D01*
X107521595Y-85818522D01*
X107569214Y-85723284D01*
X107569214Y-85485189D01*
X107521595Y-85389951D01*
X107473976Y-85342332D01*
X107378738Y-85294713D01*
X107188261Y-85294713D01*
X107093023Y-85342332D01*
X107045404Y-85389951D01*
X106997785Y-85485189D01*
X101727095Y-109238380D02*
X101727095Y-110047904D01*
X101774714Y-110143142D01*
X101822333Y-110190761D01*
X101917571Y-110238380D01*
X102108047Y-110238380D01*
X102203285Y-110190761D01*
X102250904Y-110143142D01*
X102298523Y-110047904D01*
X102298523Y-109238380D01*
X103203285Y-109571714D02*
X103203285Y-110238380D01*
X102965190Y-109190761D02*
X102727095Y-109905047D01*
X103346142Y-109905047D01*
X115784333Y-122465142D02*
X115736714Y-122512761D01*
X115593857Y-122560380D01*
X115498619Y-122560380D01*
X115355761Y-122512761D01*
X115260523Y-122417523D01*
X115212904Y-122322285D01*
X115165285Y-122131809D01*
X115165285Y-121988952D01*
X115212904Y-121798476D01*
X115260523Y-121703238D01*
X115355761Y-121608000D01*
X115498619Y-121560380D01*
X115593857Y-121560380D01*
X115736714Y-121608000D01*
X115784333Y-121655619D01*
X116641476Y-121560380D02*
X116451000Y-121560380D01*
X116355761Y-121608000D01*
X116308142Y-121655619D01*
X116212904Y-121798476D01*
X116165285Y-121988952D01*
X116165285Y-122369904D01*
X116212904Y-122465142D01*
X116260523Y-122512761D01*
X116355761Y-122560380D01*
X116546238Y-122560380D01*
X116641476Y-122512761D01*
X116689095Y-122465142D01*
X116736714Y-122369904D01*
X116736714Y-122131809D01*
X116689095Y-122036571D01*
X116641476Y-121988952D01*
X116546238Y-121941333D01*
X116355761Y-121941333D01*
X116260523Y-121988952D01*
X116212904Y-122036571D01*
X116165285Y-122131809D01*
X115784333Y-82230760D02*
X115451000Y-81754570D01*
X115212904Y-82230760D02*
X115212904Y-81230760D01*
X115593857Y-81230760D01*
X115689095Y-81278380D01*
X115736714Y-81325999D01*
X115784333Y-81421237D01*
X115784333Y-81564094D01*
X115736714Y-81659332D01*
X115689095Y-81706951D01*
X115593857Y-81754570D01*
X115212904Y-81754570D01*
X116117666Y-81230760D02*
X116784333Y-81230760D01*
X116355761Y-82230760D01*
X75461904Y-81859380D02*
X75461904Y-80859380D01*
X76033333Y-81859380D02*
X75604761Y-81287952D01*
X76033333Y-80859380D02*
X75461904Y-81430809D01*
X76985714Y-81859380D02*
X76414285Y-81859380D01*
X76700000Y-81859380D02*
X76700000Y-80859380D01*
X76604761Y-81002238D01*
X76509523Y-81097476D01*
X76414285Y-81145095D01*
X44362619Y-125965667D02*
X43648333Y-125965667D01*
X43505476Y-125918048D01*
X43410238Y-125822810D01*
X43362619Y-125679953D01*
X43362619Y-125584715D01*
X44362619Y-126346620D02*
X44362619Y-126965667D01*
X43981666Y-126632334D01*
X43981666Y-126775191D01*
X43934047Y-126870429D01*
X43886428Y-126918048D01*
X43791190Y-126965667D01*
X43553095Y-126965667D01*
X43457857Y-126918048D01*
X43410238Y-126870429D01*
X43362619Y-126775191D01*
X43362619Y-126489477D01*
X43410238Y-126394239D01*
X43457857Y-126346620D01*
X44362619Y-81007667D02*
X43648333Y-81007667D01*
X43505476Y-80960048D01*
X43410238Y-80864810D01*
X43362619Y-80721953D01*
X43362619Y-80626715D01*
X43362619Y-82007667D02*
X43362619Y-81436239D01*
X43362619Y-81721953D02*
X44362619Y-81721953D01*
X44219761Y-81626715D01*
X44124523Y-81531477D01*
X44076904Y-81436239D01*
X53284380Y-104401238D02*
X52808190Y-104734571D01*
X53284380Y-104972666D02*
X52284380Y-104972666D01*
X52284380Y-104591714D01*
X52332000Y-104496476D01*
X52379619Y-104448857D01*
X52474857Y-104401238D01*
X52617714Y-104401238D01*
X52712952Y-104448857D01*
X52760571Y-104496476D01*
X52808190Y-104591714D01*
X52808190Y-104972666D01*
X52284380Y-104115523D02*
X53284380Y-103782190D01*
X52284380Y-103448857D01*
X52379619Y-103163142D02*
X52332000Y-103115523D01*
X52284380Y-103020285D01*
X52284380Y-102782190D01*
X52332000Y-102686952D01*
X52379619Y-102639333D01*
X52474857Y-102591714D01*
X52570095Y-102591714D01*
X52712952Y-102639333D01*
X53284380Y-103210761D01*
X53284380Y-102591714D01*
X99695095Y-150455380D02*
X99695095Y-151264904D01*
X99742714Y-151360142D01*
X99790333Y-151407761D01*
X99885571Y-151455380D01*
X100076047Y-151455380D01*
X100171285Y-151407761D01*
X100218904Y-151360142D01*
X100266523Y-151264904D01*
X100266523Y-150455380D01*
X100695095Y-150550619D02*
X100742714Y-150503000D01*
X100837952Y-150455380D01*
X101076047Y-150455380D01*
X101171285Y-150503000D01*
X101218904Y-150550619D01*
X101266523Y-150645857D01*
X101266523Y-150741095D01*
X101218904Y-150883952D01*
X100647476Y-151455380D01*
X101266523Y-151455380D01*
X104989333Y-152217380D02*
X104513142Y-152217380D01*
X104513142Y-151217380D01*
X105846476Y-152217380D02*
X105275047Y-152217380D01*
X105560761Y-152217380D02*
X105560761Y-151217380D01*
X105465523Y-151360238D01*
X105370285Y-151455476D01*
X105275047Y-151503095D01*
X109688333Y-133929380D02*
X109355000Y-133453190D01*
X109116904Y-133929380D02*
X109116904Y-132929380D01*
X109497857Y-132929380D01*
X109593095Y-132977000D01*
X109640714Y-133024619D01*
X109688333Y-133119857D01*
X109688333Y-133262714D01*
X109640714Y-133357952D01*
X109593095Y-133405571D01*
X109497857Y-133453190D01*
X109116904Y-133453190D01*
X110021666Y-132929380D02*
X110640714Y-132929380D01*
X110307380Y-133310333D01*
X110450238Y-133310333D01*
X110545476Y-133357952D01*
X110593095Y-133405571D01*
X110640714Y-133500809D01*
X110640714Y-133738904D01*
X110593095Y-133834142D01*
X110545476Y-133881761D01*
X110450238Y-133929380D01*
X110164523Y-133929380D01*
X110069285Y-133881761D01*
X110021666Y-133834142D01*
X100544333Y-146534142D02*
X100496714Y-146581761D01*
X100353857Y-146629380D01*
X100258619Y-146629380D01*
X100115761Y-146581761D01*
X100020523Y-146486523D01*
X99972904Y-146391285D01*
X99925285Y-146200809D01*
X99925285Y-146057952D01*
X99972904Y-145867476D01*
X100020523Y-145772238D01*
X100115761Y-145677000D01*
X100258619Y-145629380D01*
X100353857Y-145629380D01*
X100496714Y-145677000D01*
X100544333Y-145724619D01*
X100925285Y-145724619D02*
X100972904Y-145677000D01*
X101068142Y-145629380D01*
X101306238Y-145629380D01*
X101401476Y-145677000D01*
X101449095Y-145724619D01*
X101496714Y-145819857D01*
X101496714Y-145915095D01*
X101449095Y-146057952D01*
X100877666Y-146629380D01*
X101496714Y-146629380D01*
X109434333Y-157932380D02*
X109101000Y-157456190D01*
X108862904Y-157932380D02*
X108862904Y-156932380D01*
X109243857Y-156932380D01*
X109339095Y-156980000D01*
X109386714Y-157027619D01*
X109434333Y-157122857D01*
X109434333Y-157265714D01*
X109386714Y-157360952D01*
X109339095Y-157408571D01*
X109243857Y-157456190D01*
X108862904Y-157456190D01*
X109815285Y-157027619D02*
X109862904Y-156980000D01*
X109958142Y-156932380D01*
X110196238Y-156932380D01*
X110291476Y-156980000D01*
X110339095Y-157027619D01*
X110386714Y-157122857D01*
X110386714Y-157218095D01*
X110339095Y-157360952D01*
X109767666Y-157932380D01*
X110386714Y-157932380D01*
X109688333Y-137739380D02*
X109355000Y-137263190D01*
X109116904Y-137739380D02*
X109116904Y-136739380D01*
X109497857Y-136739380D01*
X109593095Y-136787000D01*
X109640714Y-136834619D01*
X109688333Y-136929857D01*
X109688333Y-137072714D01*
X109640714Y-137167952D01*
X109593095Y-137215571D01*
X109497857Y-137263190D01*
X109116904Y-137263190D01*
X110545476Y-137072714D02*
X110545476Y-137739380D01*
X110307380Y-136691761D02*
X110069285Y-137406047D01*
X110688333Y-137406047D01*
X107529333Y-72366142D02*
X107481714Y-72413761D01*
X107338857Y-72461380D01*
X107243619Y-72461380D01*
X107100761Y-72413761D01*
X107005523Y-72318523D01*
X106957904Y-72223285D01*
X106910285Y-72032809D01*
X106910285Y-71889952D01*
X106957904Y-71699476D01*
X107005523Y-71604238D01*
X107100761Y-71509000D01*
X107243619Y-71461380D01*
X107338857Y-71461380D01*
X107481714Y-71509000D01*
X107529333Y-71556619D01*
X107862666Y-71461380D02*
X108481714Y-71461380D01*
X108148380Y-71842333D01*
X108291238Y-71842333D01*
X108386476Y-71889952D01*
X108434095Y-71937571D01*
X108481714Y-72032809D01*
X108481714Y-72270904D01*
X108434095Y-72366142D01*
X108386476Y-72413761D01*
X108291238Y-72461380D01*
X108005523Y-72461380D01*
X107910285Y-72413761D01*
X107862666Y-72366142D01*
X109688333Y-141549380D02*
X109355000Y-141073190D01*
X109116904Y-141549380D02*
X109116904Y-140549380D01*
X109497857Y-140549380D01*
X109593095Y-140597000D01*
X109640714Y-140644619D01*
X109688333Y-140739857D01*
X109688333Y-140882714D01*
X109640714Y-140977952D01*
X109593095Y-141025571D01*
X109497857Y-141073190D01*
X109116904Y-141073190D01*
X110593095Y-140549380D02*
X110116904Y-140549380D01*
X110069285Y-141025571D01*
X110116904Y-140977952D01*
X110212142Y-140930333D01*
X110450238Y-140930333D01*
X110545476Y-140977952D01*
X110593095Y-141025571D01*
X110640714Y-141120809D01*
X110640714Y-141358904D01*
X110593095Y-141454142D01*
X110545476Y-141501761D01*
X110450238Y-141549380D01*
X110212142Y-141549380D01*
X110116904Y-141501761D01*
X110069285Y-141454142D01*
X107656333Y-116689142D02*
X107608714Y-116736761D01*
X107465857Y-116784380D01*
X107370619Y-116784380D01*
X107227761Y-116736761D01*
X107132523Y-116641523D01*
X107084904Y-116546285D01*
X107037285Y-116355809D01*
X107037285Y-116212952D01*
X107084904Y-116022476D01*
X107132523Y-115927238D01*
X107227761Y-115832000D01*
X107370619Y-115784380D01*
X107465857Y-115784380D01*
X107608714Y-115832000D01*
X107656333Y-115879619D01*
X108227761Y-116212952D02*
X108132523Y-116165333D01*
X108084904Y-116117714D01*
X108037285Y-116022476D01*
X108037285Y-115974857D01*
X108084904Y-115879619D01*
X108132523Y-115832000D01*
X108227761Y-115784380D01*
X108418238Y-115784380D01*
X108513476Y-115832000D01*
X108561095Y-115879619D01*
X108608714Y-115974857D01*
X108608714Y-116022476D01*
X108561095Y-116117714D01*
X108513476Y-116165333D01*
X108418238Y-116212952D01*
X108227761Y-116212952D01*
X108132523Y-116260571D01*
X108084904Y-116308190D01*
X108037285Y-116403428D01*
X108037285Y-116593904D01*
X108084904Y-116689142D01*
X108132523Y-116736761D01*
X108227761Y-116784380D01*
X108418238Y-116784380D01*
X108513476Y-116736761D01*
X108561095Y-116689142D01*
X108608714Y-116593904D01*
X108608714Y-116403428D01*
X108561095Y-116308190D01*
X108513476Y-116260571D01*
X108418238Y-116212952D01*
X99274333Y-154789142D02*
X99226714Y-154836761D01*
X99083857Y-154884380D01*
X98988619Y-154884380D01*
X98845761Y-154836761D01*
X98750523Y-154741523D01*
X98702904Y-154646285D01*
X98655285Y-154455809D01*
X98655285Y-154312952D01*
X98702904Y-154122476D01*
X98750523Y-154027238D01*
X98845761Y-153932000D01*
X98988619Y-153884380D01*
X99083857Y-153884380D01*
X99226714Y-153932000D01*
X99274333Y-153979619D01*
X99750523Y-154884380D02*
X99941000Y-154884380D01*
X100036238Y-154836761D01*
X100083857Y-154789142D01*
X100179095Y-154646285D01*
X100226714Y-154455809D01*
X100226714Y-154074857D01*
X100179095Y-153979619D01*
X100131476Y-153932000D01*
X100036238Y-153884380D01*
X99845761Y-153884380D01*
X99750523Y-153932000D01*
X99702904Y-153979619D01*
X99655285Y-154074857D01*
X99655285Y-154312952D01*
X99702904Y-154408190D01*
X99750523Y-154455809D01*
X99845761Y-154503428D01*
X100036238Y-154503428D01*
X100131476Y-154455809D01*
X100179095Y-154408190D01*
X100226714Y-154312952D01*
X104798904Y-161869380D02*
X104798904Y-160869380D01*
X105037000Y-160869380D01*
X105179857Y-160917000D01*
X105275095Y-161012238D01*
X105322714Y-161107476D01*
X105370333Y-161297952D01*
X105370333Y-161440809D01*
X105322714Y-161631285D01*
X105275095Y-161726523D01*
X105179857Y-161821761D01*
X105037000Y-161869380D01*
X104798904Y-161869380D01*
X106322714Y-161869380D02*
X105751285Y-161869380D01*
X106037000Y-161869380D02*
X106037000Y-160869380D01*
X105941761Y-161012238D01*
X105846523Y-161107476D01*
X105751285Y-161155095D01*
X53157380Y-126880238D02*
X52681190Y-127213571D01*
X53157380Y-127451666D02*
X52157380Y-127451666D01*
X52157380Y-127070714D01*
X52205000Y-126975476D01*
X52252619Y-126927857D01*
X52347857Y-126880238D01*
X52490714Y-126880238D01*
X52585952Y-126927857D01*
X52633571Y-126975476D01*
X52681190Y-127070714D01*
X52681190Y-127451666D01*
X52157380Y-126594523D02*
X53157380Y-126261190D01*
X52157380Y-125927857D01*
X52157380Y-125689761D02*
X52157380Y-125070714D01*
X52538333Y-125404047D01*
X52538333Y-125261190D01*
X52585952Y-125165952D01*
X52633571Y-125118333D01*
X52728809Y-125070714D01*
X52966904Y-125070714D01*
X53062142Y-125118333D01*
X53109761Y-125165952D01*
X53157380Y-125261190D01*
X53157380Y-125546904D01*
X53109761Y-125642142D01*
X53062142Y-125689761D01*
D14*
X35788001Y-113467002D02*
X48542001Y-113467002D01*
X35788001Y-94172999D02*
X35788001Y-113467002D01*
X48542001Y-113467002D02*
X48542001Y-94172999D01*
X48542001Y-94172999D02*
X35788001Y-94172999D01*
X56578500Y-133997700D02*
X95821500Y-133997700D01*
X56578500Y-118732300D02*
X56578500Y-133997700D01*
X95821500Y-133997700D02*
X95821500Y-118732300D01*
X95821500Y-118732300D02*
X56578500Y-118732300D01*
D12*
X104960000Y-120298000D02*
X103535000Y-120298000D01*
X104960000Y-127323000D02*
X104960000Y-126998000D01*
X104960000Y-120073000D02*
X105285000Y-120073000D01*
X104960000Y-127323000D02*
X105285000Y-127323000D01*
X112210000Y-127323000D02*
X112210000Y-126998000D01*
X112210000Y-127323000D02*
X111885000Y-127323000D01*
X112210000Y-120073000D02*
X111885000Y-120073000D01*
X104960000Y-120073000D02*
X104960000Y-120298000D01*
X112210000Y-120073000D02*
X112210000Y-120398000D01*
D15*
X103217000Y-158298000D02*
X103217000Y-160218000D01*
X103217000Y-160218000D02*
X105902000Y-160218000D01*
X105902000Y-158298000D02*
X103217000Y-158298000D01*
D16*
X123626880Y-92849700D02*
X123626880Y-93599000D01*
X101630480Y-72999600D02*
X101630480Y-72349360D01*
X101630480Y-92849700D02*
X101630480Y-92301060D01*
X123626880Y-72999600D02*
X123626880Y-72349360D01*
X101630480Y-72349360D02*
X99131120Y-72349360D01*
X106380280Y-65999360D02*
X116377720Y-65999360D01*
X99131120Y-93599000D02*
X123626880Y-93599000D01*
X99131120Y-72349360D02*
X106380280Y-65999360D01*
X99131120Y-92849700D02*
X99131120Y-93599000D01*
X123626880Y-72349360D02*
X121127520Y-72349360D01*
X121127520Y-92849700D02*
X121127520Y-92301060D01*
X123626880Y-92849700D02*
X123626880Y-92301060D01*
X99131120Y-72349360D02*
X99131120Y-72999600D01*
X123626880Y-72349360D02*
X116377720Y-65999360D01*
X99131120Y-92849700D02*
X101630480Y-92849700D01*
X121127520Y-72349360D02*
X121127520Y-72999600D01*
X121127520Y-92849700D02*
X123626880Y-92849700D01*
X99131120Y-92301060D02*
X99131120Y-92849700D01*
D15*
X100230000Y-123451252D02*
X100230000Y-122928748D01*
X101700000Y-123451252D02*
X101700000Y-122928748D01*
D14*
X56578500Y-96253300D02*
X56578500Y-111518700D01*
X95821500Y-111518700D02*
X95821500Y-96253300D01*
X95821500Y-96253300D02*
X56578500Y-96253300D01*
X56578500Y-111518700D02*
X95821500Y-111518700D01*
D15*
X116378500Y-136469000D02*
X116378500Y-134549000D01*
X113693500Y-136469000D02*
X116378500Y-136469000D01*
X116378500Y-134549000D02*
X113693500Y-134549000D01*
X116378500Y-138359000D02*
X113693500Y-138359000D01*
X116378500Y-140279000D02*
X116378500Y-138359000D01*
X113693500Y-140279000D02*
X116378500Y-140279000D01*
X97730437Y-133750000D02*
X99016000Y-133750000D01*
X103486000Y-140570000D02*
X101136000Y-140570000D01*
X101923500Y-132722500D02*
X101923500Y-133510000D01*
X102421563Y-133750000D02*
X103486000Y-134814437D01*
X97730437Y-133750000D02*
X96666000Y-134814437D01*
X102317250Y-133116250D02*
X101529750Y-133116250D01*
X103486000Y-134814437D02*
X103486000Y-140570000D01*
X96666000Y-140570000D02*
X99016000Y-140570000D01*
X102421563Y-133750000D02*
X101136000Y-133750000D01*
X96666000Y-134814437D02*
X96666000Y-140570000D01*
X111117748Y-142902000D02*
X111640252Y-142902000D01*
X111117748Y-144372000D02*
X111640252Y-144372000D01*
X113693500Y-132659000D02*
X116378500Y-132659000D01*
X116378500Y-132659000D02*
X116378500Y-130739000D01*
X116378500Y-130739000D02*
X113693500Y-130739000D01*
X98671748Y-97763000D02*
X99194252Y-97763000D01*
X98671748Y-96293000D02*
X99194252Y-96293000D01*
X104040000Y-74287748D02*
X104040000Y-74810252D01*
X105510000Y-74287748D02*
X105510000Y-74810252D01*
X119126000Y-151257000D02*
X119126000Y-151892000D01*
X119126000Y-151892000D02*
X118491000Y-151892000D01*
X112506000Y-102672000D02*
X109821000Y-102672000D01*
X109821000Y-104592000D02*
X112506000Y-104592000D01*
X109821000Y-102672000D02*
X109821000Y-104592000D01*
D14*
X48542001Y-137225999D02*
X35788001Y-137225999D01*
X48542001Y-156520002D02*
X48542001Y-137225999D01*
X35788001Y-156520002D02*
X48542001Y-156520002D01*
X35788001Y-137225999D02*
X35788001Y-156520002D01*
D15*
X105129064Y-114273000D02*
X104674936Y-114273000D01*
X105129064Y-112803000D02*
X104674936Y-112803000D01*
X109821000Y-99639000D02*
X112506000Y-99639000D01*
X112506000Y-97719000D02*
X109821000Y-97719000D01*
X109821000Y-97719000D02*
X109821000Y-99639000D01*
D14*
X93818799Y-136080500D02*
X56556999Y-136080500D01*
X93818799Y-160337500D02*
X93818799Y-136080500D01*
X56556999Y-136080500D02*
X56556999Y-160337500D01*
X56556999Y-160337500D02*
X93818799Y-160337500D01*
D15*
X109373936Y-162460000D02*
X109828064Y-162460000D01*
X109373936Y-163930000D02*
X109828064Y-163930000D01*
X111117748Y-147387000D02*
X111640252Y-147387000D01*
X111117748Y-145917000D02*
X111640252Y-145917000D01*
D12*
X54740000Y-70577000D02*
X50440000Y-70577000D01*
X54740000Y-92077000D02*
X50440000Y-92077000D01*
X50440000Y-70577000D02*
X50440000Y-92077000D01*
X54740000Y-70577000D02*
X54740000Y-92077000D01*
D15*
X107034064Y-84291380D02*
X106579936Y-84291380D01*
X107034064Y-82821380D02*
X106579936Y-82821380D01*
X102489000Y-98826000D02*
X104439000Y-98826000D01*
X102489000Y-108946000D02*
X100539000Y-108946000D01*
X102489000Y-108946000D02*
X105939000Y-108946000D01*
X102489000Y-98826000D02*
X100539000Y-98826000D01*
X116813000Y-124975252D02*
X116813000Y-124452748D01*
X115343000Y-124975252D02*
X115343000Y-124452748D01*
X115723936Y-84291380D02*
X116178064Y-84291380D01*
X115723936Y-82821380D02*
X116178064Y-82821380D01*
D14*
X95821500Y-73774300D02*
X56578500Y-73774300D01*
X56578500Y-73774300D02*
X56578500Y-89039700D01*
X95821500Y-89039700D02*
X95821500Y-73774300D01*
X56578500Y-89039700D02*
X95821500Y-89039700D01*
X48542001Y-135946002D02*
X48542001Y-116651999D01*
X35788001Y-135946002D02*
X48542001Y-135946002D01*
X48542001Y-116651999D02*
X35788001Y-116651999D01*
X35788001Y-116651999D02*
X35788001Y-135946002D01*
X35788001Y-90988002D02*
X48542001Y-90988002D01*
X48542001Y-71693999D02*
X35788001Y-71693999D01*
X35788001Y-71693999D02*
X35788001Y-90988002D01*
X48542001Y-90988002D02*
X48542001Y-71693999D01*
D12*
X54740000Y-93056000D02*
X50440000Y-93056000D01*
X50440000Y-93056000D02*
X50440000Y-114556000D01*
X54740000Y-114556000D02*
X50440000Y-114556000D01*
X54740000Y-93056000D02*
X54740000Y-114556000D01*
D15*
X99350000Y-150876000D02*
X99350000Y-151676000D01*
X96230000Y-150876000D02*
X96230000Y-151676000D01*
X96230000Y-150876000D02*
X96230000Y-150076000D01*
X99350000Y-150876000D02*
X99350000Y-149076000D01*
X102095300Y-150816187D02*
X102095300Y-152713813D01*
X107962700Y-152713813D02*
X107962700Y-150816187D01*
X110094564Y-130964000D02*
X109640436Y-130964000D01*
X110094564Y-132434000D02*
X109640436Y-132434000D01*
X97528748Y-146912000D02*
X98051252Y-146912000D01*
X97528748Y-145442000D02*
X98051252Y-145442000D01*
X109373936Y-158523000D02*
X109828064Y-158523000D01*
X109373936Y-159993000D02*
X109828064Y-159993000D01*
X110094564Y-136244000D02*
X109640436Y-136244000D01*
X110094564Y-134774000D02*
X109640436Y-134774000D01*
X107088000Y-74287748D02*
X107088000Y-74810252D01*
X108558000Y-74287748D02*
X108558000Y-74810252D01*
X110094564Y-138584000D02*
X109640436Y-138584000D01*
X110094564Y-140054000D02*
X109640436Y-140054000D01*
X105163252Y-117067000D02*
X104640748Y-117067000D01*
X105163252Y-115597000D02*
X104640748Y-115597000D01*
X99179748Y-155348000D02*
X99702252Y-155348000D01*
X99179748Y-156818000D02*
X99702252Y-156818000D01*
X103217000Y-162235000D02*
X103217000Y-164155000D01*
X105902000Y-162235000D02*
X103217000Y-162235000D01*
X103217000Y-164155000D02*
X105902000Y-164155000D01*
D12*
X54740000Y-137035000D02*
X50440000Y-137035000D01*
X54740000Y-115535000D02*
X50440000Y-115535000D01*
X50440000Y-115535000D02*
X50440000Y-137035000D01*
X54740000Y-115535000D02*
X54740000Y-137035000D01*
M02*
