G04 #@! TF.GenerationSoftware,KiCad,Pcbnew,6.0.2+dfsg-1*
G04 #@! TF.CreationDate,2023-09-16T21:21:40-06:00*
G04 #@! TF.ProjectId,ckt-xbeeio-acsw,636b742d-7862-4656-9569-6f2d61637377,rev?*
G04 #@! TF.SameCoordinates,Original*
G04 #@! TF.FileFunction,Paste,Top*
G04 #@! TF.FilePolarity,Positive*
%FSLAX46Y46*%
G04 Gerber Fmt 4.6, Leading zero omitted, Abs format (unit mm)*
G04 Created by KiCad (PCBNEW 6.0.2+dfsg-1) date 2023-09-16 21:21:40*
%MOMM*%
%LPD*%
G01*
G04 APERTURE LIST*
%ADD10R,1.600000X0.550000*%
%ADD11R,0.550000X1.600000*%
%ADD12R,1.699260X0.848360*%
%ADD13R,5.562600X2.108200*%
G04 APERTURE END LIST*
D10*
X104335000Y-120898000D03*
X104335000Y-121698000D03*
X104335000Y-122498000D03*
X104335000Y-123298000D03*
X104335000Y-124098000D03*
X104335000Y-124898000D03*
X104335000Y-125698000D03*
X104335000Y-126498000D03*
D11*
X105785000Y-127948000D03*
X106585000Y-127948000D03*
X107385000Y-127948000D03*
X108185000Y-127948000D03*
X108985000Y-127948000D03*
X109785000Y-127948000D03*
X110585000Y-127948000D03*
X111385000Y-127948000D03*
D10*
X112835000Y-126498000D03*
X112835000Y-125698000D03*
X112835000Y-124898000D03*
X112835000Y-124098000D03*
X112835000Y-123298000D03*
X112835000Y-122498000D03*
X112835000Y-121698000D03*
X112835000Y-120898000D03*
D11*
X111385000Y-119448000D03*
X110585000Y-119448000D03*
X109785000Y-119448000D03*
X108985000Y-119448000D03*
X108185000Y-119448000D03*
X107385000Y-119448000D03*
X106585000Y-119448000D03*
X105785000Y-119448000D03*
G36*
G01*
X103477000Y-159714250D02*
X103477000Y-158801750D01*
G75*
G02*
X103720750Y-158558000I243750J0D01*
G01*
X104208250Y-158558000D01*
G75*
G02*
X104452000Y-158801750I0J-243750D01*
G01*
X104452000Y-159714250D01*
G75*
G02*
X104208250Y-159958000I-243750J0D01*
G01*
X103720750Y-159958000D01*
G75*
G02*
X103477000Y-159714250I0J243750D01*
G01*
G37*
G36*
G01*
X105352000Y-159714250D02*
X105352000Y-158801750D01*
G75*
G02*
X105595750Y-158558000I243750J0D01*
G01*
X106083250Y-158558000D01*
G75*
G02*
X106327000Y-158801750I0J-243750D01*
G01*
X106327000Y-159714250D01*
G75*
G02*
X106083250Y-159958000I-243750J0D01*
G01*
X105595750Y-159958000D01*
G75*
G02*
X105352000Y-159714250I0J243750D01*
G01*
G37*
D12*
X98879660Y-73599040D03*
X101879400Y-75600560D03*
X98879660Y-77599540D03*
X101879400Y-79601060D03*
X98879660Y-81600040D03*
X101879400Y-83599020D03*
X98879660Y-85600540D03*
X101879400Y-87599520D03*
X98879660Y-89601040D03*
X101879400Y-91600020D03*
X123878340Y-91600020D03*
X120878600Y-89601040D03*
X123878340Y-87599520D03*
X120878600Y-85600540D03*
X123878340Y-83599020D03*
X120878600Y-81600040D03*
X123878340Y-79601060D03*
X120878600Y-77599540D03*
X123878340Y-75600560D03*
X120878600Y-73599040D03*
G36*
G01*
X101440000Y-124640000D02*
X100490000Y-124640000D01*
G75*
G02*
X100240000Y-124390000I0J250000D01*
G01*
X100240000Y-123890000D01*
G75*
G02*
X100490000Y-123640000I250000J0D01*
G01*
X101440000Y-123640000D01*
G75*
G02*
X101690000Y-123890000I0J-250000D01*
G01*
X101690000Y-124390000D01*
G75*
G02*
X101440000Y-124640000I-250000J0D01*
G01*
G37*
G36*
G01*
X101440000Y-122740000D02*
X100490000Y-122740000D01*
G75*
G02*
X100240000Y-122490000I0J250000D01*
G01*
X100240000Y-121990000D01*
G75*
G02*
X100490000Y-121740000I250000J0D01*
G01*
X101440000Y-121740000D01*
G75*
G02*
X101690000Y-121990000I0J-250000D01*
G01*
X101690000Y-122490000D01*
G75*
G02*
X101440000Y-122740000I-250000J0D01*
G01*
G37*
G36*
G01*
X116118500Y-135052750D02*
X116118500Y-135965250D01*
G75*
G02*
X115874750Y-136209000I-243750J0D01*
G01*
X115387250Y-136209000D01*
G75*
G02*
X115143500Y-135965250I0J243750D01*
G01*
X115143500Y-135052750D01*
G75*
G02*
X115387250Y-134809000I243750J0D01*
G01*
X115874750Y-134809000D01*
G75*
G02*
X116118500Y-135052750I0J-243750D01*
G01*
G37*
G36*
G01*
X114243500Y-135052750D02*
X114243500Y-135965250D01*
G75*
G02*
X113999750Y-136209000I-243750J0D01*
G01*
X113512250Y-136209000D01*
G75*
G02*
X113268500Y-135965250I0J243750D01*
G01*
X113268500Y-135052750D01*
G75*
G02*
X113512250Y-134809000I243750J0D01*
G01*
X113999750Y-134809000D01*
G75*
G02*
X114243500Y-135052750I0J-243750D01*
G01*
G37*
G36*
G01*
X116118500Y-138862750D02*
X116118500Y-139775250D01*
G75*
G02*
X115874750Y-140019000I-243750J0D01*
G01*
X115387250Y-140019000D01*
G75*
G02*
X115143500Y-139775250I0J243750D01*
G01*
X115143500Y-138862750D01*
G75*
G02*
X115387250Y-138619000I243750J0D01*
G01*
X115874750Y-138619000D01*
G75*
G02*
X116118500Y-138862750I0J-243750D01*
G01*
G37*
G36*
G01*
X114243500Y-138862750D02*
X114243500Y-139775250D01*
G75*
G02*
X113999750Y-140019000I-243750J0D01*
G01*
X113512250Y-140019000D01*
G75*
G02*
X113268500Y-139775250I0J243750D01*
G01*
X113268500Y-138862750D01*
G75*
G02*
X113512250Y-138619000I243750J0D01*
G01*
X113999750Y-138619000D01*
G75*
G02*
X114243500Y-138862750I0J-243750D01*
G01*
G37*
G36*
G01*
X99526000Y-132710000D02*
X100626000Y-132710000D01*
G75*
G02*
X100876000Y-132960000I0J-250000D01*
G01*
X100876000Y-135960000D01*
G75*
G02*
X100626000Y-136210000I-250000J0D01*
G01*
X99526000Y-136210000D01*
G75*
G02*
X99276000Y-135960000I0J250000D01*
G01*
X99276000Y-132960000D01*
G75*
G02*
X99526000Y-132710000I250000J0D01*
G01*
G37*
G36*
G01*
X99526000Y-138110000D02*
X100626000Y-138110000D01*
G75*
G02*
X100876000Y-138360000I0J-250000D01*
G01*
X100876000Y-141360000D01*
G75*
G02*
X100626000Y-141610000I-250000J0D01*
G01*
X99526000Y-141610000D01*
G75*
G02*
X99276000Y-141360000I0J250000D01*
G01*
X99276000Y-138360000D01*
G75*
G02*
X99526000Y-138110000I250000J0D01*
G01*
G37*
G36*
G01*
X109929000Y-144112000D02*
X109929000Y-143162000D01*
G75*
G02*
X110179000Y-142912000I250000J0D01*
G01*
X110679000Y-142912000D01*
G75*
G02*
X110929000Y-143162000I0J-250000D01*
G01*
X110929000Y-144112000D01*
G75*
G02*
X110679000Y-144362000I-250000J0D01*
G01*
X110179000Y-144362000D01*
G75*
G02*
X109929000Y-144112000I0J250000D01*
G01*
G37*
G36*
G01*
X111829000Y-144112000D02*
X111829000Y-143162000D01*
G75*
G02*
X112079000Y-142912000I250000J0D01*
G01*
X112579000Y-142912000D01*
G75*
G02*
X112829000Y-143162000I0J-250000D01*
G01*
X112829000Y-144112000D01*
G75*
G02*
X112579000Y-144362000I-250000J0D01*
G01*
X112079000Y-144362000D01*
G75*
G02*
X111829000Y-144112000I0J250000D01*
G01*
G37*
G36*
G01*
X116118500Y-131242750D02*
X116118500Y-132155250D01*
G75*
G02*
X115874750Y-132399000I-243750J0D01*
G01*
X115387250Y-132399000D01*
G75*
G02*
X115143500Y-132155250I0J243750D01*
G01*
X115143500Y-131242750D01*
G75*
G02*
X115387250Y-130999000I243750J0D01*
G01*
X115874750Y-130999000D01*
G75*
G02*
X116118500Y-131242750I0J-243750D01*
G01*
G37*
G36*
G01*
X114243500Y-131242750D02*
X114243500Y-132155250D01*
G75*
G02*
X113999750Y-132399000I-243750J0D01*
G01*
X113512250Y-132399000D01*
G75*
G02*
X113268500Y-132155250I0J243750D01*
G01*
X113268500Y-131242750D01*
G75*
G02*
X113512250Y-130999000I243750J0D01*
G01*
X113999750Y-130999000D01*
G75*
G02*
X114243500Y-131242750I0J-243750D01*
G01*
G37*
G36*
G01*
X97483000Y-97503000D02*
X97483000Y-96553000D01*
G75*
G02*
X97733000Y-96303000I250000J0D01*
G01*
X98233000Y-96303000D01*
G75*
G02*
X98483000Y-96553000I0J-250000D01*
G01*
X98483000Y-97503000D01*
G75*
G02*
X98233000Y-97753000I-250000J0D01*
G01*
X97733000Y-97753000D01*
G75*
G02*
X97483000Y-97503000I0J250000D01*
G01*
G37*
G36*
G01*
X99383000Y-97503000D02*
X99383000Y-96553000D01*
G75*
G02*
X99633000Y-96303000I250000J0D01*
G01*
X100133000Y-96303000D01*
G75*
G02*
X100383000Y-96553000I0J-250000D01*
G01*
X100383000Y-97503000D01*
G75*
G02*
X100133000Y-97753000I-250000J0D01*
G01*
X99633000Y-97753000D01*
G75*
G02*
X99383000Y-97503000I0J250000D01*
G01*
G37*
G36*
G01*
X104300000Y-73099000D02*
X105250000Y-73099000D01*
G75*
G02*
X105500000Y-73349000I0J-250000D01*
G01*
X105500000Y-73849000D01*
G75*
G02*
X105250000Y-74099000I-250000J0D01*
G01*
X104300000Y-74099000D01*
G75*
G02*
X104050000Y-73849000I0J250000D01*
G01*
X104050000Y-73349000D01*
G75*
G02*
X104300000Y-73099000I250000J0D01*
G01*
G37*
G36*
G01*
X104300000Y-74999000D02*
X105250000Y-74999000D01*
G75*
G02*
X105500000Y-75249000I0J-250000D01*
G01*
X105500000Y-75749000D01*
G75*
G02*
X105250000Y-75999000I-250000J0D01*
G01*
X104300000Y-75999000D01*
G75*
G02*
X104050000Y-75749000I0J250000D01*
G01*
X104050000Y-75249000D01*
G75*
G02*
X104300000Y-74999000I250000J0D01*
G01*
G37*
G36*
G01*
X110081000Y-104088250D02*
X110081000Y-103175750D01*
G75*
G02*
X110324750Y-102932000I243750J0D01*
G01*
X110812250Y-102932000D01*
G75*
G02*
X111056000Y-103175750I0J-243750D01*
G01*
X111056000Y-104088250D01*
G75*
G02*
X110812250Y-104332000I-243750J0D01*
G01*
X110324750Y-104332000D01*
G75*
G02*
X110081000Y-104088250I0J243750D01*
G01*
G37*
G36*
G01*
X111956000Y-104088250D02*
X111956000Y-103175750D01*
G75*
G02*
X112199750Y-102932000I243750J0D01*
G01*
X112687250Y-102932000D01*
G75*
G02*
X112931000Y-103175750I0J-243750D01*
G01*
X112931000Y-104088250D01*
G75*
G02*
X112687250Y-104332000I-243750J0D01*
G01*
X112199750Y-104332000D01*
G75*
G02*
X111956000Y-104088250I0J243750D01*
G01*
G37*
G36*
G01*
X106327000Y-113088000D02*
X106327000Y-113988000D01*
G75*
G02*
X106077000Y-114238000I-250000J0D01*
G01*
X105552000Y-114238000D01*
G75*
G02*
X105302000Y-113988000I0J250000D01*
G01*
X105302000Y-113088000D01*
G75*
G02*
X105552000Y-112838000I250000J0D01*
G01*
X106077000Y-112838000D01*
G75*
G02*
X106327000Y-113088000I0J-250000D01*
G01*
G37*
G36*
G01*
X104502000Y-113088000D02*
X104502000Y-113988000D01*
G75*
G02*
X104252000Y-114238000I-250000J0D01*
G01*
X103727000Y-114238000D01*
G75*
G02*
X103477000Y-113988000I0J250000D01*
G01*
X103477000Y-113088000D01*
G75*
G02*
X103727000Y-112838000I250000J0D01*
G01*
X104252000Y-112838000D01*
G75*
G02*
X104502000Y-113088000I0J-250000D01*
G01*
G37*
G36*
G01*
X110081000Y-99135250D02*
X110081000Y-98222750D01*
G75*
G02*
X110324750Y-97979000I243750J0D01*
G01*
X110812250Y-97979000D01*
G75*
G02*
X111056000Y-98222750I0J-243750D01*
G01*
X111056000Y-99135250D01*
G75*
G02*
X110812250Y-99379000I-243750J0D01*
G01*
X110324750Y-99379000D01*
G75*
G02*
X110081000Y-99135250I0J243750D01*
G01*
G37*
G36*
G01*
X111956000Y-99135250D02*
X111956000Y-98222750D01*
G75*
G02*
X112199750Y-97979000I243750J0D01*
G01*
X112687250Y-97979000D01*
G75*
G02*
X112931000Y-98222750I0J-243750D01*
G01*
X112931000Y-99135250D01*
G75*
G02*
X112687250Y-99379000I-243750J0D01*
G01*
X112199750Y-99379000D01*
G75*
G02*
X111956000Y-99135250I0J243750D01*
G01*
G37*
G36*
G01*
X108176000Y-163645000D02*
X108176000Y-162745000D01*
G75*
G02*
X108426000Y-162495000I250000J0D01*
G01*
X108951000Y-162495000D01*
G75*
G02*
X109201000Y-162745000I0J-250000D01*
G01*
X109201000Y-163645000D01*
G75*
G02*
X108951000Y-163895000I-250000J0D01*
G01*
X108426000Y-163895000D01*
G75*
G02*
X108176000Y-163645000I0J250000D01*
G01*
G37*
G36*
G01*
X110001000Y-163645000D02*
X110001000Y-162745000D01*
G75*
G02*
X110251000Y-162495000I250000J0D01*
G01*
X110776000Y-162495000D01*
G75*
G02*
X111026000Y-162745000I0J-250000D01*
G01*
X111026000Y-163645000D01*
G75*
G02*
X110776000Y-163895000I-250000J0D01*
G01*
X110251000Y-163895000D01*
G75*
G02*
X110001000Y-163645000I0J250000D01*
G01*
G37*
G36*
G01*
X109929000Y-147127000D02*
X109929000Y-146177000D01*
G75*
G02*
X110179000Y-145927000I250000J0D01*
G01*
X110679000Y-145927000D01*
G75*
G02*
X110929000Y-146177000I0J-250000D01*
G01*
X110929000Y-147127000D01*
G75*
G02*
X110679000Y-147377000I-250000J0D01*
G01*
X110179000Y-147377000D01*
G75*
G02*
X109929000Y-147127000I0J250000D01*
G01*
G37*
G36*
G01*
X111829000Y-147127000D02*
X111829000Y-146177000D01*
G75*
G02*
X112079000Y-145927000I250000J0D01*
G01*
X112579000Y-145927000D01*
G75*
G02*
X112829000Y-146177000I0J-250000D01*
G01*
X112829000Y-147127000D01*
G75*
G02*
X112579000Y-147377000I-250000J0D01*
G01*
X112079000Y-147377000D01*
G75*
G02*
X111829000Y-147127000I0J250000D01*
G01*
G37*
G36*
G01*
X108232000Y-83106380D02*
X108232000Y-84006380D01*
G75*
G02*
X107982000Y-84256380I-250000J0D01*
G01*
X107457000Y-84256380D01*
G75*
G02*
X107207000Y-84006380I0J250000D01*
G01*
X107207000Y-83106380D01*
G75*
G02*
X107457000Y-82856380I250000J0D01*
G01*
X107982000Y-82856380D01*
G75*
G02*
X108232000Y-83106380I0J-250000D01*
G01*
G37*
G36*
G01*
X106407000Y-83106380D02*
X106407000Y-84006380D01*
G75*
G02*
X106157000Y-84256380I-250000J0D01*
G01*
X105632000Y-84256380D01*
G75*
G02*
X105382000Y-84006380I0J250000D01*
G01*
X105382000Y-83106380D01*
G75*
G02*
X105632000Y-82856380I250000J0D01*
G01*
X106157000Y-82856380D01*
G75*
G02*
X106407000Y-83106380I0J-250000D01*
G01*
G37*
G36*
G01*
X105939000Y-108181000D02*
X105939000Y-108481000D01*
G75*
G02*
X105789000Y-108631000I-150000J0D01*
G01*
X104339000Y-108631000D01*
G75*
G02*
X104189000Y-108481000I0J150000D01*
G01*
X104189000Y-108181000D01*
G75*
G02*
X104339000Y-108031000I150000J0D01*
G01*
X105789000Y-108031000D01*
G75*
G02*
X105939000Y-108181000I0J-150000D01*
G01*
G37*
G36*
G01*
X105939000Y-106911000D02*
X105939000Y-107211000D01*
G75*
G02*
X105789000Y-107361000I-150000J0D01*
G01*
X104339000Y-107361000D01*
G75*
G02*
X104189000Y-107211000I0J150000D01*
G01*
X104189000Y-106911000D01*
G75*
G02*
X104339000Y-106761000I150000J0D01*
G01*
X105789000Y-106761000D01*
G75*
G02*
X105939000Y-106911000I0J-150000D01*
G01*
G37*
G36*
G01*
X105939000Y-105641000D02*
X105939000Y-105941000D01*
G75*
G02*
X105789000Y-106091000I-150000J0D01*
G01*
X104339000Y-106091000D01*
G75*
G02*
X104189000Y-105941000I0J150000D01*
G01*
X104189000Y-105641000D01*
G75*
G02*
X104339000Y-105491000I150000J0D01*
G01*
X105789000Y-105491000D01*
G75*
G02*
X105939000Y-105641000I0J-150000D01*
G01*
G37*
G36*
G01*
X105939000Y-104371000D02*
X105939000Y-104671000D01*
G75*
G02*
X105789000Y-104821000I-150000J0D01*
G01*
X104339000Y-104821000D01*
G75*
G02*
X104189000Y-104671000I0J150000D01*
G01*
X104189000Y-104371000D01*
G75*
G02*
X104339000Y-104221000I150000J0D01*
G01*
X105789000Y-104221000D01*
G75*
G02*
X105939000Y-104371000I0J-150000D01*
G01*
G37*
G36*
G01*
X105939000Y-103101000D02*
X105939000Y-103401000D01*
G75*
G02*
X105789000Y-103551000I-150000J0D01*
G01*
X104339000Y-103551000D01*
G75*
G02*
X104189000Y-103401000I0J150000D01*
G01*
X104189000Y-103101000D01*
G75*
G02*
X104339000Y-102951000I150000J0D01*
G01*
X105789000Y-102951000D01*
G75*
G02*
X105939000Y-103101000I0J-150000D01*
G01*
G37*
G36*
G01*
X105939000Y-101831000D02*
X105939000Y-102131000D01*
G75*
G02*
X105789000Y-102281000I-150000J0D01*
G01*
X104339000Y-102281000D01*
G75*
G02*
X104189000Y-102131000I0J150000D01*
G01*
X104189000Y-101831000D01*
G75*
G02*
X104339000Y-101681000I150000J0D01*
G01*
X105789000Y-101681000D01*
G75*
G02*
X105939000Y-101831000I0J-150000D01*
G01*
G37*
G36*
G01*
X105939000Y-100561000D02*
X105939000Y-100861000D01*
G75*
G02*
X105789000Y-101011000I-150000J0D01*
G01*
X104339000Y-101011000D01*
G75*
G02*
X104189000Y-100861000I0J150000D01*
G01*
X104189000Y-100561000D01*
G75*
G02*
X104339000Y-100411000I150000J0D01*
G01*
X105789000Y-100411000D01*
G75*
G02*
X105939000Y-100561000I0J-150000D01*
G01*
G37*
G36*
G01*
X105939000Y-99291000D02*
X105939000Y-99591000D01*
G75*
G02*
X105789000Y-99741000I-150000J0D01*
G01*
X104339000Y-99741000D01*
G75*
G02*
X104189000Y-99591000I0J150000D01*
G01*
X104189000Y-99291000D01*
G75*
G02*
X104339000Y-99141000I150000J0D01*
G01*
X105789000Y-99141000D01*
G75*
G02*
X105939000Y-99291000I0J-150000D01*
G01*
G37*
G36*
G01*
X100789000Y-99291000D02*
X100789000Y-99591000D01*
G75*
G02*
X100639000Y-99741000I-150000J0D01*
G01*
X99189000Y-99741000D01*
G75*
G02*
X99039000Y-99591000I0J150000D01*
G01*
X99039000Y-99291000D01*
G75*
G02*
X99189000Y-99141000I150000J0D01*
G01*
X100639000Y-99141000D01*
G75*
G02*
X100789000Y-99291000I0J-150000D01*
G01*
G37*
G36*
G01*
X100789000Y-100561000D02*
X100789000Y-100861000D01*
G75*
G02*
X100639000Y-101011000I-150000J0D01*
G01*
X99189000Y-101011000D01*
G75*
G02*
X99039000Y-100861000I0J150000D01*
G01*
X99039000Y-100561000D01*
G75*
G02*
X99189000Y-100411000I150000J0D01*
G01*
X100639000Y-100411000D01*
G75*
G02*
X100789000Y-100561000I0J-150000D01*
G01*
G37*
G36*
G01*
X100789000Y-101831000D02*
X100789000Y-102131000D01*
G75*
G02*
X100639000Y-102281000I-150000J0D01*
G01*
X99189000Y-102281000D01*
G75*
G02*
X99039000Y-102131000I0J150000D01*
G01*
X99039000Y-101831000D01*
G75*
G02*
X99189000Y-101681000I150000J0D01*
G01*
X100639000Y-101681000D01*
G75*
G02*
X100789000Y-101831000I0J-150000D01*
G01*
G37*
G36*
G01*
X100789000Y-103101000D02*
X100789000Y-103401000D01*
G75*
G02*
X100639000Y-103551000I-150000J0D01*
G01*
X99189000Y-103551000D01*
G75*
G02*
X99039000Y-103401000I0J150000D01*
G01*
X99039000Y-103101000D01*
G75*
G02*
X99189000Y-102951000I150000J0D01*
G01*
X100639000Y-102951000D01*
G75*
G02*
X100789000Y-103101000I0J-150000D01*
G01*
G37*
G36*
G01*
X100789000Y-104371000D02*
X100789000Y-104671000D01*
G75*
G02*
X100639000Y-104821000I-150000J0D01*
G01*
X99189000Y-104821000D01*
G75*
G02*
X99039000Y-104671000I0J150000D01*
G01*
X99039000Y-104371000D01*
G75*
G02*
X99189000Y-104221000I150000J0D01*
G01*
X100639000Y-104221000D01*
G75*
G02*
X100789000Y-104371000I0J-150000D01*
G01*
G37*
G36*
G01*
X100789000Y-105641000D02*
X100789000Y-105941000D01*
G75*
G02*
X100639000Y-106091000I-150000J0D01*
G01*
X99189000Y-106091000D01*
G75*
G02*
X99039000Y-105941000I0J150000D01*
G01*
X99039000Y-105641000D01*
G75*
G02*
X99189000Y-105491000I150000J0D01*
G01*
X100639000Y-105491000D01*
G75*
G02*
X100789000Y-105641000I0J-150000D01*
G01*
G37*
G36*
G01*
X100789000Y-106911000D02*
X100789000Y-107211000D01*
G75*
G02*
X100639000Y-107361000I-150000J0D01*
G01*
X99189000Y-107361000D01*
G75*
G02*
X99039000Y-107211000I0J150000D01*
G01*
X99039000Y-106911000D01*
G75*
G02*
X99189000Y-106761000I150000J0D01*
G01*
X100639000Y-106761000D01*
G75*
G02*
X100789000Y-106911000I0J-150000D01*
G01*
G37*
G36*
G01*
X100789000Y-108181000D02*
X100789000Y-108481000D01*
G75*
G02*
X100639000Y-108631000I-150000J0D01*
G01*
X99189000Y-108631000D01*
G75*
G02*
X99039000Y-108481000I0J150000D01*
G01*
X99039000Y-108181000D01*
G75*
G02*
X99189000Y-108031000I150000J0D01*
G01*
X100639000Y-108031000D01*
G75*
G02*
X100789000Y-108181000I0J-150000D01*
G01*
G37*
G36*
G01*
X116553000Y-126164000D02*
X115603000Y-126164000D01*
G75*
G02*
X115353000Y-125914000I0J250000D01*
G01*
X115353000Y-125414000D01*
G75*
G02*
X115603000Y-125164000I250000J0D01*
G01*
X116553000Y-125164000D01*
G75*
G02*
X116803000Y-125414000I0J-250000D01*
G01*
X116803000Y-125914000D01*
G75*
G02*
X116553000Y-126164000I-250000J0D01*
G01*
G37*
G36*
G01*
X116553000Y-124264000D02*
X115603000Y-124264000D01*
G75*
G02*
X115353000Y-124014000I0J250000D01*
G01*
X115353000Y-123514000D01*
G75*
G02*
X115603000Y-123264000I250000J0D01*
G01*
X116553000Y-123264000D01*
G75*
G02*
X116803000Y-123514000I0J-250000D01*
G01*
X116803000Y-124014000D01*
G75*
G02*
X116553000Y-124264000I-250000J0D01*
G01*
G37*
G36*
G01*
X114526000Y-84006380D02*
X114526000Y-83106380D01*
G75*
G02*
X114776000Y-82856380I250000J0D01*
G01*
X115301000Y-82856380D01*
G75*
G02*
X115551000Y-83106380I0J-250000D01*
G01*
X115551000Y-84006380D01*
G75*
G02*
X115301000Y-84256380I-250000J0D01*
G01*
X114776000Y-84256380D01*
G75*
G02*
X114526000Y-84006380I0J250000D01*
G01*
G37*
G36*
G01*
X116351000Y-84006380D02*
X116351000Y-83106380D01*
G75*
G02*
X116601000Y-82856380I250000J0D01*
G01*
X117126000Y-82856380D01*
G75*
G02*
X117376000Y-83106380I0J-250000D01*
G01*
X117376000Y-84006380D01*
G75*
G02*
X117126000Y-84256380I-250000J0D01*
G01*
X116601000Y-84256380D01*
G75*
G02*
X116351000Y-84006380I0J250000D01*
G01*
G37*
G36*
G01*
X98590000Y-149076000D02*
X98890000Y-149076000D01*
G75*
G02*
X99040000Y-149226000I0J-150000D01*
G01*
X99040000Y-150251000D01*
G75*
G02*
X98890000Y-150401000I-150000J0D01*
G01*
X98590000Y-150401000D01*
G75*
G02*
X98440000Y-150251000I0J150000D01*
G01*
X98440000Y-149226000D01*
G75*
G02*
X98590000Y-149076000I150000J0D01*
G01*
G37*
G36*
G01*
X97640000Y-149076000D02*
X97940000Y-149076000D01*
G75*
G02*
X98090000Y-149226000I0J-150000D01*
G01*
X98090000Y-150251000D01*
G75*
G02*
X97940000Y-150401000I-150000J0D01*
G01*
X97640000Y-150401000D01*
G75*
G02*
X97490000Y-150251000I0J150000D01*
G01*
X97490000Y-149226000D01*
G75*
G02*
X97640000Y-149076000I150000J0D01*
G01*
G37*
G36*
G01*
X96690000Y-149076000D02*
X96990000Y-149076000D01*
G75*
G02*
X97140000Y-149226000I0J-150000D01*
G01*
X97140000Y-150251000D01*
G75*
G02*
X96990000Y-150401000I-150000J0D01*
G01*
X96690000Y-150401000D01*
G75*
G02*
X96540000Y-150251000I0J150000D01*
G01*
X96540000Y-149226000D01*
G75*
G02*
X96690000Y-149076000I150000J0D01*
G01*
G37*
G36*
G01*
X96690000Y-151351000D02*
X96990000Y-151351000D01*
G75*
G02*
X97140000Y-151501000I0J-150000D01*
G01*
X97140000Y-152526000D01*
G75*
G02*
X96990000Y-152676000I-150000J0D01*
G01*
X96690000Y-152676000D01*
G75*
G02*
X96540000Y-152526000I0J150000D01*
G01*
X96540000Y-151501000D01*
G75*
G02*
X96690000Y-151351000I150000J0D01*
G01*
G37*
G36*
G01*
X97640000Y-151351000D02*
X97940000Y-151351000D01*
G75*
G02*
X98090000Y-151501000I0J-150000D01*
G01*
X98090000Y-152526000D01*
G75*
G02*
X97940000Y-152676000I-150000J0D01*
G01*
X97640000Y-152676000D01*
G75*
G02*
X97490000Y-152526000I0J150000D01*
G01*
X97490000Y-151501000D01*
G75*
G02*
X97640000Y-151351000I150000J0D01*
G01*
G37*
G36*
G01*
X98590000Y-151351000D02*
X98890000Y-151351000D01*
G75*
G02*
X99040000Y-151501000I0J-150000D01*
G01*
X99040000Y-152526000D01*
G75*
G02*
X98890000Y-152676000I-150000J0D01*
G01*
X98590000Y-152676000D01*
G75*
G02*
X98440000Y-152526000I0J150000D01*
G01*
X98440000Y-151501000D01*
G75*
G02*
X98590000Y-151351000I150000J0D01*
G01*
G37*
D13*
X105029000Y-154063700D03*
X105029000Y-149466300D03*
G36*
G01*
X111292500Y-131249000D02*
X111292500Y-132149000D01*
G75*
G02*
X111042500Y-132399000I-250000J0D01*
G01*
X110517500Y-132399000D01*
G75*
G02*
X110267500Y-132149000I0J250000D01*
G01*
X110267500Y-131249000D01*
G75*
G02*
X110517500Y-130999000I250000J0D01*
G01*
X111042500Y-130999000D01*
G75*
G02*
X111292500Y-131249000I0J-250000D01*
G01*
G37*
G36*
G01*
X109467500Y-131249000D02*
X109467500Y-132149000D01*
G75*
G02*
X109217500Y-132399000I-250000J0D01*
G01*
X108692500Y-132399000D01*
G75*
G02*
X108442500Y-132149000I0J250000D01*
G01*
X108442500Y-131249000D01*
G75*
G02*
X108692500Y-130999000I250000J0D01*
G01*
X109217500Y-130999000D01*
G75*
G02*
X109467500Y-131249000I0J-250000D01*
G01*
G37*
G36*
G01*
X96340000Y-146652000D02*
X96340000Y-145702000D01*
G75*
G02*
X96590000Y-145452000I250000J0D01*
G01*
X97090000Y-145452000D01*
G75*
G02*
X97340000Y-145702000I0J-250000D01*
G01*
X97340000Y-146652000D01*
G75*
G02*
X97090000Y-146902000I-250000J0D01*
G01*
X96590000Y-146902000D01*
G75*
G02*
X96340000Y-146652000I0J250000D01*
G01*
G37*
G36*
G01*
X98240000Y-146652000D02*
X98240000Y-145702000D01*
G75*
G02*
X98490000Y-145452000I250000J0D01*
G01*
X98990000Y-145452000D01*
G75*
G02*
X99240000Y-145702000I0J-250000D01*
G01*
X99240000Y-146652000D01*
G75*
G02*
X98990000Y-146902000I-250000J0D01*
G01*
X98490000Y-146902000D01*
G75*
G02*
X98240000Y-146652000I0J250000D01*
G01*
G37*
G36*
G01*
X108176000Y-159708000D02*
X108176000Y-158808000D01*
G75*
G02*
X108426000Y-158558000I250000J0D01*
G01*
X108951000Y-158558000D01*
G75*
G02*
X109201000Y-158808000I0J-250000D01*
G01*
X109201000Y-159708000D01*
G75*
G02*
X108951000Y-159958000I-250000J0D01*
G01*
X108426000Y-159958000D01*
G75*
G02*
X108176000Y-159708000I0J250000D01*
G01*
G37*
G36*
G01*
X110001000Y-159708000D02*
X110001000Y-158808000D01*
G75*
G02*
X110251000Y-158558000I250000J0D01*
G01*
X110776000Y-158558000D01*
G75*
G02*
X111026000Y-158808000I0J-250000D01*
G01*
X111026000Y-159708000D01*
G75*
G02*
X110776000Y-159958000I-250000J0D01*
G01*
X110251000Y-159958000D01*
G75*
G02*
X110001000Y-159708000I0J250000D01*
G01*
G37*
G36*
G01*
X111292500Y-135059000D02*
X111292500Y-135959000D01*
G75*
G02*
X111042500Y-136209000I-250000J0D01*
G01*
X110517500Y-136209000D01*
G75*
G02*
X110267500Y-135959000I0J250000D01*
G01*
X110267500Y-135059000D01*
G75*
G02*
X110517500Y-134809000I250000J0D01*
G01*
X111042500Y-134809000D01*
G75*
G02*
X111292500Y-135059000I0J-250000D01*
G01*
G37*
G36*
G01*
X109467500Y-135059000D02*
X109467500Y-135959000D01*
G75*
G02*
X109217500Y-136209000I-250000J0D01*
G01*
X108692500Y-136209000D01*
G75*
G02*
X108442500Y-135959000I0J250000D01*
G01*
X108442500Y-135059000D01*
G75*
G02*
X108692500Y-134809000I250000J0D01*
G01*
X109217500Y-134809000D01*
G75*
G02*
X109467500Y-135059000I0J-250000D01*
G01*
G37*
G36*
G01*
X107348000Y-73099000D02*
X108298000Y-73099000D01*
G75*
G02*
X108548000Y-73349000I0J-250000D01*
G01*
X108548000Y-73849000D01*
G75*
G02*
X108298000Y-74099000I-250000J0D01*
G01*
X107348000Y-74099000D01*
G75*
G02*
X107098000Y-73849000I0J250000D01*
G01*
X107098000Y-73349000D01*
G75*
G02*
X107348000Y-73099000I250000J0D01*
G01*
G37*
G36*
G01*
X107348000Y-74999000D02*
X108298000Y-74999000D01*
G75*
G02*
X108548000Y-75249000I0J-250000D01*
G01*
X108548000Y-75749000D01*
G75*
G02*
X108298000Y-75999000I-250000J0D01*
G01*
X107348000Y-75999000D01*
G75*
G02*
X107098000Y-75749000I0J250000D01*
G01*
X107098000Y-75249000D01*
G75*
G02*
X107348000Y-74999000I250000J0D01*
G01*
G37*
G36*
G01*
X111292500Y-138869000D02*
X111292500Y-139769000D01*
G75*
G02*
X111042500Y-140019000I-250000J0D01*
G01*
X110517500Y-140019000D01*
G75*
G02*
X110267500Y-139769000I0J250000D01*
G01*
X110267500Y-138869000D01*
G75*
G02*
X110517500Y-138619000I250000J0D01*
G01*
X111042500Y-138619000D01*
G75*
G02*
X111292500Y-138869000I0J-250000D01*
G01*
G37*
G36*
G01*
X109467500Y-138869000D02*
X109467500Y-139769000D01*
G75*
G02*
X109217500Y-140019000I-250000J0D01*
G01*
X108692500Y-140019000D01*
G75*
G02*
X108442500Y-139769000I0J250000D01*
G01*
X108442500Y-138869000D01*
G75*
G02*
X108692500Y-138619000I250000J0D01*
G01*
X109217500Y-138619000D01*
G75*
G02*
X109467500Y-138869000I0J-250000D01*
G01*
G37*
G36*
G01*
X106352000Y-115857000D02*
X106352000Y-116807000D01*
G75*
G02*
X106102000Y-117057000I-250000J0D01*
G01*
X105602000Y-117057000D01*
G75*
G02*
X105352000Y-116807000I0J250000D01*
G01*
X105352000Y-115857000D01*
G75*
G02*
X105602000Y-115607000I250000J0D01*
G01*
X106102000Y-115607000D01*
G75*
G02*
X106352000Y-115857000I0J-250000D01*
G01*
G37*
G36*
G01*
X104452000Y-115857000D02*
X104452000Y-116807000D01*
G75*
G02*
X104202000Y-117057000I-250000J0D01*
G01*
X103702000Y-117057000D01*
G75*
G02*
X103452000Y-116807000I0J250000D01*
G01*
X103452000Y-115857000D01*
G75*
G02*
X103702000Y-115607000I250000J0D01*
G01*
X104202000Y-115607000D01*
G75*
G02*
X104452000Y-115857000I0J-250000D01*
G01*
G37*
G36*
G01*
X97991000Y-156558000D02*
X97991000Y-155608000D01*
G75*
G02*
X98241000Y-155358000I250000J0D01*
G01*
X98741000Y-155358000D01*
G75*
G02*
X98991000Y-155608000I0J-250000D01*
G01*
X98991000Y-156558000D01*
G75*
G02*
X98741000Y-156808000I-250000J0D01*
G01*
X98241000Y-156808000D01*
G75*
G02*
X97991000Y-156558000I0J250000D01*
G01*
G37*
G36*
G01*
X99891000Y-156558000D02*
X99891000Y-155608000D01*
G75*
G02*
X100141000Y-155358000I250000J0D01*
G01*
X100641000Y-155358000D01*
G75*
G02*
X100891000Y-155608000I0J-250000D01*
G01*
X100891000Y-156558000D01*
G75*
G02*
X100641000Y-156808000I-250000J0D01*
G01*
X100141000Y-156808000D01*
G75*
G02*
X99891000Y-156558000I0J250000D01*
G01*
G37*
G36*
G01*
X103477000Y-163651250D02*
X103477000Y-162738750D01*
G75*
G02*
X103720750Y-162495000I243750J0D01*
G01*
X104208250Y-162495000D01*
G75*
G02*
X104452000Y-162738750I0J-243750D01*
G01*
X104452000Y-163651250D01*
G75*
G02*
X104208250Y-163895000I-243750J0D01*
G01*
X103720750Y-163895000D01*
G75*
G02*
X103477000Y-163651250I0J243750D01*
G01*
G37*
G36*
G01*
X105352000Y-163651250D02*
X105352000Y-162738750D01*
G75*
G02*
X105595750Y-162495000I243750J0D01*
G01*
X106083250Y-162495000D01*
G75*
G02*
X106327000Y-162738750I0J-243750D01*
G01*
X106327000Y-163651250D01*
G75*
G02*
X106083250Y-163895000I-243750J0D01*
G01*
X105595750Y-163895000D01*
G75*
G02*
X105352000Y-163651250I0J243750D01*
G01*
G37*
M02*
