G04 #@! TF.GenerationSoftware,KiCad,Pcbnew,6.0.2+dfsg-1*
G04 #@! TF.CreationDate,2023-09-16T21:21:40-06:00*
G04 #@! TF.ProjectId,ckt-xbeeio-acsw,636b742d-7862-4656-9569-6f2d61637377,rev?*
G04 #@! TF.SameCoordinates,Original*
G04 #@! TF.FileFunction,Copper,L2,Bot*
G04 #@! TF.FilePolarity,Positive*
%FSLAX46Y46*%
G04 Gerber Fmt 4.6, Leading zero omitted, Abs format (unit mm)*
G04 Created by KiCad (PCBNEW 6.0.2+dfsg-1) date 2023-09-16 21:21:40*
%MOMM*%
%LPD*%
G01*
G04 APERTURE LIST*
G04 #@! TA.AperFunction,ComponentPad*
%ADD10C,1.803400*%
G04 #@! TD*
G04 #@! TA.AperFunction,ComponentPad*
%ADD11C,2.000000*%
G04 #@! TD*
G04 #@! TA.AperFunction,ComponentPad*
%ADD12C,4.000000*%
G04 #@! TD*
G04 #@! TA.AperFunction,ComponentPad*
%ADD13C,6.400000*%
G04 #@! TD*
G04 #@! TA.AperFunction,ComponentPad*
%ADD14C,1.473200*%
G04 #@! TD*
G04 #@! TA.AperFunction,ViaPad*
%ADD15C,0.787400*%
G04 #@! TD*
G04 #@! TA.AperFunction,Conductor*
%ADD16C,6.350000*%
G04 #@! TD*
G04 #@! TA.AperFunction,Conductor*
%ADD17C,0.254000*%
G04 #@! TD*
G04 #@! TA.AperFunction,Conductor*
%ADD18C,1.270000*%
G04 #@! TD*
G04 APERTURE END LIST*
D10*
X43815000Y-99060000D03*
X43815000Y-108580001D03*
D11*
X93844998Y-121365000D03*
X93844998Y-131365000D03*
D12*
X66344998Y-130115000D03*
X59594998Y-122615000D03*
D11*
X93844998Y-126365000D03*
X93844998Y-98886000D03*
X93844998Y-108886000D03*
D12*
X66344998Y-107636000D03*
X59594998Y-100136000D03*
D11*
X93844998Y-103886000D03*
D10*
X43815000Y-142113000D03*
X43815000Y-151633001D03*
D13*
X36068000Y-66802000D03*
D14*
X59944000Y-157099000D03*
X65024000Y-157099000D03*
X90424000Y-157099000D03*
X90424000Y-139319000D03*
X85344000Y-139319000D03*
D11*
X53340000Y-76327000D03*
X51840000Y-86327000D03*
X93844998Y-76407000D03*
X93844998Y-86407000D03*
D12*
X66344998Y-85157000D03*
X59594998Y-77657000D03*
D11*
X93844998Y-81407000D03*
D10*
X43815000Y-121539000D03*
X43815000Y-131059001D03*
X43815000Y-76581000D03*
X43815000Y-86101001D03*
D11*
X53340000Y-98806000D03*
X51840000Y-108806000D03*
D13*
X122682000Y-161036000D03*
X36068000Y-161036000D03*
D11*
X53340000Y-121285000D03*
X51840000Y-131285000D03*
D13*
X122682000Y-66802000D03*
D15*
X106807000Y-98171000D03*
X102616000Y-122428000D03*
X104775000Y-98171000D03*
X96647000Y-140208000D03*
X112329000Y-148209000D03*
X104521000Y-92583000D03*
X112329000Y-145161000D03*
X96647000Y-153670000D03*
X97790000Y-140208000D03*
X100076000Y-142621000D03*
X96647000Y-154686000D03*
X96647000Y-155702000D03*
X113472000Y-142113000D03*
X102616000Y-116332000D03*
X100076000Y-144653000D03*
X97790000Y-142240000D03*
X97790000Y-141224000D03*
X105791000Y-98171000D03*
X106299000Y-76835000D03*
X106299000Y-75565000D03*
X96647000Y-142240000D03*
X104521000Y-90551000D03*
X104521000Y-91567000D03*
X113472000Y-145161000D03*
X98933000Y-142621000D03*
X107823000Y-76835000D03*
X96647000Y-139192000D03*
X104775000Y-76835000D03*
X96647000Y-138176000D03*
X114681000Y-124206000D03*
X103505000Y-92583000D03*
X102616000Y-124206000D03*
X115631000Y-133555500D03*
X101219000Y-96520000D03*
X112329000Y-142113000D03*
X103505000Y-91567000D03*
X113472000Y-148209000D03*
X96647000Y-141224000D03*
X106807000Y-100203000D03*
X103964500Y-161211500D03*
X103505000Y-90551000D03*
X101219000Y-97536000D03*
X97790000Y-138176000D03*
X115316000Y-148717000D03*
X97790000Y-139192000D03*
X100076000Y-143637000D03*
X115631000Y-137365500D03*
X98933000Y-143637000D03*
X114681000Y-123171000D03*
X98933000Y-144653000D03*
X110568511Y-100535511D03*
X106807000Y-99187000D03*
X99364800Y-75996800D03*
X98044000Y-129540000D03*
X97078800Y-74930000D03*
X97078800Y-75996800D03*
X98044000Y-130683000D03*
X96774000Y-130683000D03*
X99314000Y-129540000D03*
X98247200Y-74930000D03*
X99314000Y-128397000D03*
X97078800Y-73914000D03*
X99364800Y-74930000D03*
X97078800Y-72898000D03*
X98247200Y-75996800D03*
X99314000Y-130683000D03*
X121666000Y-149987000D03*
X119888000Y-149987000D03*
X108077000Y-129540000D03*
X121539000Y-129540000D03*
X120396000Y-129540000D03*
X108966000Y-130175000D03*
X119253000Y-129540000D03*
X109855000Y-129540000D03*
X119888000Y-148717000D03*
X115189000Y-117729000D03*
X108185000Y-117748000D03*
X122555000Y-148717000D03*
D16*
X58518998Y-76581000D02*
X59594998Y-77657000D01*
X43815000Y-76581000D02*
X58518998Y-76581000D01*
X65400997Y-86101001D02*
X66344998Y-85157000D01*
X43815000Y-86101001D02*
X65400997Y-86101001D01*
X58518998Y-99060000D02*
X59594998Y-100136000D01*
X43815000Y-99060000D02*
X58518998Y-99060000D01*
X43815000Y-108580001D02*
X65400997Y-108580001D01*
X65400997Y-108580001D02*
X66344998Y-107636000D01*
X58518998Y-121539000D02*
X59594998Y-122615000D01*
X43815000Y-121539000D02*
X58518998Y-121539000D01*
X43815000Y-131059001D02*
X65400997Y-131059001D01*
X65400997Y-131059001D02*
X66344998Y-130115000D01*
D17*
X119888000Y-149987000D02*
X121666000Y-149987000D01*
X108585000Y-130937000D02*
X108077000Y-130429000D01*
X121539000Y-129540000D02*
X120269000Y-130810000D01*
X109601000Y-130810000D02*
X109474000Y-130937000D01*
X108077000Y-130429000D02*
X108077000Y-129540000D01*
X109474000Y-130937000D02*
X108585000Y-130937000D01*
X120269000Y-130810000D02*
X109601000Y-130810000D01*
X119634000Y-130302000D02*
X120396000Y-129540000D01*
X108966000Y-130175000D02*
X109474000Y-130175000D01*
X109601000Y-130302000D02*
X119634000Y-130302000D01*
X109474000Y-130175000D02*
X109601000Y-130302000D01*
X109855000Y-129540000D02*
X119253000Y-129540000D01*
D18*
X43815000Y-142113000D02*
X55880000Y-142113000D01*
X65024000Y-151257000D02*
X65024000Y-157099000D01*
X55880000Y-142113000D02*
X65024000Y-151257000D01*
X43815000Y-151633001D02*
X54478001Y-151633001D01*
X54478001Y-151633001D02*
X59944000Y-157099000D01*
D17*
X115189000Y-117729000D02*
X108204000Y-117729000D01*
X119888000Y-148717000D02*
X122555000Y-148717000D01*
X108204000Y-117729000D02*
X108185000Y-117748000D01*
G04 #@! TA.AperFunction,Conductor*
G36*
X100018121Y-72359202D02*
G01*
X100064614Y-72412858D01*
X100076000Y-72465200D01*
X100076000Y-131192000D01*
X100055998Y-131260121D01*
X100002342Y-131306614D01*
X99950000Y-131318000D01*
X96239600Y-131318000D01*
X96171479Y-131297998D01*
X96124986Y-131244342D01*
X96113600Y-131192000D01*
X96113600Y-72465200D01*
X96133602Y-72397079D01*
X96187258Y-72350586D01*
X96239600Y-72339200D01*
X99950000Y-72339200D01*
X100018121Y-72359202D01*
G37*
G04 #@! TD.AperFunction*
G04 #@! TA.AperFunction,Conductor*
G36*
X126434121Y-74823002D02*
G01*
X126480614Y-74876658D01*
X126492000Y-74929000D01*
X126492000Y-159969505D01*
X126471998Y-160037626D01*
X126418342Y-160084119D01*
X126348068Y-160094223D01*
X126283488Y-160064729D01*
X126244293Y-160002116D01*
X126214688Y-159891630D01*
X126213833Y-159888438D01*
X126074532Y-159525547D01*
X125898062Y-159179206D01*
X125686357Y-158853207D01*
X125441734Y-158551124D01*
X125166876Y-158276266D01*
X124864793Y-158031643D01*
X124862029Y-158029848D01*
X124541564Y-157821736D01*
X124541561Y-157821734D01*
X124538795Y-157819938D01*
X124535861Y-157818443D01*
X124535854Y-157818439D01*
X124195393Y-157644966D01*
X124192453Y-157643468D01*
X123829562Y-157504167D01*
X123454099Y-157403562D01*
X123250207Y-157371268D01*
X123073424Y-157343268D01*
X123073416Y-157343267D01*
X123070176Y-157342754D01*
X122682000Y-157322411D01*
X122293824Y-157342754D01*
X122290584Y-157343267D01*
X122290576Y-157343268D01*
X122113793Y-157371268D01*
X121909901Y-157403562D01*
X121534438Y-157504167D01*
X121171547Y-157643468D01*
X121168607Y-157644966D01*
X120828147Y-157818439D01*
X120828140Y-157818443D01*
X120825206Y-157819938D01*
X120499207Y-158031643D01*
X120197124Y-158276266D01*
X119922266Y-158551124D01*
X119677643Y-158853207D01*
X119465938Y-159179206D01*
X119289468Y-159525547D01*
X119150167Y-159888438D01*
X119049562Y-160263901D01*
X118988754Y-160647824D01*
X118968411Y-161036000D01*
X118988754Y-161424176D01*
X119049562Y-161808099D01*
X119150167Y-162183562D01*
X119289468Y-162546453D01*
X119465938Y-162892794D01*
X119677643Y-163218793D01*
X119922266Y-163520876D01*
X120197124Y-163795734D01*
X120499207Y-164040357D01*
X120825205Y-164252062D01*
X120828139Y-164253557D01*
X120828146Y-164253561D01*
X121168607Y-164427034D01*
X121171547Y-164428532D01*
X121534438Y-164567833D01*
X121625880Y-164592335D01*
X121648116Y-164598293D01*
X121708739Y-164635245D01*
X121739760Y-164699105D01*
X121731332Y-164769600D01*
X121686129Y-164824347D01*
X121615505Y-164846000D01*
X96138000Y-164846000D01*
X96069879Y-164825998D01*
X96023386Y-164772342D01*
X96012000Y-164720000D01*
X96012000Y-152576288D01*
X116848228Y-152576288D01*
X116878722Y-152777922D01*
X116949137Y-152969306D01*
X117056598Y-153142622D01*
X117196714Y-153290791D01*
X117201944Y-153294453D01*
X117201945Y-153294454D01*
X117358528Y-153404094D01*
X117363761Y-153407758D01*
X117550916Y-153488747D01*
X117557164Y-153490052D01*
X117557163Y-153490052D01*
X117745788Y-153529459D01*
X117745792Y-153529459D01*
X117750533Y-153530450D01*
X117755370Y-153530703D01*
X117755374Y-153530704D01*
X117755440Y-153530707D01*
X117757212Y-153530800D01*
X117906967Y-153530800D01*
X117979613Y-153523421D01*
X118052534Y-153516014D01*
X118052535Y-153516014D01*
X118058883Y-153515369D01*
X118253478Y-153454386D01*
X118431837Y-153355521D01*
X118586673Y-153222810D01*
X118711661Y-153061676D01*
X118801696Y-152878701D01*
X118803306Y-152872521D01*
X118851490Y-152687541D01*
X118851490Y-152687538D01*
X118853100Y-152681359D01*
X118863772Y-152477712D01*
X118833278Y-152276078D01*
X118762863Y-152084694D01*
X118655402Y-151911378D01*
X118515286Y-151763209D01*
X118418425Y-151695386D01*
X118353472Y-151649906D01*
X118353471Y-151649905D01*
X118348239Y-151646242D01*
X118161084Y-151565253D01*
X118110627Y-151554712D01*
X117966212Y-151524541D01*
X117966208Y-151524541D01*
X117961467Y-151523550D01*
X117956630Y-151523297D01*
X117956626Y-151523296D01*
X117956560Y-151523293D01*
X117954788Y-151523200D01*
X117805033Y-151523200D01*
X117732387Y-151530579D01*
X117659466Y-151537986D01*
X117659465Y-151537986D01*
X117653117Y-151538631D01*
X117458522Y-151599614D01*
X117280163Y-151698479D01*
X117125327Y-151831190D01*
X117000339Y-151992324D01*
X116910304Y-152175299D01*
X116908695Y-152181477D01*
X116908694Y-152181479D01*
X116885615Y-152270082D01*
X116858900Y-152372641D01*
X116848228Y-152576288D01*
X96012000Y-152576288D01*
X96012000Y-147496288D01*
X115832228Y-147496288D01*
X115862722Y-147697922D01*
X115864928Y-147703917D01*
X115864928Y-147703918D01*
X115921220Y-147856915D01*
X115933137Y-147889306D01*
X116011338Y-148015430D01*
X116032238Y-148049138D01*
X116040598Y-148062622D01*
X116180714Y-148210791D01*
X116185944Y-148214453D01*
X116185945Y-148214454D01*
X116342528Y-148324094D01*
X116347761Y-148327758D01*
X116534916Y-148408747D01*
X116541164Y-148410052D01*
X116541163Y-148410052D01*
X116729788Y-148449459D01*
X116729792Y-148449459D01*
X116734533Y-148450450D01*
X116739370Y-148450703D01*
X116739374Y-148450704D01*
X116739440Y-148450707D01*
X116741212Y-148450800D01*
X116890967Y-148450800D01*
X116997380Y-148439991D01*
X117036534Y-148436014D01*
X117036535Y-148436014D01*
X117042883Y-148435369D01*
X117237478Y-148374386D01*
X117415837Y-148275521D01*
X117570673Y-148142810D01*
X117695661Y-147981676D01*
X117698474Y-147975959D01*
X117698481Y-147975948D01*
X117740427Y-147890702D01*
X117788449Y-147838411D01*
X117857119Y-147820385D01*
X117924634Y-147842345D01*
X117965105Y-147889218D01*
X117965137Y-147889306D01*
X117968504Y-147894736D01*
X118064238Y-148049138D01*
X118072598Y-148062622D01*
X118212714Y-148210791D01*
X118217944Y-148214453D01*
X118217945Y-148214454D01*
X118374528Y-148324094D01*
X118379761Y-148327758D01*
X118566916Y-148408747D01*
X118573164Y-148410052D01*
X118573163Y-148410052D01*
X118761788Y-148449459D01*
X118761792Y-148449459D01*
X118766533Y-148450450D01*
X118771370Y-148450703D01*
X118771374Y-148450704D01*
X118771440Y-148450707D01*
X118773212Y-148450800D01*
X118868871Y-148450800D01*
X118936992Y-148470802D01*
X118983485Y-148524458D01*
X118994181Y-148589970D01*
X118981520Y-148710434D01*
X118980830Y-148717000D01*
X119000654Y-148905611D01*
X119059259Y-149085979D01*
X119154084Y-149250221D01*
X119169815Y-149267692D01*
X119200531Y-149331698D01*
X119191766Y-149402151D01*
X119169816Y-149436307D01*
X119154084Y-149453779D01*
X119059259Y-149618021D01*
X119000654Y-149798389D01*
X118980830Y-149987000D01*
X119000654Y-150175611D01*
X119059259Y-150355979D01*
X119154084Y-150520221D01*
X119280985Y-150661159D01*
X119286327Y-150665040D01*
X119286329Y-150665042D01*
X119429073Y-150768751D01*
X119434415Y-150772632D01*
X119440443Y-150775316D01*
X119440445Y-150775317D01*
X119601638Y-150847085D01*
X119607669Y-150849770D01*
X119700422Y-150869485D01*
X119786718Y-150887828D01*
X119786722Y-150887828D01*
X119793175Y-150889200D01*
X119982825Y-150889200D01*
X119989278Y-150887828D01*
X119989282Y-150887828D01*
X120075578Y-150869485D01*
X120168331Y-150849770D01*
X120174362Y-150847085D01*
X120335555Y-150775317D01*
X120335557Y-150775316D01*
X120341585Y-150772632D01*
X120346927Y-150768751D01*
X120489671Y-150665042D01*
X120489673Y-150665040D01*
X120495015Y-150661159D01*
X120499434Y-150656252D01*
X120500977Y-150654862D01*
X120564985Y-150624146D01*
X120585286Y-150622500D01*
X120968714Y-150622500D01*
X121036835Y-150642502D01*
X121053023Y-150654862D01*
X121054566Y-150656252D01*
X121058985Y-150661159D01*
X121064327Y-150665040D01*
X121064329Y-150665042D01*
X121207073Y-150768751D01*
X121212415Y-150772632D01*
X121218443Y-150775316D01*
X121218445Y-150775317D01*
X121379638Y-150847085D01*
X121385669Y-150849770D01*
X121478422Y-150869485D01*
X121564718Y-150887828D01*
X121564722Y-150887828D01*
X121571175Y-150889200D01*
X121760825Y-150889200D01*
X121767278Y-150887828D01*
X121767282Y-150887828D01*
X121853578Y-150869485D01*
X121946331Y-150849770D01*
X121952362Y-150847085D01*
X122113555Y-150775317D01*
X122113557Y-150775316D01*
X122119585Y-150772632D01*
X122124927Y-150768751D01*
X122267671Y-150665042D01*
X122267673Y-150665040D01*
X122273015Y-150661159D01*
X122399916Y-150520221D01*
X122494741Y-150355979D01*
X122553346Y-150175611D01*
X122573170Y-149987000D01*
X122553346Y-149798389D01*
X122548096Y-149782230D01*
X122546070Y-149711263D01*
X122582734Y-149650466D01*
X122646329Y-149619200D01*
X122649825Y-149619200D01*
X122835331Y-149579770D01*
X122841362Y-149577085D01*
X123002555Y-149505317D01*
X123002557Y-149505316D01*
X123008585Y-149502632D01*
X123013927Y-149498751D01*
X123156671Y-149395042D01*
X123156673Y-149395040D01*
X123162015Y-149391159D01*
X123288916Y-149250221D01*
X123383741Y-149085979D01*
X123442346Y-148905611D01*
X123462170Y-148717000D01*
X123461480Y-148710434D01*
X123443036Y-148534953D01*
X123443036Y-148534952D01*
X123442346Y-148528389D01*
X123383741Y-148348021D01*
X123288916Y-148183779D01*
X123252028Y-148142810D01*
X123166437Y-148047752D01*
X123166436Y-148047751D01*
X123162015Y-148042841D01*
X123156673Y-148038960D01*
X123156671Y-148038958D01*
X123013927Y-147935249D01*
X123013926Y-147935248D01*
X123008585Y-147931368D01*
X123002557Y-147928684D01*
X123002555Y-147928683D01*
X122841362Y-147856915D01*
X122841360Y-147856914D01*
X122835331Y-147854230D01*
X122742578Y-147834515D01*
X122656282Y-147816172D01*
X122656278Y-147816172D01*
X122649825Y-147814800D01*
X122460175Y-147814800D01*
X122453722Y-147816172D01*
X122453718Y-147816172D01*
X122367422Y-147834515D01*
X122274669Y-147854230D01*
X122268640Y-147856914D01*
X122268638Y-147856915D01*
X122107445Y-147928683D01*
X122107443Y-147928684D01*
X122101415Y-147931368D01*
X122096074Y-147935248D01*
X122096073Y-147935249D01*
X121953329Y-148038958D01*
X121953327Y-148038960D01*
X121947985Y-148042841D01*
X121943566Y-148047748D01*
X121942023Y-148049138D01*
X121878015Y-148079854D01*
X121857714Y-148081500D01*
X120585286Y-148081500D01*
X120517165Y-148061498D01*
X120500977Y-148049138D01*
X120499434Y-148047748D01*
X120495015Y-148042841D01*
X120489673Y-148038960D01*
X120489671Y-148038958D01*
X120346927Y-147935249D01*
X120346926Y-147935248D01*
X120341585Y-147931368D01*
X120335557Y-147928684D01*
X120335555Y-147928683D01*
X120174362Y-147856915D01*
X120174360Y-147856914D01*
X120168331Y-147854230D01*
X120075578Y-147834515D01*
X119989282Y-147816172D01*
X119989278Y-147816172D01*
X119982825Y-147814800D01*
X119976223Y-147814800D01*
X119969656Y-147814110D01*
X119969791Y-147812822D01*
X119908406Y-147794798D01*
X119861913Y-147741142D01*
X119851809Y-147670868D01*
X119854594Y-147657049D01*
X119869100Y-147601359D01*
X119879772Y-147397712D01*
X119849278Y-147196078D01*
X119778863Y-147004694D01*
X119671402Y-146831378D01*
X119531286Y-146683209D01*
X119434425Y-146615386D01*
X119369472Y-146569906D01*
X119369471Y-146569905D01*
X119364239Y-146566242D01*
X119177084Y-146485253D01*
X119126627Y-146474712D01*
X118982212Y-146444541D01*
X118982208Y-146444541D01*
X118977467Y-146443550D01*
X118972630Y-146443297D01*
X118972626Y-146443296D01*
X118972560Y-146443293D01*
X118970788Y-146443200D01*
X118821033Y-146443200D01*
X118748387Y-146450579D01*
X118675466Y-146457986D01*
X118675465Y-146457986D01*
X118669117Y-146458631D01*
X118474522Y-146519614D01*
X118296163Y-146618479D01*
X118141327Y-146751190D01*
X118016339Y-146912324D01*
X118013526Y-146918041D01*
X118013519Y-146918052D01*
X117971573Y-147003298D01*
X117923551Y-147055589D01*
X117854881Y-147073615D01*
X117787366Y-147051655D01*
X117746895Y-147004782D01*
X117746863Y-147004694D01*
X117639402Y-146831378D01*
X117499286Y-146683209D01*
X117402425Y-146615386D01*
X117337472Y-146569906D01*
X117337471Y-146569905D01*
X117332239Y-146566242D01*
X117145084Y-146485253D01*
X117094627Y-146474712D01*
X116950212Y-146444541D01*
X116950208Y-146444541D01*
X116945467Y-146443550D01*
X116940630Y-146443297D01*
X116940626Y-146443296D01*
X116940560Y-146443293D01*
X116938788Y-146443200D01*
X116789033Y-146443200D01*
X116716387Y-146450579D01*
X116643466Y-146457986D01*
X116643465Y-146457986D01*
X116637117Y-146458631D01*
X116442522Y-146519614D01*
X116264163Y-146618479D01*
X116109327Y-146751190D01*
X115984339Y-146912324D01*
X115894304Y-147095299D01*
X115892695Y-147101477D01*
X115892694Y-147101479D01*
X115869615Y-147190082D01*
X115842900Y-147292641D01*
X115832228Y-147496288D01*
X96012000Y-147496288D01*
X96012000Y-143129000D01*
X88645000Y-143129000D01*
X88576879Y-143108998D01*
X88530386Y-143055342D01*
X88519000Y-143003000D01*
X88519000Y-140359540D01*
X89748015Y-140359540D01*
X89757311Y-140371555D01*
X89794814Y-140397815D01*
X89804310Y-140403298D01*
X89991714Y-140490686D01*
X90002006Y-140494432D01*
X90201739Y-140547950D01*
X90212531Y-140549853D01*
X90418525Y-140567875D01*
X90429475Y-140567875D01*
X90635469Y-140549853D01*
X90646261Y-140547950D01*
X90845994Y-140494432D01*
X90856286Y-140490686D01*
X91043690Y-140403298D01*
X91053186Y-140397815D01*
X91091527Y-140370968D01*
X91099902Y-140360491D01*
X91092833Y-140347043D01*
X90436812Y-139691022D01*
X90422868Y-139683408D01*
X90421035Y-139683539D01*
X90414420Y-139687790D01*
X89754445Y-140347765D01*
X89748015Y-140359540D01*
X88519000Y-140359540D01*
X88519000Y-139324475D01*
X89175125Y-139324475D01*
X89193147Y-139530469D01*
X89195050Y-139541261D01*
X89248568Y-139740994D01*
X89252314Y-139751286D01*
X89339702Y-139938690D01*
X89345185Y-139948186D01*
X89372032Y-139986527D01*
X89382509Y-139994902D01*
X89395957Y-139987833D01*
X90051978Y-139331812D01*
X90058356Y-139320132D01*
X90788408Y-139320132D01*
X90788539Y-139321965D01*
X90792790Y-139328580D01*
X91452765Y-139988555D01*
X91464540Y-139994985D01*
X91476555Y-139985689D01*
X91502815Y-139948186D01*
X91508298Y-139938690D01*
X91595686Y-139751286D01*
X91599432Y-139740994D01*
X91652950Y-139541261D01*
X91654853Y-139530469D01*
X91672875Y-139324475D01*
X91672875Y-139313525D01*
X91654853Y-139107531D01*
X91652950Y-139096739D01*
X91599432Y-138897006D01*
X91595686Y-138886714D01*
X91508298Y-138699310D01*
X91502815Y-138689814D01*
X91475968Y-138651473D01*
X91465491Y-138643098D01*
X91452043Y-138650167D01*
X90796022Y-139306188D01*
X90788408Y-139320132D01*
X90058356Y-139320132D01*
X90059592Y-139317868D01*
X90059461Y-139316035D01*
X90055210Y-139309420D01*
X89395235Y-138649445D01*
X89383460Y-138643015D01*
X89371445Y-138652311D01*
X89345185Y-138689814D01*
X89339702Y-138699310D01*
X89252314Y-138886714D01*
X89248568Y-138897006D01*
X89195050Y-139096739D01*
X89193147Y-139107531D01*
X89175125Y-139313525D01*
X89175125Y-139324475D01*
X88519000Y-139324475D01*
X88519000Y-138277509D01*
X89748098Y-138277509D01*
X89755167Y-138290957D01*
X90411188Y-138946978D01*
X90425132Y-138954592D01*
X90426965Y-138954461D01*
X90433580Y-138950210D01*
X91093555Y-138290235D01*
X91099985Y-138278460D01*
X91090689Y-138266445D01*
X91053186Y-138240185D01*
X91043690Y-138234702D01*
X90856286Y-138147314D01*
X90845994Y-138143568D01*
X90646261Y-138090050D01*
X90635469Y-138088147D01*
X90429475Y-138070125D01*
X90418525Y-138070125D01*
X90212531Y-138088147D01*
X90201739Y-138090050D01*
X90002006Y-138143568D01*
X89991714Y-138147314D01*
X89804310Y-138234702D01*
X89794814Y-138240185D01*
X89756473Y-138267032D01*
X89748098Y-138277509D01*
X88519000Y-138277509D01*
X88519000Y-137540000D01*
X88539002Y-137471879D01*
X88592658Y-137425386D01*
X88645000Y-137414000D01*
X100584000Y-137414000D01*
X100584000Y-129540000D01*
X107169830Y-129540000D01*
X107189654Y-129728611D01*
X107248259Y-129908979D01*
X107343084Y-130073221D01*
X107409137Y-130146580D01*
X107439853Y-130210586D01*
X107441500Y-130230889D01*
X107441500Y-130349980D01*
X107440970Y-130361214D01*
X107439292Y-130368719D01*
X107439541Y-130376638D01*
X107441438Y-130437012D01*
X107441500Y-130440969D01*
X107441500Y-130468983D01*
X107441996Y-130472908D01*
X107441996Y-130472909D01*
X107442008Y-130473004D01*
X107442941Y-130484849D01*
X107444335Y-130529205D01*
X107446547Y-130536817D01*
X107450013Y-130548748D01*
X107454023Y-130568112D01*
X107456573Y-130588299D01*
X107459489Y-130595663D01*
X107459490Y-130595668D01*
X107472907Y-130629556D01*
X107476752Y-130640785D01*
X107489131Y-130683393D01*
X107493169Y-130690220D01*
X107493170Y-130690223D01*
X107499488Y-130700906D01*
X107508188Y-130718664D01*
X107512761Y-130730215D01*
X107512765Y-130730221D01*
X107515681Y-130737588D01*
X107520339Y-130743999D01*
X107520340Y-130744001D01*
X107541764Y-130773488D01*
X107548281Y-130783410D01*
X107566826Y-130814768D01*
X107566829Y-130814772D01*
X107570866Y-130821598D01*
X107585250Y-130835982D01*
X107598091Y-130851016D01*
X107610058Y-130867487D01*
X107616166Y-130872540D01*
X107644255Y-130895777D01*
X107653035Y-130903767D01*
X108079745Y-131330477D01*
X108087322Y-131338803D01*
X108091447Y-131345303D01*
X108097225Y-131350729D01*
X108097226Y-131350730D01*
X108141281Y-131392100D01*
X108144123Y-131394855D01*
X108163906Y-131414638D01*
X108167114Y-131417126D01*
X108176143Y-131424837D01*
X108208494Y-131455217D01*
X108215443Y-131459037D01*
X108226329Y-131465022D01*
X108242853Y-131475876D01*
X108258933Y-131488349D01*
X108266210Y-131491498D01*
X108299650Y-131505969D01*
X108310311Y-131511192D01*
X108342247Y-131528749D01*
X108342252Y-131528751D01*
X108349197Y-131532569D01*
X108356871Y-131534539D01*
X108356878Y-131534542D01*
X108368913Y-131537632D01*
X108387618Y-131544036D01*
X108391625Y-131545770D01*
X108406292Y-131552117D01*
X108421401Y-131554510D01*
X108450127Y-131559060D01*
X108461740Y-131561465D01*
X108504718Y-131572500D01*
X108525065Y-131572500D01*
X108544777Y-131574051D01*
X108564879Y-131577235D01*
X108572771Y-131576489D01*
X108609056Y-131573059D01*
X108620914Y-131572500D01*
X109394980Y-131572500D01*
X109406214Y-131573030D01*
X109413719Y-131574708D01*
X109482012Y-131572562D01*
X109485969Y-131572500D01*
X109513983Y-131572500D01*
X109517908Y-131572004D01*
X109517909Y-131572004D01*
X109518004Y-131571992D01*
X109529849Y-131571059D01*
X109559670Y-131570122D01*
X109566282Y-131569914D01*
X109566283Y-131569914D01*
X109574205Y-131569665D01*
X109593749Y-131563987D01*
X109613112Y-131559977D01*
X109625440Y-131558420D01*
X109625442Y-131558420D01*
X109633299Y-131557427D01*
X109640663Y-131554511D01*
X109640668Y-131554510D01*
X109674556Y-131541093D01*
X109685785Y-131537248D01*
X109702465Y-131532402D01*
X109728393Y-131524869D01*
X109735220Y-131520831D01*
X109735223Y-131520830D01*
X109745906Y-131514512D01*
X109763664Y-131505812D01*
X109775215Y-131501239D01*
X109775221Y-131501235D01*
X109782588Y-131498319D01*
X109818490Y-131472235D01*
X109828399Y-131465725D01*
X109832918Y-131463052D01*
X109897067Y-131445500D01*
X120189980Y-131445500D01*
X120201214Y-131446030D01*
X120208719Y-131447708D01*
X120277012Y-131445562D01*
X120280969Y-131445500D01*
X120308983Y-131445500D01*
X120312908Y-131445004D01*
X120312909Y-131445004D01*
X120313004Y-131444992D01*
X120324849Y-131444059D01*
X120354670Y-131443122D01*
X120361282Y-131442914D01*
X120361283Y-131442914D01*
X120369205Y-131442665D01*
X120388749Y-131436987D01*
X120408112Y-131432977D01*
X120420440Y-131431420D01*
X120420442Y-131431420D01*
X120428299Y-131430427D01*
X120435663Y-131427511D01*
X120435668Y-131427510D01*
X120469556Y-131414093D01*
X120480785Y-131410248D01*
X120497465Y-131405402D01*
X120523393Y-131397869D01*
X120530220Y-131393831D01*
X120530223Y-131393830D01*
X120540906Y-131387512D01*
X120558664Y-131378812D01*
X120570215Y-131374239D01*
X120570221Y-131374235D01*
X120577588Y-131371319D01*
X120586286Y-131365000D01*
X120613488Y-131345236D01*
X120623410Y-131338719D01*
X120654768Y-131320174D01*
X120654772Y-131320171D01*
X120661598Y-131316134D01*
X120675982Y-131301750D01*
X120691016Y-131288909D01*
X120701073Y-131281602D01*
X120707487Y-131276942D01*
X120735778Y-131242744D01*
X120743767Y-131233965D01*
X121498627Y-130479105D01*
X121560939Y-130445079D01*
X121587722Y-130442200D01*
X121633825Y-130442200D01*
X121640278Y-130440828D01*
X121640282Y-130440828D01*
X121726578Y-130422485D01*
X121819331Y-130402770D01*
X121825362Y-130400085D01*
X121986555Y-130328317D01*
X121986557Y-130328316D01*
X121992585Y-130325632D01*
X122034704Y-130295031D01*
X122140671Y-130218042D01*
X122140673Y-130218040D01*
X122146015Y-130214159D01*
X122212046Y-130140824D01*
X122268497Y-130078129D01*
X122268501Y-130078124D01*
X122272916Y-130073221D01*
X122367741Y-129908979D01*
X122426346Y-129728611D01*
X122446170Y-129540000D01*
X122426346Y-129351389D01*
X122367741Y-129171021D01*
X122354925Y-129148822D01*
X122276217Y-129012497D01*
X122272916Y-129006779D01*
X122238450Y-128968500D01*
X122150437Y-128870752D01*
X122150436Y-128870751D01*
X122146015Y-128865841D01*
X122140673Y-128861960D01*
X122140671Y-128861958D01*
X121997927Y-128758249D01*
X121997926Y-128758248D01*
X121992585Y-128754368D01*
X121986557Y-128751684D01*
X121986555Y-128751683D01*
X121825362Y-128679915D01*
X121825360Y-128679914D01*
X121819331Y-128677230D01*
X121726578Y-128657515D01*
X121640282Y-128639172D01*
X121640278Y-128639172D01*
X121633825Y-128637800D01*
X121444175Y-128637800D01*
X121437722Y-128639172D01*
X121437718Y-128639172D01*
X121351422Y-128657515D01*
X121258669Y-128677230D01*
X121252640Y-128679914D01*
X121252638Y-128679915D01*
X121091445Y-128751683D01*
X121091443Y-128751684D01*
X121085415Y-128754368D01*
X121080074Y-128758248D01*
X121080073Y-128758249D01*
X121041561Y-128786230D01*
X120974694Y-128810088D01*
X120905542Y-128794008D01*
X120893439Y-128786230D01*
X120854927Y-128758249D01*
X120854926Y-128758248D01*
X120849585Y-128754368D01*
X120843557Y-128751684D01*
X120843555Y-128751683D01*
X120682362Y-128679915D01*
X120682360Y-128679914D01*
X120676331Y-128677230D01*
X120583578Y-128657515D01*
X120497282Y-128639172D01*
X120497278Y-128639172D01*
X120490825Y-128637800D01*
X120301175Y-128637800D01*
X120294722Y-128639172D01*
X120294718Y-128639172D01*
X120208422Y-128657515D01*
X120115669Y-128677230D01*
X120109640Y-128679914D01*
X120109638Y-128679915D01*
X119948445Y-128751683D01*
X119948443Y-128751684D01*
X119942415Y-128754368D01*
X119937074Y-128758248D01*
X119937073Y-128758249D01*
X119898561Y-128786230D01*
X119831694Y-128810088D01*
X119762542Y-128794008D01*
X119750439Y-128786230D01*
X119711927Y-128758249D01*
X119711926Y-128758248D01*
X119706585Y-128754368D01*
X119700557Y-128751684D01*
X119700555Y-128751683D01*
X119539362Y-128679915D01*
X119539360Y-128679914D01*
X119533331Y-128677230D01*
X119440578Y-128657515D01*
X119354282Y-128639172D01*
X119354278Y-128639172D01*
X119347825Y-128637800D01*
X119158175Y-128637800D01*
X119151722Y-128639172D01*
X119151718Y-128639172D01*
X119065422Y-128657515D01*
X118972669Y-128677230D01*
X118966640Y-128679914D01*
X118966638Y-128679915D01*
X118805445Y-128751683D01*
X118805443Y-128751684D01*
X118799415Y-128754368D01*
X118794074Y-128758248D01*
X118794073Y-128758249D01*
X118651329Y-128861958D01*
X118651327Y-128861960D01*
X118645985Y-128865841D01*
X118641566Y-128870748D01*
X118640023Y-128872138D01*
X118576015Y-128902854D01*
X118555714Y-128904500D01*
X110552286Y-128904500D01*
X110484165Y-128884498D01*
X110467977Y-128872138D01*
X110466434Y-128870748D01*
X110462015Y-128865841D01*
X110456673Y-128861960D01*
X110456671Y-128861958D01*
X110313927Y-128758249D01*
X110313926Y-128758248D01*
X110308585Y-128754368D01*
X110302557Y-128751684D01*
X110302555Y-128751683D01*
X110141362Y-128679915D01*
X110141360Y-128679914D01*
X110135331Y-128677230D01*
X110042578Y-128657515D01*
X109956282Y-128639172D01*
X109956278Y-128639172D01*
X109949825Y-128637800D01*
X109760175Y-128637800D01*
X109753722Y-128639172D01*
X109753718Y-128639172D01*
X109667422Y-128657515D01*
X109574669Y-128677230D01*
X109568640Y-128679914D01*
X109568638Y-128679915D01*
X109407445Y-128751683D01*
X109407443Y-128751684D01*
X109401415Y-128754368D01*
X109396074Y-128758248D01*
X109396073Y-128758249D01*
X109253329Y-128861958D01*
X109253327Y-128861960D01*
X109247985Y-128865841D01*
X109243564Y-128870751D01*
X109243563Y-128870752D01*
X109155551Y-128968500D01*
X109121084Y-129006779D01*
X109117783Y-129012497D01*
X109075119Y-129086393D01*
X109023737Y-129135386D01*
X108954023Y-129148822D01*
X108888112Y-129122436D01*
X108856881Y-129086393D01*
X108814217Y-129012497D01*
X108810916Y-129006779D01*
X108776450Y-128968500D01*
X108688437Y-128870752D01*
X108688436Y-128870751D01*
X108684015Y-128865841D01*
X108678673Y-128861960D01*
X108678671Y-128861958D01*
X108535927Y-128758249D01*
X108535926Y-128758248D01*
X108530585Y-128754368D01*
X108524557Y-128751684D01*
X108524555Y-128751683D01*
X108363362Y-128679915D01*
X108363360Y-128679914D01*
X108357331Y-128677230D01*
X108264578Y-128657515D01*
X108178282Y-128639172D01*
X108178278Y-128639172D01*
X108171825Y-128637800D01*
X107982175Y-128637800D01*
X107975722Y-128639172D01*
X107975718Y-128639172D01*
X107889422Y-128657515D01*
X107796669Y-128677230D01*
X107790640Y-128679914D01*
X107790638Y-128679915D01*
X107629445Y-128751683D01*
X107629443Y-128751684D01*
X107623415Y-128754368D01*
X107618074Y-128758248D01*
X107618073Y-128758249D01*
X107475329Y-128861958D01*
X107475327Y-128861960D01*
X107469985Y-128865841D01*
X107465564Y-128870751D01*
X107465563Y-128870752D01*
X107377551Y-128968500D01*
X107343084Y-129006779D01*
X107339783Y-129012497D01*
X107261076Y-129148822D01*
X107248259Y-129171021D01*
X107189654Y-129351389D01*
X107169830Y-129540000D01*
X100584000Y-129540000D01*
X100584000Y-117748000D01*
X107277830Y-117748000D01*
X107297654Y-117936611D01*
X107356259Y-118116979D01*
X107451084Y-118281221D01*
X107455502Y-118286128D01*
X107455503Y-118286129D01*
X107573563Y-118417248D01*
X107577985Y-118422159D01*
X107583327Y-118426040D01*
X107583329Y-118426042D01*
X107708959Y-118517317D01*
X107731415Y-118533632D01*
X107737443Y-118536316D01*
X107737445Y-118536317D01*
X107861994Y-118591770D01*
X107904669Y-118610770D01*
X107994331Y-118629828D01*
X108083718Y-118648828D01*
X108083722Y-118648828D01*
X108090175Y-118650200D01*
X108279825Y-118650200D01*
X108286278Y-118648828D01*
X108286282Y-118648828D01*
X108375669Y-118629828D01*
X108465331Y-118610770D01*
X108508006Y-118591770D01*
X108632555Y-118536317D01*
X108632557Y-118536316D01*
X108638585Y-118533632D01*
X108661041Y-118517317D01*
X108786671Y-118426042D01*
X108786673Y-118426040D01*
X108792015Y-118422159D01*
X108806393Y-118406190D01*
X108866838Y-118368951D01*
X108900030Y-118364500D01*
X114491714Y-118364500D01*
X114559835Y-118384502D01*
X114576023Y-118396862D01*
X114577566Y-118398252D01*
X114581985Y-118403159D01*
X114587327Y-118407040D01*
X114587329Y-118407042D01*
X114730073Y-118510751D01*
X114735415Y-118514632D01*
X114741443Y-118517316D01*
X114741445Y-118517317D01*
X114784120Y-118536317D01*
X114908669Y-118591770D01*
X114985426Y-118608085D01*
X115087718Y-118629828D01*
X115087722Y-118629828D01*
X115094175Y-118631200D01*
X115283825Y-118631200D01*
X115290278Y-118629828D01*
X115290282Y-118629828D01*
X115392574Y-118608085D01*
X115469331Y-118591770D01*
X115593880Y-118536317D01*
X115636555Y-118517317D01*
X115636557Y-118517316D01*
X115642585Y-118514632D01*
X115647927Y-118510751D01*
X115790671Y-118407042D01*
X115790673Y-118407040D01*
X115796015Y-118403159D01*
X115901389Y-118286129D01*
X115918497Y-118267129D01*
X115918498Y-118267128D01*
X115922916Y-118262221D01*
X116017741Y-118097979D01*
X116042181Y-118022760D01*
X116074306Y-117923890D01*
X116074306Y-117923889D01*
X116076346Y-117917611D01*
X116096170Y-117729000D01*
X116076346Y-117540389D01*
X116017741Y-117360021D01*
X115922916Y-117195779D01*
X115809627Y-117069958D01*
X115800437Y-117059752D01*
X115800436Y-117059751D01*
X115796015Y-117054841D01*
X115790673Y-117050960D01*
X115790671Y-117050958D01*
X115647927Y-116947249D01*
X115647926Y-116947248D01*
X115642585Y-116943368D01*
X115636557Y-116940684D01*
X115636555Y-116940683D01*
X115475362Y-116868915D01*
X115475360Y-116868914D01*
X115469331Y-116866230D01*
X115373214Y-116845800D01*
X115290282Y-116828172D01*
X115290278Y-116828172D01*
X115283825Y-116826800D01*
X115094175Y-116826800D01*
X115087722Y-116828172D01*
X115087718Y-116828172D01*
X115004786Y-116845800D01*
X114908669Y-116866230D01*
X114902640Y-116868914D01*
X114902638Y-116868915D01*
X114741445Y-116940683D01*
X114741443Y-116940684D01*
X114735415Y-116943368D01*
X114730074Y-116947248D01*
X114730073Y-116947249D01*
X114587329Y-117050958D01*
X114587327Y-117050960D01*
X114581985Y-117054841D01*
X114577566Y-117059748D01*
X114576023Y-117061138D01*
X114512015Y-117091854D01*
X114491714Y-117093500D01*
X108860013Y-117093500D01*
X108785952Y-117069436D01*
X108643927Y-116966249D01*
X108643926Y-116966248D01*
X108638585Y-116962368D01*
X108632557Y-116959684D01*
X108632555Y-116959683D01*
X108471362Y-116887915D01*
X108471360Y-116887914D01*
X108465331Y-116885230D01*
X108369487Y-116864858D01*
X108286282Y-116847172D01*
X108286278Y-116847172D01*
X108279825Y-116845800D01*
X108090175Y-116845800D01*
X108083722Y-116847172D01*
X108083718Y-116847172D01*
X108000513Y-116864858D01*
X107904669Y-116885230D01*
X107898640Y-116887914D01*
X107898638Y-116887915D01*
X107737445Y-116959683D01*
X107737443Y-116959684D01*
X107731415Y-116962368D01*
X107726074Y-116966248D01*
X107726073Y-116966249D01*
X107583329Y-117069958D01*
X107583327Y-117069960D01*
X107577985Y-117073841D01*
X107573564Y-117078751D01*
X107573563Y-117078752D01*
X107468192Y-117195779D01*
X107451084Y-117214779D01*
X107356259Y-117379021D01*
X107354217Y-117385306D01*
X107305868Y-117534110D01*
X107297654Y-117559389D01*
X107277830Y-117748000D01*
X100584000Y-117748000D01*
X100584000Y-74929000D01*
X100604002Y-74860879D01*
X100657658Y-74814386D01*
X100710000Y-74803000D01*
X126366000Y-74803000D01*
X126434121Y-74823002D01*
G37*
G04 #@! TD.AperFunction*
M02*
