M48
INCH,TZ
T1C0.0150
T2C0.0380
T3C0.0394
T4C0.0472
T5C0.0510
T6C0.1102
T7C0.1260
%
G90
G05
T1
X38050Y-54400
X38050Y-54800
X38050Y-55200
X38050Y-55600
X38050Y-56000
X38050Y-60500
X38050Y-60900
X38050Y-61300
X38100Y-51450
X38220Y-28700
X38220Y-29100
X38220Y-29500
X38220Y-29920
X38500Y-54400
X38500Y-54800
X38500Y-55200
X38500Y-55600
X38500Y-56000
X38600Y-51000
X38600Y-51450
X38680Y-29500
X38680Y-29920
X38950Y-56150
X38950Y-56550
X38950Y-56950
X39100Y-50550
X39100Y-51000
X39100Y-51450
X39120Y-29500
X39120Y-29920
X39400Y-56150
X39400Y-56550
X39400Y-56950
X39850Y-38000
X39850Y-38400
X40400Y-45800
X40400Y-48200
X40400Y-48900
X40750Y-35650
X40750Y-36050
X40750Y-36450
X40931Y-63469
X41150Y-35650
X41150Y-36050
X41150Y-36450
X41250Y-30250
X41250Y-38650
X41650Y-38650
X41850Y-29750
X41850Y-30250
X42050Y-38650
X42050Y-39050
X42050Y-39450
X42450Y-30250
X42550Y-51000
X42593Y-46357
X42900Y-51250
X43250Y-51000
X43531Y-39581
X44224Y-55950
X44224Y-57150
X44224Y-58350
X44674Y-55950
X44674Y-57150
X44674Y-58350
X45150Y-48493
X45150Y-48900
X45350Y-46350
X45400Y-58550
X45524Y-52581
X45524Y-54081
X46950Y-51000
X47200Y-58550
X47200Y-59050
X47400Y-51000
X47850Y-51000
X47900Y-59050
X48250Y-58550
T2
X23600Y-61850
X25600Y-61850
X33600Y-54850
X35600Y-54850
X35600Y-61850
T3
X20409Y-33987
X20409Y-42837
X20409Y-51687
X21000Y-30050
X21000Y-38900
X21000Y-47750
T4
X36947Y-30081
X36947Y-32050
X36947Y-34019
X36947Y-38931
X36947Y-40900
X36947Y-42869
X36947Y-47781
X36947Y-49750
X36947Y-51719
T5
X17250Y-30150
X17250Y-33898
X17250Y-39000
X17250Y-42748
X17250Y-47850
X17250Y-51598
X17250Y-55950
X17250Y-59698
T6
X23463Y-30574
X23463Y-39424
X23463Y-48274
X26120Y-33526
X26120Y-42376
X26120Y-51226
T7
X14200Y-26300
X14200Y-63400
X48300Y-26300
X48300Y-63400
T0
M30
