G04 start of page 12 for group -3984 idx -3984 *
G04 Title: (unknown), fab *
G04 Creator: pcb 4.0.2 *
G04 CreationDate: Sat May 14 18:14:31 2022 UTC *
G04 For: railfan *
G04 Format: Gerber/RS-274X *
G04 PCB-Dimensions (mil): 2800.00 1800.00 *
G04 PCB-Coordinate-Origin: lower left *
%MOIN*%
%FSLAX25Y25*%
%LNFAB*%
%ADD51C,0.0100*%
%ADD50C,0.0075*%
%ADD49C,0.0060*%
%ADD48R,0.0080X0.0080*%
G54D48*X20700Y54000D02*G75*G03X22300Y54000I800J0D01*G01*
G75*G03X20700Y54000I-800J0D01*G01*
X40700D02*G75*G03X42300Y54000I800J0D01*G01*
G75*G03X40700Y54000I-800J0D01*G01*
X60700D02*G75*G03X62300Y54000I800J0D01*G01*
G75*G03X60700Y54000I-800J0D01*G01*
X14200Y191250D02*G75*G03X15800Y191250I800J0D01*G01*
G75*G03X14200Y191250I-800J0D01*G01*
G54D49*X135000Y193500D02*X136500Y190500D01*
X138000Y193500D01*
X136500Y190500D02*Y187500D01*
X139800Y190800D02*X142050D01*
X139800Y187500D02*X142800D01*
X139800Y193500D02*Y187500D01*
Y193500D02*X142800D01*
X147600D02*X148350Y192750D01*
X145350Y193500D02*X147600D01*
X144600Y192750D02*X145350Y193500D01*
X144600Y192750D02*Y191250D01*
X145350Y190500D01*
X147600D01*
X148350Y189750D01*
Y188250D01*
X147600Y187500D02*X148350Y188250D01*
X145350Y187500D02*X147600D01*
X144600Y188250D02*X145350Y187500D01*
X98000Y192750D02*X98750Y193500D01*
X100250D01*
X101000Y192750D01*
X100250Y187500D02*X101000Y188250D01*
X98750Y187500D02*X100250D01*
X98000Y188250D02*X98750Y187500D01*
Y190800D02*X100250D01*
X101000Y192750D02*Y191550D01*
Y190050D02*Y188250D01*
Y190050D02*X100250Y190800D01*
X101000Y191550D02*X100250Y190800D01*
X45000Y188250D02*X45750Y187500D01*
X45000Y192750D02*Y188250D01*
Y192750D02*X45750Y193500D01*
X47250D01*
X48000Y192750D01*
Y188250D01*
X47250Y187500D02*X48000Y188250D01*
X45750Y187500D02*X47250D01*
X45000Y189000D02*X48000Y192000D01*
X49800Y187500D02*X50550D01*
X52350Y188250D02*X53100Y187500D01*
X52350Y192750D02*Y188250D01*
Y192750D02*X53100Y193500D01*
X54600D01*
X55350Y192750D01*
Y188250D01*
X54600Y187500D02*X55350Y188250D01*
X53100Y187500D02*X54600D01*
X52350Y189000D02*X55350Y192000D01*
X57150Y193500D02*X60150D01*
X57150D02*Y190500D01*
X57900Y191250D01*
X59400D01*
X60150Y190500D01*
Y188250D01*
X59400Y187500D02*X60150Y188250D01*
X57900Y187500D02*X59400D01*
X57150Y188250D02*X57900Y187500D01*
X61950Y193500D02*X64950D01*
X61950D02*Y190500D01*
X62700Y191250D01*
X64200D01*
X64950Y190500D01*
Y188250D01*
X64200Y187500D02*X64950Y188250D01*
X62700Y187500D02*X64200D01*
X61950Y188250D02*X62700Y187500D01*
X217800Y146200D02*X220200Y143800D01*
X217800D02*X220200Y146200D01*
X197800D02*X200200Y143800D01*
X197800D02*X200200Y146200D01*
X257800D02*X260200Y143800D01*
X257800D02*X260200Y146200D01*
X237800D02*X240200Y143800D01*
X237800D02*X240200Y146200D01*
X13800Y207450D02*X16200Y205050D01*
X13800D02*X16200Y207450D01*
X135000Y208500D02*X136500Y205500D01*
X138000Y208500D01*
X136500Y205500D02*Y202500D01*
X139800Y205800D02*X142050D01*
X139800Y202500D02*X142800D01*
X139800Y208500D02*Y202500D01*
Y208500D02*X142800D01*
X147600D02*X148350Y207750D01*
X145350Y208500D02*X147600D01*
X144600Y207750D02*X145350Y208500D01*
X144600Y207750D02*Y206250D01*
X145350Y205500D01*
X147600D01*
X148350Y204750D01*
Y203250D01*
X147600Y202500D02*X148350Y203250D01*
X145350Y202500D02*X147600D01*
X144600Y203250D02*X145350Y202500D01*
X98000Y204750D02*X101000Y208500D01*
X98000Y204750D02*X101750D01*
X101000Y208500D02*Y202500D01*
X45000Y203250D02*X45750Y202500D01*
X45000Y207750D02*Y203250D01*
Y207750D02*X45750Y208500D01*
X47250D01*
X48000Y207750D01*
Y203250D01*
X47250Y202500D02*X48000Y203250D01*
X45750Y202500D02*X47250D01*
X45000Y204000D02*X48000Y207000D01*
X49800Y202500D02*X50550D01*
X52350Y203250D02*X53100Y202500D01*
X52350Y207750D02*Y203250D01*
Y207750D02*X53100Y208500D01*
X54600D01*
X55350Y207750D01*
Y203250D01*
X54600Y202500D02*X55350Y203250D01*
X53100Y202500D02*X54600D01*
X52350Y204000D02*X55350Y207000D01*
X57150Y204750D02*X60150Y208500D01*
X57150Y204750D02*X60900D01*
X60150Y208500D02*Y202500D01*
X62700Y203250D02*X63450Y202500D01*
X62700Y204450D02*Y203250D01*
Y204450D02*X63750Y205500D01*
X64650D01*
X65700Y204450D01*
Y203250D01*
X64950Y202500D02*X65700Y203250D01*
X63450Y202500D02*X64950D01*
X62700Y206550D02*X63750Y205500D01*
X62700Y207750D02*Y206550D01*
Y207750D02*X63450Y208500D01*
X64950D01*
X65700Y207750D01*
Y206550D01*
X64650Y205500D02*X65700Y206550D01*
X21500Y89100D02*Y85900D01*
X19900Y87500D02*X23100D01*
X111500Y99100D02*Y95900D01*
X109900Y97500D02*X113100D01*
X111500Y159100D02*Y155900D01*
X109900Y157500D02*X113100D01*
X21500Y159100D02*Y155900D01*
X19900Y157500D02*X23100D01*
X15000Y222850D02*Y219650D01*
X13400Y221250D02*X16600D01*
X135000Y223500D02*X136500Y220500D01*
X138000Y223500D01*
X136500Y220500D02*Y217500D01*
X139800Y220800D02*X142050D01*
X139800Y217500D02*X142800D01*
X139800Y223500D02*Y217500D01*
Y223500D02*X142800D01*
X147600D02*X148350Y222750D01*
X145350Y223500D02*X147600D01*
X144600Y222750D02*X145350Y223500D01*
X144600Y222750D02*Y221250D01*
X145350Y220500D01*
X147600D01*
X148350Y219750D01*
Y218250D01*
X147600Y217500D02*X148350Y218250D01*
X145350Y217500D02*X147600D01*
X144600Y218250D02*X145350Y217500D01*
X98000Y219750D02*X101000Y223500D01*
X98000Y219750D02*X101750D01*
X101000Y223500D02*Y217500D01*
X45000Y218250D02*X45750Y217500D01*
X45000Y222750D02*Y218250D01*
Y222750D02*X45750Y223500D01*
X47250D01*
X48000Y222750D01*
Y218250D01*
X47250Y217500D02*X48000Y218250D01*
X45750Y217500D02*X47250D01*
X45000Y219000D02*X48000Y222000D01*
X49800Y217500D02*X50550D01*
X52350Y218250D02*X53100Y217500D01*
X52350Y222750D02*Y218250D01*
Y222750D02*X53100Y223500D01*
X54600D01*
X55350Y222750D01*
Y218250D01*
X54600Y217500D02*X55350Y218250D01*
X53100Y217500D02*X54600D01*
X52350Y219000D02*X55350Y222000D01*
X57150Y222750D02*X57900Y223500D01*
X59400D01*
X60150Y222750D01*
X59400Y217500D02*X60150Y218250D01*
X57900Y217500D02*X59400D01*
X57150Y218250D02*X57900Y217500D01*
Y220800D02*X59400D01*
X60150Y222750D02*Y221550D01*
Y220050D02*Y218250D01*
Y220050D02*X59400Y220800D01*
X60150Y221550D02*X59400Y220800D01*
X61950Y218250D02*X62700Y217500D01*
X61950Y222750D02*Y218250D01*
Y222750D02*X62700Y223500D01*
X64200D01*
X64950Y222750D01*
Y218250D01*
X64200Y217500D02*X64950Y218250D01*
X62700Y217500D02*X64200D01*
X61950Y219000D02*X64950Y222000D01*
X207000Y44500D02*Y42900D01*
Y44500D02*X208387Y45300D01*
X207000Y44500D02*X205613Y45300D01*
X216000Y44500D02*Y42900D01*
Y44500D02*X217387Y45300D01*
X216000Y44500D02*X214613Y45300D01*
X225000Y44500D02*Y42900D01*
Y44500D02*X226387Y45300D01*
X225000Y44500D02*X223613Y45300D01*
X15000Y236250D02*Y234650D01*
Y236250D02*X16387Y237050D01*
X15000Y236250D02*X13613Y237050D01*
X135000Y238500D02*X136500Y235500D01*
X138000Y238500D01*
X136500Y235500D02*Y232500D01*
X139800Y235800D02*X142050D01*
X139800Y232500D02*X142800D01*
X139800Y238500D02*Y232500D01*
Y238500D02*X142800D01*
X147600D02*X148350Y237750D01*
X145350Y238500D02*X147600D01*
X144600Y237750D02*X145350Y238500D01*
X144600Y237750D02*Y236250D01*
X145350Y235500D01*
X147600D01*
X148350Y234750D01*
Y233250D01*
X147600Y232500D02*X148350Y233250D01*
X145350Y232500D02*X147600D01*
X144600Y233250D02*X145350Y232500D01*
X98000Y237750D02*X98750Y238500D01*
X100250D01*
X101000Y237750D01*
X100250Y232500D02*X101000Y233250D01*
X98750Y232500D02*X100250D01*
X98000Y233250D02*X98750Y232500D01*
Y235800D02*X100250D01*
X101000Y237750D02*Y236550D01*
Y235050D02*Y233250D01*
Y235050D02*X100250Y235800D01*
X101000Y236550D02*X100250Y235800D01*
X45000Y233250D02*X45750Y232500D01*
X45000Y237750D02*Y233250D01*
Y237750D02*X45750Y238500D01*
X47250D01*
X48000Y237750D01*
Y233250D01*
X47250Y232500D02*X48000Y233250D01*
X45750Y232500D02*X47250D01*
X45000Y234000D02*X48000Y237000D01*
X49800Y232500D02*X50550D01*
X52350Y233250D02*X53100Y232500D01*
X52350Y237750D02*Y233250D01*
Y237750D02*X53100Y238500D01*
X54600D01*
X55350Y237750D01*
Y233250D01*
X54600Y232500D02*X55350Y233250D01*
X53100Y232500D02*X54600D01*
X52350Y234000D02*X55350Y237000D01*
X57150Y237750D02*X57900Y238500D01*
X60150D01*
X60900Y237750D01*
Y236250D01*
X57150Y232500D02*X60900Y236250D01*
X57150Y232500D02*X60900D01*
X62700Y233250D02*X63450Y232500D01*
X62700Y237750D02*Y233250D01*
Y237750D02*X63450Y238500D01*
X64950D01*
X65700Y237750D01*
Y233250D01*
X64950Y232500D02*X65700Y233250D01*
X63450Y232500D02*X64950D01*
X62700Y234000D02*X65700Y237000D01*
X3000Y253500D02*X3750Y252750D01*
X750Y253500D02*X3000D01*
X0Y252750D02*X750Y253500D01*
X0Y252750D02*Y251250D01*
X750Y250500D01*
X3000D01*
X3750Y249750D01*
Y248250D01*
X3000Y247500D02*X3750Y248250D01*
X750Y247500D02*X3000D01*
X0Y248250D02*X750Y247500D01*
X5550Y250500D02*Y248250D01*
X6300Y247500D01*
X8550Y250500D02*Y246000D01*
X7800Y245250D02*X8550Y246000D01*
X6300Y245250D02*X7800D01*
X5550Y246000D02*X6300Y245250D01*
Y247500D02*X7800D01*
X8550Y248250D01*
X11100Y249750D02*Y247500D01*
Y249750D02*X11850Y250500D01*
X12600D01*
X13350Y249750D01*
Y247500D01*
Y249750D02*X14100Y250500D01*
X14850D01*
X15600Y249750D01*
Y247500D01*
X10350Y250500D02*X11100Y249750D01*
X17400Y253500D02*Y247500D01*
Y248250D02*X18150Y247500D01*
X19650D01*
X20400Y248250D01*
Y249750D02*Y248250D01*
X19650Y250500D02*X20400Y249750D01*
X18150Y250500D02*X19650D01*
X17400Y249750D02*X18150Y250500D01*
X22200Y249750D02*Y248250D01*
Y249750D02*X22950Y250500D01*
X24450D01*
X25200Y249750D01*
Y248250D01*
X24450Y247500D02*X25200Y248250D01*
X22950Y247500D02*X24450D01*
X22200Y248250D02*X22950Y247500D01*
X27000Y253500D02*Y248250D01*
X27750Y247500D01*
X0Y244250D02*X29250D01*
X41750Y253500D02*Y247500D01*
X43700Y253500D02*X44750Y252450D01*
Y248550D01*
X43700Y247500D02*X44750Y248550D01*
X41000Y247500D02*X43700D01*
X41000Y253500D02*X43700D01*
G54D50*X46550Y252000D02*Y251850D01*
G54D49*Y249750D02*Y247500D01*
X50300Y250500D02*X51050Y249750D01*
X48800Y250500D02*X50300D01*
X48050Y249750D02*X48800Y250500D01*
X48050Y249750D02*Y248250D01*
X48800Y247500D01*
X51050Y250500D02*Y248250D01*
X51800Y247500D01*
X48800D02*X50300D01*
X51050Y248250D01*
X54350Y249750D02*Y247500D01*
Y249750D02*X55100Y250500D01*
X55850D01*
X56600Y249750D01*
Y247500D01*
Y249750D02*X57350Y250500D01*
X58100D01*
X58850Y249750D01*
Y247500D01*
X53600Y250500D02*X54350Y249750D01*
X60650Y247500D02*X61400D01*
X65900Y248250D02*X66650Y247500D01*
X65900Y252750D02*X66650Y253500D01*
X65900Y252750D02*Y248250D01*
X68450Y253500D02*X69950D01*
X69200D02*Y247500D01*
X68450D02*X69950D01*
X72500Y249750D02*Y247500D01*
Y249750D02*X73250Y250500D01*
X74000D01*
X74750Y249750D01*
Y247500D01*
X71750Y250500D02*X72500Y249750D01*
X77300Y250500D02*X79550D01*
X76550Y249750D02*X77300Y250500D01*
X76550Y249750D02*Y248250D01*
X77300Y247500D01*
X79550D01*
X81350Y253500D02*Y247500D01*
Y249750D02*X82100Y250500D01*
X83600D01*
X84350Y249750D01*
Y247500D01*
X86150Y253500D02*X86900Y252750D01*
Y248250D01*
X86150Y247500D02*X86900Y248250D01*
X41000Y244250D02*X88700D01*
X96050Y247500D02*X98000D01*
X95000Y248550D02*X96050Y247500D01*
X95000Y252450D02*Y248550D01*
Y252450D02*X96050Y253500D01*
X98000D01*
X99800Y249750D02*Y248250D01*
Y249750D02*X100550Y250500D01*
X102050D01*
X102800Y249750D01*
Y248250D01*
X102050Y247500D02*X102800Y248250D01*
X100550Y247500D02*X102050D01*
X99800Y248250D02*X100550Y247500D01*
X104600Y250500D02*Y248250D01*
X105350Y247500D01*
X106850D01*
X107600Y248250D01*
Y250500D02*Y248250D01*
X110150Y249750D02*Y247500D01*
Y249750D02*X110900Y250500D01*
X111650D01*
X112400Y249750D01*
Y247500D01*
X109400Y250500D02*X110150Y249750D01*
X114950Y253500D02*Y248250D01*
X115700Y247500D01*
X114200Y251250D02*X115700D01*
X95000Y244250D02*X117200D01*
X130750Y253500D02*Y247500D01*
X130000Y253500D02*X133000D01*
X133750Y252750D01*
Y251250D01*
X133000Y250500D02*X133750Y251250D01*
X130750Y250500D02*X133000D01*
X135550Y253500D02*Y248250D01*
X136300Y247500D01*
X140050Y250500D02*X140800Y249750D01*
X138550Y250500D02*X140050D01*
X137800Y249750D02*X138550Y250500D01*
X137800Y249750D02*Y248250D01*
X138550Y247500D01*
X140800Y250500D02*Y248250D01*
X141550Y247500D01*
X138550D02*X140050D01*
X140800Y248250D01*
X144100Y253500D02*Y248250D01*
X144850Y247500D01*
X143350Y251250D02*X144850D01*
X147100Y247500D02*X149350D01*
X146350Y248250D02*X147100Y247500D01*
X146350Y249750D02*Y248250D01*
Y249750D02*X147100Y250500D01*
X148600D01*
X149350Y249750D01*
X146350Y249000D02*X149350D01*
Y249750D02*Y249000D01*
X154150Y253500D02*Y247500D01*
X153400D02*X154150Y248250D01*
X151900Y247500D02*X153400D01*
X151150Y248250D02*X151900Y247500D01*
X151150Y249750D02*Y248250D01*
Y249750D02*X151900Y250500D01*
X153400D01*
X154150Y249750D01*
X157450Y250500D02*Y249750D01*
Y248250D02*Y247500D01*
X155950Y252750D02*Y252000D01*
Y252750D02*X156700Y253500D01*
X158200D01*
X158950Y252750D01*
Y252000D01*
X157450Y250500D02*X158950Y252000D01*
X130000Y244250D02*X160750D01*
X0Y268500D02*X3000D01*
X1500D02*Y262500D01*
X4800Y268500D02*Y262500D01*
Y264750D02*X5550Y265500D01*
X7050D01*
X7800Y264750D01*
Y262500D01*
X10350D02*X12600D01*
X9600Y263250D02*X10350Y262500D01*
X9600Y264750D02*Y263250D01*
Y264750D02*X10350Y265500D01*
X11850D01*
X12600Y264750D01*
X9600Y264000D02*X12600D01*
Y264750D02*Y264000D01*
X15150Y264750D02*Y262500D01*
Y264750D02*X15900Y265500D01*
X17400D01*
X14400D02*X15150Y264750D01*
X19950Y262500D02*X22200D01*
X19200Y263250D02*X19950Y262500D01*
X19200Y264750D02*Y263250D01*
Y264750D02*X19950Y265500D01*
X21450D01*
X22200Y264750D01*
X19200Y264000D02*X22200D01*
Y264750D02*Y264000D01*
X28950Y265500D02*X29700Y264750D01*
X27450Y265500D02*X28950D01*
X26700Y264750D02*X27450Y265500D01*
X26700Y264750D02*Y263250D01*
X27450Y262500D01*
X29700Y265500D02*Y263250D01*
X30450Y262500D01*
X27450D02*X28950D01*
X29700Y263250D01*
X33000Y264750D02*Y262500D01*
Y264750D02*X33750Y265500D01*
X35250D01*
X32250D02*X33000Y264750D01*
X37800Y262500D02*X40050D01*
X37050Y263250D02*X37800Y262500D01*
X37050Y264750D02*Y263250D01*
Y264750D02*X37800Y265500D01*
X39300D01*
X40050Y264750D01*
X37050Y264000D02*X40050D01*
Y264750D02*Y264000D01*
X44550Y264750D02*X47550Y268500D01*
X44550Y264750D02*X48300D01*
X47550Y268500D02*Y262500D01*
X55800Y268500D02*Y262500D01*
X55050D02*X55800Y263250D01*
X53550Y262500D02*X55050D01*
X52800Y263250D02*X53550Y262500D01*
X52800Y264750D02*Y263250D01*
Y264750D02*X53550Y265500D01*
X55050D01*
X55800Y264750D01*
G54D50*X57600Y267000D02*Y266850D01*
G54D49*Y264750D02*Y262500D01*
X59850Y267750D02*Y262500D01*
Y267750D02*X60600Y268500D01*
X61350D01*
X59100Y265500D02*X60600D01*
X63600Y267750D02*Y262500D01*
Y267750D02*X64350Y268500D01*
X65100D01*
X62850Y265500D02*X64350D01*
X67350Y262500D02*X69600D01*
X66600Y263250D02*X67350Y262500D01*
X66600Y264750D02*Y263250D01*
Y264750D02*X67350Y265500D01*
X68850D01*
X69600Y264750D01*
X66600Y264000D02*X69600D01*
Y264750D02*Y264000D01*
X72150Y264750D02*Y262500D01*
Y264750D02*X72900Y265500D01*
X74400D01*
X71400D02*X72150Y264750D01*
X76950Y262500D02*X79200D01*
X76200Y263250D02*X76950Y262500D01*
X76200Y264750D02*Y263250D01*
Y264750D02*X76950Y265500D01*
X78450D01*
X79200Y264750D01*
X76200Y264000D02*X79200D01*
Y264750D02*Y264000D01*
X81750Y264750D02*Y262500D01*
Y264750D02*X82500Y265500D01*
X83250D01*
X84000Y264750D01*
Y262500D01*
X81000Y265500D02*X81750Y264750D01*
X86550Y268500D02*Y263250D01*
X87300Y262500D01*
X85800Y266250D02*X87300D01*
X94500Y268500D02*Y262500D01*
X93750D02*X94500Y263250D01*
X92250Y262500D02*X93750D01*
X91500Y263250D02*X92250Y262500D01*
X91500Y264750D02*Y263250D01*
Y264750D02*X92250Y265500D01*
X93750D01*
X94500Y264750D01*
X97050D02*Y262500D01*
Y264750D02*X97800Y265500D01*
X99300D01*
X96300D02*X97050Y264750D01*
G54D50*X101100Y267000D02*Y266850D01*
G54D49*Y264750D02*Y262500D01*
X102600Y268500D02*Y263250D01*
X103350Y262500D01*
X104850Y268500D02*Y263250D01*
X105600Y262500D01*
X110550D02*X112800D01*
X113550Y263250D01*
X112800Y264000D02*X113550Y263250D01*
X110550Y264000D02*X112800D01*
X109800Y264750D02*X110550Y264000D01*
X109800Y264750D02*X110550Y265500D01*
X112800D01*
X113550Y264750D01*
X109800Y263250D02*X110550Y262500D01*
G54D50*X115350Y267000D02*Y266850D01*
G54D49*Y264750D02*Y262500D01*
X116850Y265500D02*X119850D01*
X116850Y262500D02*X119850Y265500D01*
X116850Y262500D02*X119850D01*
X122400D02*X124650D01*
X121650Y263250D02*X122400Y262500D01*
X121650Y264750D02*Y263250D01*
Y264750D02*X122400Y265500D01*
X123900D01*
X124650Y264750D01*
X121650Y264000D02*X124650D01*
Y264750D02*Y264000D01*
X127200Y262500D02*X129450D01*
X130200Y263250D01*
X129450Y264000D02*X130200Y263250D01*
X127200Y264000D02*X129450D01*
X126450Y264750D02*X127200Y264000D01*
X126450Y264750D02*X127200Y265500D01*
X129450D01*
X130200Y264750D01*
X126450Y263250D02*X127200Y262500D01*
X134700Y265500D02*Y263250D01*
X135450Y262500D01*
X136950D01*
X137700Y263250D01*
Y265500D02*Y263250D01*
X140250Y262500D02*X142500D01*
X143250Y263250D01*
X142500Y264000D02*X143250Y263250D01*
X140250Y264000D02*X142500D01*
X139500Y264750D02*X140250Y264000D01*
X139500Y264750D02*X140250Y265500D01*
X142500D01*
X143250Y264750D01*
X139500Y263250D02*X140250Y262500D01*
X145800D02*X148050D01*
X145050Y263250D02*X145800Y262500D01*
X145050Y264750D02*Y263250D01*
Y264750D02*X145800Y265500D01*
X147300D01*
X148050Y264750D01*
X145050Y264000D02*X148050D01*
Y264750D02*Y264000D01*
X152850Y268500D02*Y262500D01*
X152100D02*X152850Y263250D01*
X150600Y262500D02*X152100D01*
X149850Y263250D02*X150600Y262500D01*
X149850Y264750D02*Y263250D01*
Y264750D02*X150600Y265500D01*
X152100D01*
X152850Y264750D01*
G54D50*X157350Y267000D02*Y266850D01*
G54D49*Y264750D02*Y262500D01*
X159600Y264750D02*Y262500D01*
Y264750D02*X160350Y265500D01*
X161100D01*
X161850Y264750D01*
Y262500D01*
X158850Y265500D02*X159600Y264750D01*
X167100Y268500D02*Y263250D01*
X167850Y262500D01*
X166350Y266250D02*X167850D01*
X169350Y268500D02*Y262500D01*
Y264750D02*X170100Y265500D01*
X171600D01*
X172350Y264750D01*
Y262500D01*
G54D50*X174150Y267000D02*Y266850D01*
G54D49*Y264750D02*Y262500D01*
X176400D02*X178650D01*
X179400Y263250D01*
X178650Y264000D02*X179400Y263250D01*
X176400Y264000D02*X178650D01*
X175650Y264750D02*X176400Y264000D01*
X175650Y264750D02*X176400Y265500D01*
X178650D01*
X179400Y264750D01*
X175650Y263250D02*X176400Y262500D01*
X183900Y268500D02*Y263250D01*
X184650Y262500D01*
X188400Y265500D02*X189150Y264750D01*
X186900Y265500D02*X188400D01*
X186150Y264750D02*X186900Y265500D01*
X186150Y264750D02*Y263250D01*
X186900Y262500D01*
X189150Y265500D02*Y263250D01*
X189900Y262500D01*
X186900D02*X188400D01*
X189150Y263250D01*
X191700Y265500D02*Y263250D01*
X192450Y262500D01*
X194700Y265500D02*Y261000D01*
X193950Y260250D02*X194700Y261000D01*
X192450Y260250D02*X193950D01*
X191700Y261000D02*X192450Y260250D01*
Y262500D02*X193950D01*
X194700Y263250D01*
X196500Y264750D02*Y263250D01*
Y264750D02*X197250Y265500D01*
X198750D01*
X199500Y264750D01*
Y263250D01*
X198750Y262500D02*X199500Y263250D01*
X197250Y262500D02*X198750D01*
X196500Y263250D02*X197250Y262500D01*
X201300Y265500D02*Y263250D01*
X202050Y262500D01*
X203550D01*
X204300Y263250D01*
Y265500D02*Y263250D01*
X206850Y268500D02*Y263250D01*
X207600Y262500D01*
X206100Y266250D02*X207600D01*
X209100Y261000D02*X210600Y262500D01*
X215100Y267300D02*X216300Y268500D01*
Y262500D01*
X215100D02*X217350D01*
X219150Y264750D02*X222150Y268500D01*
X219150Y264750D02*X222900D01*
X222150Y268500D02*Y262500D01*
X227400Y268500D02*Y262500D01*
Y264750D02*X228150Y265500D01*
X229650D01*
X230400Y264750D01*
Y262500D01*
X232200Y264750D02*Y263250D01*
Y264750D02*X232950Y265500D01*
X234450D01*
X235200Y264750D01*
Y263250D01*
X234450Y262500D02*X235200Y263250D01*
X232950Y262500D02*X234450D01*
X232200Y263250D02*X232950Y262500D01*
X237000Y268500D02*Y263250D01*
X237750Y262500D01*
X240000D02*X242250D01*
X239250Y263250D02*X240000Y262500D01*
X239250Y264750D02*Y263250D01*
Y264750D02*X240000Y265500D01*
X241500D01*
X242250Y264750D01*
X239250Y264000D02*X242250D01*
Y264750D02*Y264000D01*
X244800Y262500D02*X247050D01*
X247800Y263250D01*
X247050Y264000D02*X247800Y263250D01*
X244800Y264000D02*X247050D01*
X244050Y264750D02*X244800Y264000D01*
X244050Y264750D02*X244800Y265500D01*
X247050D01*
X247800Y264750D01*
X244050Y263250D02*X244800Y262500D01*
X253050Y268500D02*Y263250D01*
X253800Y262500D01*
X252300Y266250D02*X253800D01*
X255300Y264750D02*Y263250D01*
Y264750D02*X256050Y265500D01*
X257550D01*
X258300Y264750D01*
Y263250D01*
X257550Y262500D02*X258300Y263250D01*
X256050Y262500D02*X257550D01*
X255300Y263250D02*X256050Y262500D01*
X260850Y268500D02*Y263250D01*
X261600Y262500D01*
X260100Y266250D02*X261600D01*
X265350Y265500D02*X266100Y264750D01*
X263850Y265500D02*X265350D01*
X263100Y264750D02*X263850Y265500D01*
X263100Y264750D02*Y263250D01*
X263850Y262500D01*
X266100Y265500D02*Y263250D01*
X266850Y262500D01*
X263850D02*X265350D01*
X266100Y263250D01*
X268650Y268500D02*Y263250D01*
X269400Y262500D01*
G54D51*X10000Y170000D02*X270000D01*
X10000D02*Y10000D01*
X270000D01*
Y170000D01*
G54D49*X53675Y-9500D02*X56675D01*
X57425Y-8750D01*
Y-6950D02*Y-8750D01*
X56675Y-6200D02*X57425Y-6950D01*
X54425Y-6200D02*X56675D01*
X54425Y-3500D02*Y-9500D01*
X53675Y-3500D02*X56675D01*
X57425Y-4250D01*
Y-5450D01*
X56675Y-6200D02*X57425Y-5450D01*
X59225Y-7250D02*Y-8750D01*
Y-7250D02*X59975Y-6500D01*
X61475D01*
X62225Y-7250D01*
Y-8750D01*
X61475Y-9500D02*X62225Y-8750D01*
X59975Y-9500D02*X61475D01*
X59225Y-8750D02*X59975Y-9500D01*
X66275Y-6500D02*X67025Y-7250D01*
X64775Y-6500D02*X66275D01*
X64025Y-7250D02*X64775Y-6500D01*
X64025Y-7250D02*Y-8750D01*
X64775Y-9500D01*
X67025Y-6500D02*Y-8750D01*
X67775Y-9500D01*
X64775D02*X66275D01*
X67025Y-8750D01*
X70325Y-7250D02*Y-9500D01*
Y-7250D02*X71075Y-6500D01*
X72575D01*
X69575D02*X70325Y-7250D01*
X77375Y-3500D02*Y-9500D01*
X76625D02*X77375Y-8750D01*
X75125Y-9500D02*X76625D01*
X74375Y-8750D02*X75125Y-9500D01*
X74375Y-7250D02*Y-8750D01*
Y-7250D02*X75125Y-6500D01*
X76625D01*
X77375Y-7250D01*
X81875D02*Y-8750D01*
Y-7250D02*X82625Y-6500D01*
X84125D01*
X84875Y-7250D01*
Y-8750D01*
X84125Y-9500D02*X84875Y-8750D01*
X82625Y-9500D02*X84125D01*
X81875Y-8750D02*X82625Y-9500D01*
X86675Y-6500D02*Y-8750D01*
X87425Y-9500D01*
X88925D01*
X89675Y-8750D01*
Y-6500D02*Y-8750D01*
X92225Y-3500D02*Y-8750D01*
X92975Y-9500D01*
X91475Y-5750D02*X92975D01*
X94475Y-3500D02*Y-8750D01*
X95225Y-9500D01*
G54D50*X96725Y-5000D02*Y-5150D01*
G54D49*Y-7250D02*Y-9500D01*
X98975Y-7250D02*Y-9500D01*
Y-7250D02*X99725Y-6500D01*
X100475D01*
X101225Y-7250D01*
Y-9500D01*
X98225Y-6500D02*X98975Y-7250D01*
X103775Y-9500D02*X106025D01*
X103025Y-8750D02*X103775Y-9500D01*
X103025Y-7250D02*Y-8750D01*
Y-7250D02*X103775Y-6500D01*
X105275D01*
X106025Y-7250D01*
X103025Y-8000D02*X106025D01*
Y-7250D02*Y-8000D01*
G54D50*X110525Y-5000D02*Y-5150D01*
G54D49*Y-7250D02*Y-9500D01*
X112775D02*X115025D01*
X115775Y-8750D01*
X115025Y-8000D02*X115775Y-8750D01*
X112775Y-8000D02*X115025D01*
X112025Y-7250D02*X112775Y-8000D01*
X112025Y-7250D02*X112775Y-6500D01*
X115025D01*
X115775Y-7250D01*
X112025Y-8750D02*X112775Y-9500D01*
X121025Y-3500D02*Y-8750D01*
X121775Y-9500D01*
X120275Y-5750D02*X121775D01*
X123275Y-3500D02*Y-9500D01*
Y-7250D02*X124025Y-6500D01*
X125525D01*
X126275Y-7250D01*
Y-9500D01*
X128825D02*X131075D01*
X128075Y-8750D02*X128825Y-9500D01*
X128075Y-7250D02*Y-8750D01*
Y-7250D02*X128825Y-6500D01*
X130325D01*
X131075Y-7250D01*
X128075Y-8000D02*X131075D01*
Y-7250D02*Y-8000D01*
X136325Y-6500D02*X138575D01*
X135575Y-7250D02*X136325Y-6500D01*
X135575Y-7250D02*Y-8750D01*
X136325Y-9500D01*
X138575D01*
X141125D02*X143375D01*
X140375Y-8750D02*X141125Y-9500D01*
X140375Y-7250D02*Y-8750D01*
Y-7250D02*X141125Y-6500D01*
X142625D01*
X143375Y-7250D01*
X140375Y-8000D02*X143375D01*
Y-7250D02*Y-8000D01*
X145925Y-7250D02*Y-9500D01*
Y-7250D02*X146675Y-6500D01*
X147425D01*
X148175Y-7250D01*
Y-9500D01*
X145175Y-6500D02*X145925Y-7250D01*
X150725Y-3500D02*Y-8750D01*
X151475Y-9500D01*
X149975Y-5750D02*X151475D01*
X153725Y-9500D02*X155975D01*
X152975Y-8750D02*X153725Y-9500D01*
X152975Y-7250D02*Y-8750D01*
Y-7250D02*X153725Y-6500D01*
X155225D01*
X155975Y-7250D01*
X152975Y-8000D02*X155975D01*
Y-7250D02*Y-8000D01*
X158525Y-7250D02*Y-9500D01*
Y-7250D02*X159275Y-6500D01*
X160775D01*
X157775D02*X158525Y-7250D01*
X162575Y-3500D02*Y-8750D01*
X163325Y-9500D01*
G54D50*X164825Y-5000D02*Y-5150D01*
G54D49*Y-7250D02*Y-9500D01*
X167075Y-7250D02*Y-9500D01*
Y-7250D02*X167825Y-6500D01*
X168575D01*
X169325Y-7250D01*
Y-9500D01*
X166325Y-6500D02*X167075Y-7250D01*
X171875Y-9500D02*X174125D01*
X171125Y-8750D02*X171875Y-9500D01*
X171125Y-7250D02*Y-8750D01*
Y-7250D02*X171875Y-6500D01*
X173375D01*
X174125Y-7250D01*
X171125Y-8000D02*X174125D01*
Y-7250D02*Y-8000D01*
X178625Y-7250D02*Y-8750D01*
Y-7250D02*X179375Y-6500D01*
X180875D01*
X181625Y-7250D01*
Y-8750D01*
X180875Y-9500D02*X181625Y-8750D01*
X179375Y-9500D02*X180875D01*
X178625Y-8750D02*X179375Y-9500D01*
X184175Y-4250D02*Y-9500D01*
Y-4250D02*X184925Y-3500D01*
X185675D01*
X183425Y-6500D02*X184925D01*
X190625Y-3500D02*Y-8750D01*
X191375Y-9500D01*
X189875Y-5750D02*X191375D01*
X192875Y-3500D02*Y-9500D01*
Y-7250D02*X193625Y-6500D01*
X195125D01*
X195875Y-7250D01*
Y-9500D01*
G54D50*X197675Y-5000D02*Y-5150D01*
G54D49*Y-7250D02*Y-9500D01*
X199925D02*X202175D01*
X202925Y-8750D01*
X202175Y-8000D02*X202925Y-8750D01*
X199925Y-8000D02*X202175D01*
X199175Y-7250D02*X199925Y-8000D01*
X199175Y-7250D02*X199925Y-6500D01*
X202175D01*
X202925Y-7250D01*
X199175Y-8750D02*X199925Y-9500D01*
X208175Y-7250D02*Y-11750D01*
X207425Y-6500D02*X208175Y-7250D01*
X208925Y-6500D01*
X210425D01*
X211175Y-7250D01*
Y-8750D01*
X210425Y-9500D02*X211175Y-8750D01*
X208925Y-9500D02*X210425D01*
X208175Y-8750D02*X208925Y-9500D01*
X215225Y-6500D02*X215975Y-7250D01*
X213725Y-6500D02*X215225D01*
X212975Y-7250D02*X213725Y-6500D01*
X212975Y-7250D02*Y-8750D01*
X213725Y-9500D01*
X215975Y-6500D02*Y-8750D01*
X216725Y-9500D01*
X213725D02*X215225D01*
X215975Y-8750D01*
X219275Y-3500D02*Y-8750D01*
X220025Y-9500D01*
X218525Y-5750D02*X220025D01*
X221525Y-3500D02*Y-9500D01*
Y-7250D02*X222275Y-6500D01*
X223775D01*
X224525Y-7250D01*
Y-9500D01*
X200750Y208500D02*Y202500D01*
X202700Y208500D02*X203750Y207450D01*
Y203550D01*
X202700Y202500D02*X203750Y203550D01*
X200000Y202500D02*X202700D01*
X200000Y208500D02*X202700D01*
X207800Y205500D02*X208550Y204750D01*
X206300Y205500D02*X207800D01*
X205550Y204750D02*X206300Y205500D01*
X205550Y204750D02*Y203250D01*
X206300Y202500D01*
X208550Y205500D02*Y203250D01*
X209300Y202500D01*
X206300D02*X207800D01*
X208550Y203250D01*
X211850Y208500D02*Y203250D01*
X212600Y202500D01*
X211100Y206250D02*X212600D01*
X214850Y202500D02*X217100D01*
X214100Y203250D02*X214850Y202500D01*
X214100Y204750D02*Y203250D01*
Y204750D02*X214850Y205500D01*
X216350D01*
X217100Y204750D01*
X214100Y204000D02*X217100D01*
Y204750D02*Y204000D01*
X218900Y206250D02*X219650D01*
X218900Y204750D02*X219650D01*
X227150Y208500D02*X227900Y207750D01*
X224900Y208500D02*X227150D01*
X224150Y207750D02*X224900Y208500D01*
X224150Y207750D02*Y206250D01*
X224900Y205500D01*
X227150D01*
X227900Y204750D01*
Y203250D01*
X227150Y202500D02*X227900Y203250D01*
X224900Y202500D02*X227150D01*
X224150Y203250D02*X224900Y202500D01*
X231950Y205500D02*X232700Y204750D01*
X230450Y205500D02*X231950D01*
X229700Y204750D02*X230450Y205500D01*
X229700Y204750D02*Y203250D01*
X230450Y202500D01*
X232700Y205500D02*Y203250D01*
X233450Y202500D01*
X230450D02*X231950D01*
X232700Y203250D01*
X236000Y208500D02*Y203250D01*
X236750Y202500D01*
X235250Y206250D02*X236750D01*
X240950Y208500D02*Y202500D01*
Y208500D02*X243200Y205500D01*
X245450Y208500D01*
Y202500D01*
X249500Y205500D02*X250250Y204750D01*
X248000Y205500D02*X249500D01*
X247250Y204750D02*X248000Y205500D01*
X247250Y204750D02*Y203250D01*
X248000Y202500D01*
X250250Y205500D02*Y203250D01*
X251000Y202500D01*
X248000D02*X249500D01*
X250250Y203250D01*
X252800Y205500D02*Y203250D01*
X253550Y202500D01*
X255800Y205500D02*Y201000D01*
X255050Y200250D02*X255800Y201000D01*
X253550Y200250D02*X255050D01*
X252800Y201000D02*X253550Y200250D01*
Y202500D02*X255050D01*
X255800Y203250D01*
X260300Y207300D02*X261500Y208500D01*
Y202500D01*
X260300D02*X262550D01*
X264350Y204750D02*X267350Y208500D01*
X264350Y204750D02*X268100D01*
X267350Y208500D02*Y202500D01*
X272600Y207300D02*X273800Y208500D01*
Y202500D01*
X272600D02*X274850D01*
X276650Y203250D02*X277400Y202500D01*
X276650Y204450D02*Y203250D01*
Y204450D02*X277700Y205500D01*
X278600D01*
X279650Y204450D01*
Y203250D01*
X278900Y202500D02*X279650Y203250D01*
X277400Y202500D02*X278900D01*
X276650Y206550D02*X277700Y205500D01*
X276650Y207750D02*Y206550D01*
Y207750D02*X277400Y208500D01*
X278900D01*
X279650Y207750D01*
Y206550D01*
X278600Y205500D02*X279650Y206550D01*
X281450Y206250D02*X282200D01*
X281450Y204750D02*X282200D01*
X284000Y207300D02*X285200Y208500D01*
Y202500D01*
X284000D02*X286250D01*
X288050Y204750D02*X291050Y208500D01*
X288050Y204750D02*X291800D01*
X291050Y208500D02*Y202500D01*
X293600Y206250D02*X294350D01*
X293600Y204750D02*X294350D01*
X296150Y207750D02*X296900Y208500D01*
X298400D01*
X299150Y207750D01*
X298400Y202500D02*X299150Y203250D01*
X296900Y202500D02*X298400D01*
X296150Y203250D02*X296900Y202500D01*
Y205800D02*X298400D01*
X299150Y207750D02*Y206550D01*
Y205050D02*Y203250D01*
Y205050D02*X298400Y205800D01*
X299150Y206550D02*X298400Y205800D01*
X300950Y207300D02*X302150Y208500D01*
Y202500D01*
X300950D02*X303200D01*
X307700Y207750D02*X308450Y208500D01*
X310700D01*
X311450Y207750D01*
Y206250D01*
X307700Y202500D02*X311450Y206250D01*
X307700Y202500D02*X311450D01*
X313250Y203250D02*X314000Y202500D01*
X313250Y207750D02*Y203250D01*
Y207750D02*X314000Y208500D01*
X315500D01*
X316250Y207750D01*
Y203250D01*
X315500Y202500D02*X316250Y203250D01*
X314000Y202500D02*X315500D01*
X313250Y204000D02*X316250Y207000D01*
X318050Y207750D02*X318800Y208500D01*
X321050D01*
X321800Y207750D01*
Y206250D01*
X318050Y202500D02*X321800Y206250D01*
X318050Y202500D02*X321800D01*
X323600Y207750D02*X324350Y208500D01*
X326600D01*
X327350Y207750D01*
Y206250D01*
X323600Y202500D02*X327350Y206250D01*
X323600Y202500D02*X327350D01*
X331850Y208500D02*Y203250D01*
X332600Y202500D01*
X334100D01*
X334850Y203250D01*
Y208500D02*Y203250D01*
X336650Y208500D02*X339650D01*
X338150D02*Y202500D01*
X342500D02*X344450D01*
X341450Y203550D02*X342500Y202500D01*
X341450Y207450D02*Y203550D01*
Y207450D02*X342500Y208500D01*
X344450D01*
X200000Y222000D02*Y217500D01*
Y222000D02*X201050Y223500D01*
X202700D01*
X203750Y222000D01*
Y217500D01*
X200000Y220500D02*X203750D01*
X205550D02*Y218250D01*
X206300Y217500D01*
X207800D01*
X208550Y218250D01*
Y220500D02*Y218250D01*
X211100Y223500D02*Y218250D01*
X211850Y217500D01*
X210350Y221250D02*X211850D01*
X213350Y223500D02*Y217500D01*
Y219750D02*X214100Y220500D01*
X215600D01*
X216350Y219750D01*
Y217500D01*
X218150Y219750D02*Y218250D01*
Y219750D02*X218900Y220500D01*
X220400D01*
X221150Y219750D01*
Y218250D01*
X220400Y217500D02*X221150Y218250D01*
X218900Y217500D02*X220400D01*
X218150Y218250D02*X218900Y217500D01*
X223700Y219750D02*Y217500D01*
Y219750D02*X224450Y220500D01*
X225950D01*
X222950D02*X223700Y219750D01*
X227750Y221250D02*X228500D01*
X227750Y219750D02*X228500D01*
X233000Y223500D02*Y217500D01*
Y223500D02*X235250Y220500D01*
X237500Y223500D01*
Y217500D01*
G54D50*X239300Y222000D02*Y221850D01*
G54D49*Y219750D02*Y217500D01*
X241550Y220500D02*X243800D01*
X240800Y219750D02*X241550Y220500D01*
X240800Y219750D02*Y218250D01*
X241550Y217500D01*
X243800D01*
X245600Y223500D02*Y217500D01*
Y219750D02*X246350Y220500D01*
X247850D01*
X248600Y219750D01*
Y217500D01*
X252650Y220500D02*X253400Y219750D01*
X251150Y220500D02*X252650D01*
X250400Y219750D02*X251150Y220500D01*
X250400Y219750D02*Y218250D01*
X251150Y217500D01*
X253400Y220500D02*Y218250D01*
X254150Y217500D01*
X251150D02*X252650D01*
X253400Y218250D01*
X256700Y217500D02*X258950D01*
X255950Y218250D02*X256700Y217500D01*
X255950Y219750D02*Y218250D01*
Y219750D02*X256700Y220500D01*
X258200D01*
X258950Y219750D01*
X255950Y219000D02*X258950D01*
Y219750D02*Y219000D01*
X260750Y223500D02*Y218250D01*
X261500Y217500D01*
X266450Y223500D02*Y217500D01*
X265700Y223500D02*X268700D01*
X269450Y222750D01*
Y221250D01*
X268700Y220500D02*X269450Y221250D01*
X266450Y220500D02*X268700D01*
X272000Y217500D02*X274250D01*
X271250Y218250D02*X272000Y217500D01*
X271250Y219750D02*Y218250D01*
Y219750D02*X272000Y220500D01*
X273500D01*
X274250Y219750D01*
X271250Y219000D02*X274250D01*
Y219750D02*Y219000D01*
X276800Y223500D02*Y218250D01*
X277550Y217500D01*
X276050Y221250D02*X277550D01*
X279800Y217500D02*X282050D01*
X279050Y218250D02*X279800Y217500D01*
X279050Y219750D02*Y218250D01*
Y219750D02*X279800Y220500D01*
X281300D01*
X282050Y219750D01*
X279050Y219000D02*X282050D01*
Y219750D02*Y219000D01*
X284600Y219750D02*Y217500D01*
Y219750D02*X285350Y220500D01*
X286850D01*
X283850D02*X284600Y219750D01*
X289400Y217500D02*X291650D01*
X292400Y218250D01*
X291650Y219000D02*X292400Y218250D01*
X289400Y219000D02*X291650D01*
X288650Y219750D02*X289400Y219000D01*
X288650Y219750D02*X289400Y220500D01*
X291650D01*
X292400Y219750D01*
X288650Y218250D02*X289400Y217500D01*
X294950D02*X297200D01*
X294200Y218250D02*X294950Y217500D01*
X294200Y219750D02*Y218250D01*
Y219750D02*X294950Y220500D01*
X296450D01*
X297200Y219750D01*
X294200Y219000D02*X297200D01*
Y219750D02*Y219000D01*
X299750Y219750D02*Y217500D01*
Y219750D02*X300500Y220500D01*
X301250D01*
X302000Y219750D01*
Y217500D01*
X299000Y220500D02*X299750Y219750D01*
X200000Y238500D02*X203000D01*
X201500D02*Y232500D01*
G54D50*X204800Y237000D02*Y236850D01*
G54D49*Y234750D02*Y232500D01*
X207050Y238500D02*Y233250D01*
X207800Y232500D01*
X206300Y236250D02*X207800D01*
X209300Y238500D02*Y233250D01*
X210050Y232500D01*
X212300D02*X214550D01*
X211550Y233250D02*X212300Y232500D01*
X211550Y234750D02*Y233250D01*
Y234750D02*X212300Y235500D01*
X213800D01*
X214550Y234750D01*
X211550Y234000D02*X214550D01*
Y234750D02*Y234000D01*
X216350Y236250D02*X217100D01*
X216350Y234750D02*X217100D01*
X221600Y233250D02*X222350Y232500D01*
X221600Y237750D02*X222350Y238500D01*
X221600Y237750D02*Y233250D01*
X224150Y235500D02*Y233250D01*
X224900Y232500D01*
X226400D01*
X227150Y233250D01*
Y235500D02*Y233250D01*
X229700Y234750D02*Y232500D01*
Y234750D02*X230450Y235500D01*
X231200D01*
X231950Y234750D01*
Y232500D01*
X228950Y235500D02*X229700Y234750D01*
X233750Y238500D02*Y232500D01*
Y234750D02*X236000Y232500D01*
X233750Y234750D02*X235250Y236250D01*
X238550Y234750D02*Y232500D01*
Y234750D02*X239300Y235500D01*
X240050D01*
X240800Y234750D01*
Y232500D01*
X237800Y235500D02*X238550Y234750D01*
X242600D02*Y233250D01*
Y234750D02*X243350Y235500D01*
X244850D01*
X245600Y234750D01*
Y233250D01*
X244850Y232500D02*X245600Y233250D01*
X243350Y232500D02*X244850D01*
X242600Y233250D02*X243350Y232500D01*
X247400Y235500D02*Y233250D01*
X248150Y232500D01*
X248900D01*
X249650Y233250D01*
Y235500D02*Y233250D01*
X250400Y232500D01*
X251150D01*
X251900Y233250D01*
Y235500D02*Y233250D01*
X254450Y234750D02*Y232500D01*
Y234750D02*X255200Y235500D01*
X255950D01*
X256700Y234750D01*
Y232500D01*
X253700Y235500D02*X254450Y234750D01*
X258500Y238500D02*X259250Y237750D01*
Y233250D01*
X258500Y232500D02*X259250Y233250D01*
X263750Y235500D02*X266750D01*
X271250Y238500D02*Y232500D01*
Y238500D02*X274250D01*
X271250Y235800D02*X273500D01*
X278300Y235500D02*X279050Y234750D01*
X276800Y235500D02*X278300D01*
X276050Y234750D02*X276800Y235500D01*
X276050Y234750D02*Y233250D01*
X276800Y232500D01*
X279050Y235500D02*Y233250D01*
X279800Y232500D01*
X276800D02*X278300D01*
X279050Y233250D01*
X281600Y238500D02*Y232500D01*
Y233250D02*X282350Y232500D01*
X283850D01*
X284600Y233250D01*
Y234750D02*Y233250D01*
X283850Y235500D02*X284600Y234750D01*
X282350Y235500D02*X283850D01*
X281600Y234750D02*X282350Y235500D01*
X287150Y234750D02*Y232500D01*
Y234750D02*X287900Y235500D01*
X289400D01*
X286400D02*X287150Y234750D01*
G54D50*X291200Y237000D02*Y236850D01*
G54D49*Y234750D02*Y232500D01*
X293450Y235500D02*X295700D01*
X292700Y234750D02*X293450Y235500D01*
X292700Y234750D02*Y233250D01*
X293450Y232500D01*
X295700D01*
X299750Y235500D02*X300500Y234750D01*
X298250Y235500D02*X299750D01*
X297500Y234750D02*X298250Y235500D01*
X297500Y234750D02*Y233250D01*
X298250Y232500D01*
X300500Y235500D02*Y233250D01*
X301250Y232500D01*
X298250D02*X299750D01*
X300500Y233250D01*
X303800Y238500D02*Y233250D01*
X304550Y232500D01*
X303050Y236250D02*X304550D01*
G54D50*X306050Y237000D02*Y236850D01*
G54D49*Y234750D02*Y232500D01*
X307550Y234750D02*Y233250D01*
Y234750D02*X308300Y235500D01*
X309800D01*
X310550Y234750D01*
Y233250D01*
X309800Y232500D02*X310550Y233250D01*
X308300Y232500D02*X309800D01*
X307550Y233250D02*X308300Y232500D01*
X313100Y234750D02*Y232500D01*
Y234750D02*X313850Y235500D01*
X314600D01*
X315350Y234750D01*
Y232500D01*
X312350Y235500D02*X313100Y234750D01*
X320600Y238500D02*Y232500D01*
X322550Y238500D02*X323600Y237450D01*
Y233550D01*
X322550Y232500D02*X323600Y233550D01*
X319850Y232500D02*X322550D01*
X319850Y238500D02*X322550D01*
X326150Y234750D02*Y232500D01*
Y234750D02*X326900Y235500D01*
X328400D01*
X325400D02*X326150Y234750D01*
X332450Y235500D02*X333200Y234750D01*
X330950Y235500D02*X332450D01*
X330200Y234750D02*X330950Y235500D01*
X330200Y234750D02*Y233250D01*
X330950Y232500D01*
X333200Y235500D02*Y233250D01*
X333950Y232500D01*
X330950D02*X332450D01*
X333200Y233250D01*
X335750Y235500D02*Y233250D01*
X336500Y232500D01*
X337250D01*
X338000Y233250D01*
Y235500D02*Y233250D01*
X338750Y232500D01*
X339500D01*
X340250Y233250D01*
Y235500D02*Y233250D01*
G54D50*X342050Y237000D02*Y236850D01*
G54D49*Y234750D02*Y232500D01*
X344300Y234750D02*Y232500D01*
Y234750D02*X345050Y235500D01*
X345800D01*
X346550Y234750D01*
Y232500D01*
X343550Y235500D02*X344300Y234750D01*
X350600Y235500D02*X351350Y234750D01*
X349100Y235500D02*X350600D01*
X348350Y234750D02*X349100Y235500D01*
X348350Y234750D02*Y233250D01*
X349100Y232500D01*
X350600D01*
X351350Y233250D01*
X348350Y231000D02*X349100Y230250D01*
X350600D01*
X351350Y231000D01*
Y235500D02*Y231000D01*
M02*
